<?xml version="1.0" standalone="no"?>
<!DOCTYPE svg PUBLIC "-//W3C//DTD SVG 1.1//EN" "http://www.w3.org/Graphics/SVG/1.1/DTD/svg11.dtd" >
<svg xmlns="http://www.w3.org/2000/svg" xmlns:xlink="http://www.w3.org/1999/xlink" version="1.1">
<metadata>
Created by FontForge 20161013 at Fri May 11 16:33:24 2012
 By ,,,
Copyright (c) 2012 Natanael Gama (www.ndiscovered.com), with Reserved Font Name "Cinzel"
</metadata>
<defs>
<font id="Cinzel-Black" horiz-adv-x="600" >
  <font-face 
    font-family="Cinzel Black"
    font-weight="900"
    font-stretch="normal"
    units-per-em="1000"
    panose-1="0 0 10 0 0 0 0 0 0 0"
    ascent="800"
    descent="-200"
    x-height="600"
    cap-height="700"
    bbox="-50 -305.842 1376 971"
    underline-thickness="50"
    underline-position="-200"
    unicode-range="U+0020-FB02"
  />
<missing-glyph horiz-adv-x="250" 
 />
    <glyph glyph-name=".notdef" horiz-adv-x="250" 
 />
    <glyph glyph-name=".null" horiz-adv-x="0" 
 />
    <glyph glyph-name="nonmarkingreturn" horiz-adv-x="333" 
 />
    <glyph glyph-name="space" unicode=" " horiz-adv-x="250" 
 />
    <glyph glyph-name="exclam" unicode="!" horiz-adv-x="295" 
d="M227 363l-45 -133h-70l-45 133l-22 339h205zM145.5 -14q-37.5 0 -64 26.5t-26.5 63.5t26.5 63.5t64 26.5t63.5 -26.5t26 -63.5t-26 -63.5t-63.5 -26.5z" />
    <glyph glyph-name="quotedbl" unicode="&#x22;" horiz-adv-x="394" 
d="M47 500l-17 5q26 66 31.5 103.5t-2.5 91.5l132 14q1 -22 -5.5 -51t-21 -61.5t-45.5 -61t-72 -40.5zM221 500l-17 5q26 66 31.5 103.5t-2.5 91.5l131 14q2 -22 -4.5 -51t-21.5 -61.5t-45.5 -61t-71.5 -40.5z" />
    <glyph glyph-name="numbersign" unicode="#" 
d="M546 437h-118l-28 -160h102v-60h-113l-38 -217h-62l38 217h-138l-38 -217h-62l38 217h-107v60h118l28 160h-102v60h113l35 203h62l-35 -203h138l35 203h62l-35 -203h107v-60zM338 277l28 160h-138l-28 -160h138z" />
    <glyph glyph-name="dollar" unicode="$" horiz-adv-x="615" 
d="M357 457l123 -57q125 -57 115 -194q-7 -99 -78 -155t-196 -64l-7 -89l-48 3l7 85q-81 1 -141.5 19t-87.5 46q-15 38 -4.5 97t36.5 92h9q-5 -76 48 -135.5t144 -67.5l17 227l-120 56q-69 31 -100.5 87t-22.5 128q10 87 71 133t162 46q17 0 44 -1l6 75l48 -1l-6 -77
q42 -3 77 -6h78l-22 -163h-10q0 24 -8.5 44.5t-24.5 36.5t-40 26t-53 14zM293 487l17 -9l14 186q-35 -2 -62 -13.5t-41.5 -29.5t-16.5 -41q-3 -32 20 -52.5t69 -40.5zM341 243l-16 -206q57 5 87.5 32.5t30.5 65.5q0 30 -24 56t-78 52z" />
    <glyph glyph-name="percent" unicode="%" horiz-adv-x="777" 
d="M544 709l39 -17l-372 -711l-45 19l346 653q-46 -30 -104 -22q-22 3 -45 11q21 -43 14 -105q-9 -83 -64.5 -129.5t-146.5 -46.5q-80 0 -118 49t-25 137q12 79 66.5 123t139.5 44h1q36 0 64 -7t42.5 -15.5t34 -17t38.5 -9.5q16 -1 31.5 1.5t31 8t26 10.5t26 13t20.5 11z
M249 536q8 65 1.5 101.5t-25.5 36.5q-14 0 -26.5 -16t-22 -47t-15.5 -74q-9 -64 -3 -100t25 -36q24 1 41.5 36.5t24.5 98.5zM590 339q77 0 116 -47t32 -130t-63 -129.5t-148 -46.5q-80 0 -118 49t-25 137q12 79 66.5 123t139.5 44zM604 161q7 65 0.5 101.5t-25.5 36.5
q-21 0 -37.5 -36t-25.5 -101q-9 -64 -3.5 -100t24.5 -36q24 0 41.5 35.5t25.5 99.5z" />
    <glyph glyph-name="ampersand" unicode="&#x26;" horiz-adv-x="911" 
d="M920 11l1 -11q-49 -5 -78.5 -7.5t-76 -2.5t-87.5 9.5t-78 27.5q-81 -37 -200 -37q-30 0 -60.5 2t-69 8.5t-72 16.5t-66 27.5t-56 39.5t-38 55t-14.5 72t14 72t38 55t50.5 36t56.5 23q-43 69 -43 134q0 50 24 87t64 57t85.5 29.5t95.5 9.5q71 0 131.5 -17.5t83.5 -53.5
l-47 -163h-9q-2 184 -116 184q-30 0 -53.5 -13t-36 -36t-12.5 -52q0 -52 40 -100.5t136 -131.5l134 -115q20 88 -10 153q-22 46 -59 46h-15v10h256v-10h-14q-14 0 -21 -7.5t-9 -16t-4 -28.5v-6q-11 -128 -52 -205q132 -115 187 -141zM238 244q4 -52 26.5 -92.5t56 -64
t70 -35.5t72.5 -12q47 0 85 20q-25 18 -62.5 48.5t-75.5 61.5t-43 35q-75 62 -122 112q-10 -32 -7 -73z" />
    <glyph glyph-name="quotesingle" unicode="'" horiz-adv-x="220" 
d="M47 500l-17 5q26 66 31.5 103.5t-2.5 91.5l132 14q1 -22 -5.5 -51t-21 -61.5t-45.5 -61t-72 -40.5z" />
    <glyph glyph-name="parenleft" unicode="(" horiz-adv-x="478" 
d="M443 732l6 -8q-164 -78 -159 -388q3 -168 42 -271t115 -156l-6 -9q-90 21 -158.5 65t-110 102t-62 125t-20.5 142q0 80 20.5 147t62.5 120t110.5 87t159.5 44z" />
    <glyph glyph-name="parenright" unicode=")" horiz-adv-x="478" 
d="M38 -100l-6 9q75 53 114.5 156t42.5 271q5 310 -159 388l6 8q90 -10 158.5 -44t110.5 -87t63 -120t21 -147q0 -75 -21 -142t-62.5 -125t-110 -102t-157.5 -65z" />
    <glyph glyph-name="asterisk" unicode="*" horiz-adv-x="390" 
d="M202 605l67 -31l59 -58l-35 -42l-51 -20l-38 73l-9 73l-8 -73l-37 -73l-51 20l-35 42l58 58l66 31l-72 -14l-81 13l3 54l30 46l73 -37l50 -53l-35 64l-14 81l53 14l53 -14l-12 -81l-36 -65l50 54l73 38l30 -46l3 -55l-82 -13z" />
    <glyph glyph-name="plus" unicode="+" horiz-adv-x="481" 
d="M442 342v-65h-169v-168h-65v168h-168v65h168v169h65v-169h169z" />
    <glyph glyph-name="comma" unicode="," horiz-adv-x="260" 
d="M45 -129l-4 13q14 6 25 18t17 28.5t0.5 38t-24.5 42.5q-27 31 -24 74t33 64q34 25 78.5 12.5t63.5 -53.5q15 -36 15.5 -72t-15.5 -69t-39.5 -56.5t-57 -35t-68.5 -4.5z" />
    <glyph glyph-name="hyphen" unicode="-" horiz-adv-x="380" 
d="M30 292l10 40h300l10 -40l-10 -41h-300z" />
    <glyph glyph-name="period" unicode="." horiz-adv-x="250" 
d="M125 -14q-37 0 -63.5 26.5t-26.5 63.5t26.5 63.5t63.5 26.5t63.5 -26.5t26.5 -63.5t-26.5 -63.5t-63.5 -26.5z" />
    <glyph glyph-name="slash" unicode="/" horiz-adv-x="439" 
d="M10 14l361 709l59 -27l-361 -710z" />
    <glyph glyph-name="zero" unicode="0" horiz-adv-x="690" 
d="M345 714q145 0 227.5 -99t82.5 -265t-82.5 -265t-227.5 -99t-227.5 99t-82.5 265t82.5 265t227.5 99zM345 664q-51 0 -75.5 -76.5t-24.5 -237.5q0 -54 2.5 -98t8 -79t13.5 -60.5t19.5 -42.5t25.5 -25.5t31 -8.5q52 0 76 76.5t24 237.5q0 81 -6 140t-18.5 98t-31 57.5
t-44.5 18.5z" />
    <glyph glyph-name="one" unicode="1" horiz-adv-x="424" 
d="M37 0h357v10h-21q-23 0 -39 15.5t-16 38.5v650h-10q-47 -28 -132.5 -44.5t-145.5 -19.5v-10h18q32 0 49 -16t17 -53v-507q0 -22 -16.5 -38t-38.5 -16h-21z" />
    <glyph glyph-name="two" unicode="2" horiz-adv-x="658" 
d="M107 456h-10l-67 180q29 25 72.5 43t91.5 26.5t98 8.5q81 0 145.5 -24t102.5 -71t38 -110q0 -31 -10 -61.5t-24.5 -55t-39.5 -51t-44.5 -44t-51.5 -40.5t-49 -34.5t-48 -30.5q-17 -11 -24 -16h190q45 0 78 25.5t59 79.5h10l-68 -281h-520v10q27 33 72.5 87.5t76 90
t67.5 85.5t58.5 88.5t37 83.5t15.5 85q0 32 -9 58t-25.5 43.5t-40.5 26t-53 6.5q-129 -11 -128 -208z" />
    <glyph glyph-name="three" unicode="3" horiz-adv-x="602" 
d="M87 468l-57 173q39 32 104.5 51.5t144.5 19.5q120 0 187 -45t67 -127q0 -65 -40.5 -104t-94.5 -41q30 -6 57.5 -19t52.5 -35.5t39.5 -58.5t14.5 -82q0 -85 -51 -149t-127.5 -93t-169.5 -28t-175 38l2 10q82 -2 151.5 26.5t112 84.5t42.5 127q0 44 -16.5 77.5t-44 52.5
t-59 28.5t-65.5 9.5l2 10q70 -2 120 48.5t43 122.5q-5 53 -39.5 77.5t-82.5 19.5q-59 -5 -84.5 -52t-23.5 -142h-10z" />
    <glyph glyph-name="four" unicode="4" horiz-adv-x="643" 
d="M598 189h-87v-126q0 -22 16 -37.5t39 -15.5h11v-10h-338l1 10h10q23 0 39 15t17 37v127h-321v10l516 515h10v-420h43q26 0 40.5 9.5t24.5 30.5h10zM154 294h152v147z" />
    <glyph glyph-name="five" unicode="5" horiz-adv-x="591" 
d="M520 739l-42 -207l-307 -25l-19 -83q129 30 216.5 5.5t132 -86.5t40.5 -149q-3 -60 -30.5 -109.5t-71 -81t-99 -51.5t-113 -23.5t-114.5 6.5t-103 34l2 10q27 -1 64 5t79.5 20.5t78 36.5t60.5 57.5t28 77.5q3 56 -32 89.5t-94.5 35.5t-136.5 -27l-9 6l83 384l298 25
q54 0 79 50h10z" />
    <glyph glyph-name="six" unicode="6" horiz-adv-x="675" 
d="M305 365l-7 8q11 27 36 46t56 26.5t66 6.5t67 -16.5t58 -41t41 -68.5t13 -97q-2 -51 -20 -94t-52.5 -76.5t-90.5 -53t-128 -20.5q-304 -5 -304 330q0 108 32.5 192t96 140.5t163 79.5t227.5 7l4 -7q-43 -13 -78 -27t-62.5 -30.5t-49.5 -32.5t-38 -37t-28 -39.5
t-19.5 -44.5t-12 -47.5t-7 -53.5t-3 -57.5t-0.5 -63.5q0 -54 1.5 -90t6.5 -68.5t14.5 -51t24.5 -29t37 -10.5t37 10t23.5 24.5t13.5 39t6 46t1 53.5q0 79 -13 113.5t-37 44.5q-36 15 -75 -11z" />
    <glyph glyph-name="seven" unicode="7" horiz-adv-x="572" 
d="M33 698l-28 -233h10q12 31 29 45.5t46 14.5h320l-52 -111q-20 -43 -64 -123.5t-89.5 -160.5t-76.5 -130h170q22 79 65 208t72 195l128 295h-530z" />
    <glyph glyph-name="eight" unicode="8" horiz-adv-x="636" 
d="M430 410q38 -19 59.5 -32t48 -33t40.5 -39t23.5 -46t9.5 -60q0 -103 -84 -158.5t-229 -55.5q-40 0 -76.5 4.5t-73.5 16t-63 30.5t-43 50.5t-17 71.5q0 67 39 107t96 60q-92 72 -92 179q0 97 69 153t177 56q102 0 175 -48t73 -122q0 -51 -37.5 -85.5t-94.5 -48.5zM311 663
q-36 2 -57 -22t-21 -62q0 -40 28 -67t111 -71q27 50 24 120q-2 43 -23.5 71.5t-61.5 30.5zM306 36q49 -5 85 20t36 64q0 34 -34 65t-124 77q-40 20 -52 27q-23 -41 -23 -100q0 -69 29.5 -108.5t82.5 -44.5z" />
    <glyph glyph-name="nine" unicode="9" horiz-adv-x="675" 
d="M370 331l7 -8q-11 -27 -36 -46t-56.5 -26.5t-66 -6.5t-66.5 16.5t-58 41t-41 68.5t-13 97q1 41 12.5 76.5t34.5 66t56.5 52.5t81.5 35t106 14q304 5 304 -330q0 -108 -32.5 -192t-96 -140t-163 -79t-227.5 -8l-4 7q43 13 78 27t62.5 30.5t49.5 32.5t38 37t28 39.5
t19.5 44.5t12 47.5t7 53.5t3 57.5t0.5 63.5q0 68 -3 110t-12 75.5t-26 48t-44 14.5q-22 0 -37 -9.5t-23.5 -24t-13 -39t-5.5 -46t-1 -53.5q0 -79 13 -113.5t37 -44.5q36 -15 75 11z" />
    <glyph glyph-name="colon" unicode=":" horiz-adv-x="250" 
d="M125 369q-37 0 -63.5 26t-26.5 63.5t26.5 64t63.5 26.5t63.5 -26.5t26.5 -64t-26.5 -63.5t-63.5 -26zM125 -14q-37 0 -63.5 26.5t-26.5 63.5t26.5 63.5t63.5 26.5t63.5 -26.5t26.5 -63.5t-26.5 -63.5t-63.5 -26.5z" />
    <glyph glyph-name="semicolon" unicode=";" horiz-adv-x="260" 
d="M125 397q-37 0 -63.5 26.5t-26.5 64t26.5 63.5t63.5 26t63.5 -26t26.5 -63.5t-26.5 -64t-63.5 -26.5zM45 -129l-4 13q14 6 25 18t17 28.5t0.5 38t-24.5 42.5q-27 31 -24 74t33 64q34 25 78.5 12.5t63.5 -53.5q15 -36 15.5 -72t-15.5 -69t-39.5 -56.5t-57 -35t-68.5 -4.5z
" />
    <glyph glyph-name="less" unicode="&#x3c;" horiz-adv-x="501" 
d="M442 526v-71l-309 -145l309 -146v-71l-402 187v59z" />
    <glyph glyph-name="equal" unicode="=" horiz-adv-x="481" 
d="M40 354v65h402v-65h-402zM40 179v65h402v-65h-402z" />
    <glyph glyph-name="greater" unicode="&#x3e;" horiz-adv-x="481" 
d="M40 526l402 -187v-59l-402 -187v71l309 146l-309 145v71z" />
    <glyph glyph-name="question" unicode="?" horiz-adv-x="493" 
d="M50 510l-50 115q23 40 81.5 64.5t139.5 24.5q117 0 179.5 -46t62.5 -131q0 -58 -32.5 -99t-114.5 -101q-17 -12 -24.5 -18t-19 -18.5t-14.5 -22.5t-2.5 -25t9.5 -32l-9 -6q-30 8 -53 23.5t-36.5 42t-10.5 58.5q2 22 13 40.5t24 32.5t26 30t21.5 42.5t7.5 61.5
q-2 118 -91 118q-97 0 -97 -154h-10zM226 -14q-38 0 -64.5 26.5t-26.5 63.5t26.5 63.5t64.5 26.5q37 0 63 -26.5t26 -63.5t-26 -63.5t-63 -26.5z" />
    <glyph glyph-name="at" unicode="@" horiz-adv-x="998" 
d="M507 190h-136q-48 -62 -84.5 -88.5t-81.5 -28.5q-69 -4 -119.5 39.5t-62.5 116t24 166.5q41 100 130 173t208 105t246 15q172 -24 259.5 -125t83.5 -249q-4 -158 -101 -275.5t-266 -154t-399 52.5l-4 10q126 -52 235 -43t191.5 62.5t132 146t56.5 208.5q7 130 -43 214
t-151 107q-43 8 -87.5 7t-92 -19t-90.5 -47.5t-83 -79.5t-70 -113q-19 -38 -31.5 -77t-17 -73.5t-2 -61.5t16.5 -43t37 -17q13 -1 26.5 4t25.5 13t24.5 20t23.5 24.5t22.5 28t21 29t21 29t19.5 25.5l127 173q46 57 55 77h6l84 -404q9 -47 40 -47h5l-2 -7h-238l1 7h7
q15 0 30 13.5t11 33.5zM483 346l-85 -121h104z" />
    <glyph glyph-name="A" unicode="A" horiz-adv-x="720" 
d="M351 724l317 -659q32 -55 84 -55h8v-10h-379v10h9q22 0 36 17.5t3 45.5l-39 93h-214l-40 -93q-9 -20 -3.5 -34t17 -21.5t24.5 -7.5h9v-10h-223v10h9q23 0 45.5 13.5t37.5 40.5l233 511q53 112 57 149h9zM198 216h171l-84 200z" />
    <glyph glyph-name="B" unicode="B" horiz-adv-x="731" 
d="M30 700h348q278 0 278 -174q0 -35 -11 -63t-29.5 -45t-41.5 -26.5t-49 -10.5q77 -4 129.5 -52.5t52.5 -128.5q0 -100 -85 -150t-228 -50h-364v10h13q17 0 31.5 8.5t23 22.5t9.5 31v556q-1 17 -9.5 31.5t-23 22.5t-31.5 8h-13v10zM312 52h13q66 -1 106.5 38.5t40.5 124.5
q0 74 -32 114.5t-94 40.5v9q31 0 52.5 15.5t32 44.5t10.5 71q0 140 -116 140h-13v-598z" />
    <glyph glyph-name="C" unicode="C" horiz-adv-x="793" 
d="M721 292h8l24 -182q-74 -124 -281 -124q-204 1 -320.5 96.5t-116.5 268.5q0 113 52 195t150.5 125t235.5 43q149 0 257 -46l-10 -191h-9q-29 101 -84 144t-137 43q-111 0 -173 -82t-62 -228q0 -147 57.5 -231t159.5 -87q41 0 72 5.5t56 18.5t43.5 32t33 48.5t25 65.5
t19.5 86z" />
    <glyph glyph-name="D" unicode="D" horiz-adv-x="842" 
d="M30 700h379q188 0 293.5 -92.5t105.5 -257.5q0 -82 -27.5 -147.5t-78.5 -110t-125.5 -68.5t-167.5 -24h-379v10h13q26 0 44.5 18.5t19.5 44.5v560q0 24 -19.5 40.5t-44.5 16.5h-12zM312 650v-600h77q93 0 146 79.5t53 220.5t-53 220.5t-146 79.5h-77z" />
    <glyph glyph-name="E" unicode="E" horiz-adv-x="667" 
d="M643 232h10l-38 -232h-585v10h13q26 0 44.5 18.5t19.5 44.5v554q0 11 -3.5 20.5t-9.5 17t-14 13.5t-17.5 9t-19.5 3h-13v10h443q31 0 67.5 6t51.5 12v-206h-10v8q0 39 -15 67.5t-43 44.5t-67 17h-145v-279h109q48 1 78 31.5t30 78.5v4h10v-278h-10v5q0 47 -30 77.5
t-77 31.5h-110v-269h123q73 0 129 48t79 133z" />
    <glyph glyph-name="F" unicode="F" horiz-adv-x="631" 
d="M592 718v-206h-10v8q0 39 -15 67.5t-43 44.5t-67 17h-145v-279h109q48 1 78 31.5t30 77.5v5h10v-278h-10v5q0 47 -30 77.5t-77 31.5h-110v-247q0 -26 19 -44.5t45 -18.5h13v-10h-359v10h13q26 0 44.5 18.5t19.5 44.5v554q-1 26 -19.5 44.5t-44.5 18.5h-13v10h443
q20 0 45 3t44.5 7t29.5 8z" />
    <glyph glyph-name="G" unicode="G" horiz-adv-x="861" 
d="M849 325h-15q-25 0 -38 -11.5t-12 -33.5v-165q-25 -32 -76 -60.5t-127 -48.5t-156 -20q-179 0 -284.5 97.5t-105.5 268.5q0 170 106 266t294 96q81 0 167 -13.5t131 -32.5l-10 -191h-9q-52 187 -229 187q-230 0 -230 -322q0 -146 47.5 -226t144.5 -80q53 0 92.5 28.5
t39.5 78.5l1 137q0 22 -13.5 33.5t-37.5 11.5h-16v10h336v-10z" />
    <glyph glyph-name="H" unicode="H" horiz-adv-x="893" 
d="M863 10v-10h-359v10h13q26 0 44.5 18t19.5 44v253h-269v-252q0 -17 8.5 -31.5t23.5 -23t32 -8.5h13v-10h-359v10h13q26 0 44.5 18.5t19.5 44.5v555q-1 26 -19.5 44t-44.5 18h-13v10h359v-10h-13q-26 0 -44.5 -18t-19.5 -44v-253h269v253q-1 26 -19.5 44t-44.5 18h-13v10
h359v-10h-13q-17 0 -31.5 -8.5t-23 -23t-9.5 -31.5v-554q1 -26 19.5 -44.5t44.5 -18.5h13z" />
    <glyph glyph-name="I" unicode="I" horiz-adv-x="418" 
d="M389 10v-10h-359v10h13q26 0 44.5 18.5t19.5 44.5v555q-1 26 -19.5 44t-44.5 18h-13v10h359v-10h-13q-26 0 -44.5 -18t-19.5 -44v-555q0 -26 19 -44.5t45 -18.5h13z" />
    <glyph glyph-name="J" unicode="J" horiz-adv-x="424" 
d="M35 700h359v-10h-13q-17 0 -31.5 -8.5t-23 -22.5t-9.5 -32v-577q0 -82 -46.5 -144t-120 -89.5t-155.5 -16.5v9q117 53 117 244v574q-1 26 -19.5 44.5t-44.5 18.5h-13v10z" />
    <glyph glyph-name="K" unicode="K" horiz-adv-x="822" 
d="M312 628v-555q0 -26 19 -44.5t45 -18.5h13v-10h-359v10h13q26 0 44.5 18.5t19.5 44.5v555q-1 26 -19.5 44t-44.5 18h-13v10h359v-10h-13q-26 0 -44.5 -18t-19.5 -44zM507 438l234 -352q49 -74 107 -76v-10h-108q-184 0 -257 100q-14 19 -48.5 73t-62.5 99t-28 46l239 326
q12 17 4.5 32t-28.5 15h-10v9h241v-9h-4q-67 0 -110 -49z" />
    <glyph glyph-name="L" unicode="L" horiz-adv-x="652" 
d="M643 232h10l-38 -232h-585v10h13q26 0 44.5 18.5t19.5 44.5v554q0 17 -9 31.5t-23.5 23t-31.5 8.5h-13v10h359v-10h-13q-26 0 -45 -18.5t-19 -44.5v-576h123q73 0 129 48t79 133z" />
    <glyph glyph-name="M" unicode="M" horiz-adv-x="968" 
d="M814 714l91 -641q3 -20 13.5 -34t26 -21.5t33.5 -7.5h16v-10h-355v9h16q16 0 27.5 13.5t11.5 29.5l-38 292l-170 -252q-5 -7 -12.5 -19t-19 -42.5t-10.5 -54.5h-9l-260 359l-35 -283q0 -16 11.5 -29.5t27.5 -13.5h16v-9h-220v10h16q28 0 48.5 17t24.5 46l88 641h9
l336 -459l308 459h9z" />
    <glyph glyph-name="N" unicode="N" horiz-adv-x="881" 
d="M495 700h366v-10h-18q-25 0 -43 -17.5t-19 -42.5v-516q0 -37 3.5 -69t6.5 -45l3 -14h-9l-479 426v-341q0 -17 8.5 -31t22.5 -22t30 -8h19v-10h-366v10h19q25 0 43 17.5t18 43.5v519q0 35 -3 66t-7 45l-3 14h10l1 -1l478 -425v340q-1 26 -19 43.5t-43 17.5h-19v10z" />
    <glyph glyph-name="O" unicode="O" horiz-adv-x="905" 
d="M450 714q129 0 222.5 -43t143.5 -125.5t50 -195.5q0 -171 -111 -267.5t-305 -96.5t-304.5 96.5t-110.5 267.5t110.5 267.5t304.5 96.5zM450.5 36q91.5 0 143 83t51.5 231t-51.5 231t-143 83t-143 -83t-51.5 -231t51.5 -231t143 -83z" />
    <glyph glyph-name="P" unicode="P" horiz-adv-x="707" 
d="M35 700h381q49 0 89 -7t69.5 -20t52 -30t36 -38.5t21 -45t8.5 -50.5q3 -54 -16.5 -100t-55 -75t-79.5 -42.5t-94.5 -4t-95.5 41.5v10l5 0.5t13.5 3t19.5 7t23 13.5t23 20.5t20.5 31t15.5 42.5q8 31 6 60q-2 62 -35 97.5t-90 35.5h-35v-577q1 -26 19.5 -44.5t44.5 -18.5
h13v-10h-359v10h13q17 0 31.5 8.5t23.5 23t9 31.5v560q-3 24 -21 40.5t-43 16.5h-12z" />
    <glyph glyph-name="Q" unicode="Q" horiz-adv-x="912" 
d="M1369 -64l7 -3q0 -64 -27.5 -115.5t-79 -81.5t-118.5 -39t-152.5 10.5t-174.5 68.5q-51 28 -109 69t-94 69t-81 49.5t-87 22.5q-193 1 -303 97t-110 267t110.5 267.5t304.5 96.5q129 0 222.5 -43t143.5 -125.5t50 -195.5q0 -85 -28.5 -153t-82.5 -115t-131 -71
q47 -8 93.5 -20.5t81.5 -24.5t117 -42q286 -104 448 12zM261 350q0 -148 51.5 -231t143 -83t143 83t51.5 231t-51.5 231t-143 83t-143 -83t-51.5 -231z" />
    <glyph glyph-name="R" unicode="R" horiz-adv-x="793" 
d="M35 700h391q39 0 74 -4.5t71 -17.5t62 -33.5t42 -55t16 -78.5q0 -31 -8 -59.5t-25 -56.5t-49.5 -47.5t-77.5 -26.5q39 -11 70.5 -38.5t51.5 -61.5q1 -1 10.5 -17.5t20 -34.5t26 -42t28.5 -41q23 -31 40 -47t34 -22t42 -7v-10h-125q-41 0 -69.5 2t-61 8.5t-56 18.5
t-46.5 33.5t-41 51.5q-16 27 -25.5 56t-16 61t-10.5 44q-5 17 -11 29.5t-13 19.5t-13.5 11t-14.5 7v10h16q28 0 49.5 12.5t37 40.5t20.5 70q3 29 2 41q-7 132 -114 132h-44v-575q0 -26 19 -44.5t45 -18.5h12v-10h-359v10h13q26 0 44.5 18t19.5 44v555q0 17 -9 31.5t-23.5 23
t-31.5 8.5h-13v10z" />
    <glyph glyph-name="S" unicode="S" horiz-adv-x="645" 
d="M303 487l187 -87q125 -57 115 -194q-7 -107 -89 -163.5t-225 -56.5q-83 0 -146 18.5t-91 46.5q-15 38 -4.5 97t36.5 92h9q-6 -82 55 -143t162 -61q68 0 104.5 28.5t36.5 69.5q0 32 -25 58t-81 52l-163 76q-69 31 -100.5 87t-22.5 128q10 87 71 133t162 46q66 0 169 -10
h78l-22 -163h-10q0 55 -43 89t-116 34q-60 0 -96.5 -23t-39.5 -61q-1 -14 3.5 -26t11.5 -21t20 -18t24.5 -15t29.5 -13z" />
    <glyph glyph-name="T" unicode="T" horiz-adv-x="698" 
d="M128 701h443q31 0 67 6t51 12v-206l-10 1v7q0 40 -15.5 69t-44.5 44.5t-69 16.5h-98v-579q1 -26 19.5 -44t44.5 -18h13v-10h-359v10h13q26 0 44.5 18t19.5 43v580h-99q-60 -1 -94 -35.5t-34 -94.5v-7l-10 -1v206q14 -6 50.5 -12t67.5 -6z" />
    <glyph glyph-name="U" unicode="U" horiz-adv-x="845" 
d="M600 700h225v-10h-16q-21 0 -36.5 -13.5t-16.5 -33.5v-386q0 -127 -78.5 -199t-221.5 -72q-179 0 -268 70t-89 200v384q0 22 -15.5 36t-37.5 14h-16v10h343v-10h-16q-22 0 -37 -13.5t-16 -34.5v-382q0 -105 48 -164t134 -59t134.5 55.5t48.5 154.5v395q-1 21 -16 34.5
t-37 13.5h-16v10z" />
    <glyph glyph-name="V" unicode="V" horiz-adv-x="720" 
d="M537 700h223v-10h-9q-8 0 -17 -2t-18 -6t-17 -10.5t-16 -15.5t-15 -20l-233 -511q-53 -112 -57 -149h-9l-317 659q-31 55 -84 55h-8v10h379v-10h-9q-21 0 -34.5 -17.5t-3.5 -45.5l143 -343l149 343q12 28 -2 45.5t-36 17.5h-9v10z" />
    <glyph glyph-name="W" unicode="W" horiz-adv-x="964" 
d="M786 700h218v-10h-8q-25 0 -50 -14.5t-36 -42.5l-170 -544q-2 -7 -5 -18.5t-7.5 -41t-1.5 -51.5h-10l-231 435l-158 -324q-26 -56 -27 -111h-9l-247 655q-14 29 -37.5 43t-48.5 14h-8v10h359v-10h-9q-13 0 -24 -7t-15.5 -21t2.5 -34l109 -272l173 360l9 -1l199 -368
l80 281q5 20 0.5 34t-14.5 21t-24 7h-9v10z" />
    <glyph glyph-name="X" unicode="X" horiz-adv-x="773" 
d="M810 10v-10h-404v10h13q21 0 33.5 20.5t0.5 41.5l-132 201l-142 -201q-9 -15 -5.5 -28.5t15.5 -23.5t25 -10h13v-10h-260v10h14q54 0 99 57l199 272l-191 293q-17 24 -44 41t-57 17h-14v10h402v-10h-12q-22 0 -34.5 -20.5t-0.5 -41.5l117 -177l113 177q13 21 0 41.5
t-35 20.5h-12l-1 10h259v-10h-14q-29 0 -55 -16.5t-44 -41.5l-167 -249l206 -315q16 -24 43.5 -41t57.5 -17h14z" />
    <glyph glyph-name="Y" unicode="Y" horiz-adv-x="729" 
d="M526 700h249v-10h-14q-30 0 -57.5 -17t-43.5 -42l-196 -309v-249q0 -26 18.5 -44.5t45.5 -18.5h12v-10h-358v10h13q26 0 44.5 18t19.5 44v250l-191 311q-7 11 -17.5 21.5t-23.5 18.5t-28 12.5t-30 4.5h-14v10h386v-10h-12q-22 0 -34 -20.5t-1 -41.5l137 -247l142 247
q12 21 -1 41.5t-34 20.5h-12v10z" />
    <glyph glyph-name="Z" unicode="Z" horiz-adv-x="668" 
d="M634 232h10l-38 -232h-571v9l332 642h-180q-60 -1 -94 -35.5t-34 -94.5v-8h-10v206q15 -6 52.5 -12t68.5 -6h345q19 0 42 2t40.5 5t23.5 6v-9l-336 -655h141q73 0 129 48.5t79 133.5z" />
    <glyph glyph-name="bracketleft" unicode="[" horiz-adv-x="472" 
d="M120 -90v812h309v-10l-104 -50v-692l107 -50v-10h-312z" />
    <glyph glyph-name="backslash" unicode="\" horiz-adv-x="439" 
d="M10 696l59 27l361 -709l-59 -28z" />
    <glyph glyph-name="bracketright" unicode="]" horiz-adv-x="472" 
d="M43 722h309v-812h-312v10l107 50v692l-104 50v10z" />
    <glyph glyph-name="asciicircum" unicode="^" horiz-adv-x="572" 
d="M253 381l-218 -209h89l163 153l162 -153h89l-217 209h-68z" />
    <glyph glyph-name="underscore" unicode="_" horiz-adv-x="500" 
d="M0 -110v50h500v-50h-500z" />
    <glyph glyph-name="grave" unicode="`" 
d="M294 750l-7 -7q-53 6 -118 33t-115 60q21 73 85 100q43 -37 89.5 -89.5t65.5 -96.5z" />
    <glyph glyph-name="a" unicode="a" horiz-adv-x="632" 
d="M308 636l282 -575q26 -51 78 -51h8v-10h-352v10h8q20 0 32 14t2 37l-29 66h-185l-30 -69q-9 -22 3 -35t32 -13h7v-10h-206v10h8q21 0 42.5 12t33.5 37l206 444q49 107 52 133h8zM171 172h146l-73 168z" />
    <glyph glyph-name="b" unicode="b" horiz-adv-x="626" 
d="M23 600h311q51 0 91 -6.5t74.5 -22.5t53 -46.5t18.5 -73.5q0 -60 -32 -92.5t-78 -31.5q63 -2 106.5 -43t43.5 -111q0 -88 -73 -130.5t-197 -42.5h-318v10h11q22 0 37 15t15 37v476q0 22 -15 37t-37 15h-11v10zM278 555v-509q50 2 81 35.5t31 105.5q0 62 -19 96t-65 34v8
q37 0 50.5 28t13.5 82q0 120 -89 120h-3z" />
    <glyph glyph-name="c" unicode="c" horiz-adv-x="668" 
d="M606 250h7l26 -160q-60 -102 -235 -102q-179 1 -280 82t-101 231q0 147 100 229t281 82q127 0 218 -36l-13 -170h-7q-26 88 -70.5 124.5t-110.5 36.5q-99 0 -146.5 -70.5t-47.5 -192.5q0 -61 12 -110t34 -84.5t55.5 -55t75.5 -21.5q35 0 60.5 4.5t45.5 16t33.5 27
t25 41.5t19.5 55t18 73z" />
    <glyph glyph-name="d" unicode="d" horiz-adv-x="741" 
d="M18 600h341q170 0 264 -79t94 -221.5t-94 -221t-264 -78.5h-340v10h12q23 0 39.5 16t16.5 38v475q-2 22 -18 36.5t-39 14.5h-12v10zM283 555v-509h57q80 0 126 67t46 187q0 79 -20.5 136.5t-59.5 88t-92 30.5h-57z" />
    <glyph glyph-name="e" unicode="e" horiz-adv-x="575" 
d="M561 210l-28 -210h-512v10h11q10 0 19.5 4t16.5 11t11.5 16.5t4.5 20.5v475q0 23 -15.5 38t-36.5 15h-11v10h390q25 0 56 5t43 10v-189h-10v5q0 58 -30.5 90t-86.5 33h-103v-235h77q44 1 71.5 29.5t27.5 73.5v2h10v-258h-10v4q0 44 -27.5 73t-71.5 29h-77v-226h96
q60 0 109 44t67 120h9z" />
    <glyph glyph-name="f" unicode="f" horiz-adv-x="542" 
d="M21 600h390q25 0 56 5t43 10v-191h-10v6q0 38 -13.5 65.5t-40.5 42.5t-65 16h-101v-235h76q45 1 72.5 29.5t27.5 73.5v2h10v-258h-10v4q0 44 -27.5 73t-72.5 29h-76v-210q0 -14 7.5 -26.5t19 -19t26.5 -6.5h10v-10h-322v10h11q21 0 36.5 15t15.5 37v475q0 23 -15.5 38
t-36.5 15h-11v10z" />
    <glyph glyph-name="g" unicode="g" horiz-adv-x="723" 
d="M664 240v-142q-31 -42 -120 -76t-189.5 -34t-174.5 37t-115 108t-41 169q0 146 89.5 228t251.5 82q68 0 144 -10.5t113 -25.5l-14 -170h-7q-45 161 -185 161q-97 0 -142.5 -69.5t-45.5 -205.5q0 -259 149 -259q41 0 70.5 25.5t22.5 69.5v112q0 19 -11 29.5t-31 10.5h-14
v8h305v-8h-12q-43 0 -43 -40z" />
    <glyph glyph-name="h" unicode="h" horiz-adv-x="754" 
d="M734 590h-11q-22 0 -37.5 -14.5t-15.5 -37.5v-476q0 -15 7 -27t19 -18.5t26 -6.5h11v-10h-321v10h10q22 0 37 15t16 37v216h-195v-216q1 -22 16 -37t37 -15h10v-10h-322v10h11q21 0 36.5 15t15.5 37v476q0 22 -15.5 37t-36.5 15h-11v10h322v-10h-10q-22 0 -37 -15
t-16 -37v-214h195v214q-1 22 -16 37t-37 15h-10v10h322v-10z" />
    <glyph glyph-name="i" unicode="i" horiz-adv-x="363" 
d="M279 538v-476q1 -22 16 -37t36 -15h11v-10h-321v10h11q21 0 36 15t15 37v476q0 22 -15 37t-36 15h-11v10h320v-10h-10q-14 0 -25.5 -6.5t-18.5 -18.5t-8 -27z" />
    <glyph glyph-name="j" unicode="j" horiz-adv-x="361" 
d="M15 600h326v-10h-11q-21 0 -36.5 -15.5t-17.5 -37.5v-486q0 -75 -42.5 -130.5t-108 -79t-138.5 -13.5v9q31 15 50.5 38.5t28.5 55t11.5 58.5t2.5 65v481q0 23 -16 39t-38 16h-10z" />
    <glyph glyph-name="k" unicode="k" horiz-adv-x="705" 
d="M282 538v-476q0 -22 15.5 -37t37.5 -15h10v-10h-322v10h10q22 0 37 15t16 37v477q-1 22 -16.5 37t-36.5 15h-11v10h323v-10h-10q-22 0 -37.5 -15t-15.5 -38zM458 387l189 -309q21 -34 43.5 -51.5t47.5 -18.5v-8h-103h-4q-160 -2 -227 90q-14 19 -38 63.5t-41.5 79
t-17.5 35.5l199 284q11 15 4.5 27.5t-23.5 12.5h-8v8h204v-8h-4q-52 0 -87 -37z" />
    <glyph glyph-name="l" unicode="l" horiz-adv-x="557" 
d="M562 210l-29 -210h-2h-510v10h11q21 0 36.5 15t15.5 37v476q0 22 -15.5 37t-36.5 15h-11v10h323v-10h-11q-11 0 -20.5 -4t-16.5 -11t-11.5 -16.5t-4.5 -20.5v-492h96q60 0 108.5 44t67.5 120h10z" />
    <glyph glyph-name="m" unicode="m" horiz-adv-x="854" 
d="M873 10v-10h-324v10h14q18 0 26 12.5t7 25.5l-33 224l-138 -193q-5 -6 -11.5 -16.5t-16.5 -37t-9 -47.5h-8l-225 280l-27 -210q0 -5 1.5 -11t5 -12t10.5 -10.5t16 -4.5h14v-10h-194v10h13q25 0 43 13.5t21 38.5l78 550h8l298 -375l267 375h9l80 -555q6 -22 22.5 -34.5
t38.5 -12.5h14z" />
    <glyph glyph-name="n" unicode="n" horiz-adv-x="779" 
d="M428 600h340v-10h-17q-23 0 -39 -14t-16 -35v-444q0 -33 3 -60t6 -38l3 -11h-9l-420 353v-281q1 -21 16.5 -35.5t38.5 -14.5h16v-10h-338v10h16q23 0 39 14.5t16 35.5v447q0 30 -3 56.5t-6 38.5l-3 11h9l419 -354v281q0 21 -15.5 35.5t-38.5 14.5h-17v10z" />
    <glyph glyph-name="o" unicode="o" horiz-adv-x="779" 
d="M389 612q172 0 268.5 -82t96.5 -231q0 -147 -96.5 -229t-268.5 -82q-171 0 -267.5 82t-96.5 229q0 149 96.5 231t267.5 82zM389 33q78 0 119 69.5t41 196.5q0 85 -18 144.5t-54 91.5t-88 32q-78 0 -119 -69.5t-41 -198.5q0 -127 41 -196.5t119 -69.5z" />
    <glyph glyph-name="p" unicode="p" horiz-adv-x="607" 
d="M21 600h336q51 0 91 -9t65.5 -23.5t43 -36t25.5 -44t10 -49.5q3 -47 -13 -88.5t-46 -66.5t-67 -37t-79.5 -3t-79.5 39v8q2 0 6 1t15 7.5t20.5 16.5t19.5 30t15 46q6 31 5 52q-2 34 -13.5 59t-32.5 39t-50 14h-12v-493q1 -23 15 -37.5t37 -14.5h10v-10h-320v10h11
q21 0 36 15t15 37v477q-1 22 -16 36.5t-36 14.5h-11v10z" />
    <glyph glyph-name="q" unicode="q" horiz-adv-x="760" 
d="M1138 -51l6 -3q1 -52 -15 -94t-46 -70t-74 -42t-95 -12.5t-112.5 20.5t-124.5 56q-38 22 -75.5 50t-63 50t-51.5 42t-52.5 31t-53.5 11h-3q-167 0 -260 82t-93 229q0 149 93.5 231t260.5 82q168 0 261.5 -82t93.5 -231q0 -71 -23 -128t-66 -97t-106 -62q40 -5 77 -15
t63 -19t95 -34q85 -32 154 -40t118.5 3.5t91.5 41.5zM230 299q0 -128 38 -197t111 -69q74 0 112 69t38 197q0 64 -9.5 113.5t-28 84t-47 52.5t-65.5 18q-73 0 -111 -69.5t-38 -198.5z" />
    <glyph glyph-name="r" unicode="r" horiz-adv-x="678" 
d="M32 600h344q228 0 228 -165q0 -25 -5.5 -48.5t-19 -47t-40 -40.5t-63.5 -24q35 -9 64.5 -35.5t44.5 -53.5q4 -7 14.5 -28t22.5 -42.5t26 -42.5q27 -41 44.5 -52t44.5 -11v-10h-118q-33 0 -50 0.5t-41 3.5t-38.5 9.5t-31.5 17.5t-31.5 28t-28.5 42q-20 34 -29 62.5
t-18 73.5q-10 45 -33 57v8h5q28 0 49 25.5t27 83.5q0 1 0.5 6t0.5 10.5v15.5q-2 32 -12 55t-20 33t-26 15.5t-20 5.5h-11h-20v-490q0 -25 16.5 -38.5t36.5 -13.5h9v-10h-321v10h11q21 0 36 15t15 37v476q0 22 -14.5 37t-35.5 15h-12v10z" />
    <glyph glyph-name="s" unicode="s" horiz-adv-x="549" 
d="M278 419l129 -59q53 -23 82.5 -67.5t23.5 -110.5q-8 -96 -78 -145t-194 -49q-74 0 -123.5 16.5t-68.5 40.5q-15 36 -4.5 88.5t34.5 82.5h6q-3 -73 46.5 -127t134.5 -55q52 0 78.5 23t26.5 55q0 28 -23.5 51t-76.5 46l-105 49q-64 27 -94 79t-21 120q11 77 59.5 116
t130.5 39q56 0 151 -9h67l-24 -146h-6q0 49 -35.5 78.5t-94.5 29.5q-46 0 -72.5 -17.5t-30.5 -48.5q-1 -16 4 -28.5t19.5 -22t25.5 -15t33 -14.5z" />
    <glyph glyph-name="t" unicode="t" horiz-adv-x="613" 
d="M107 601h399q26 0 59 5t41 10v-188h-10v5q0 38 -13.5 65t-40 41.5t-64.5 14.5h-74v-492q0 -22 15.5 -37t37.5 -15h10v-10h-321v10h10q21 0 36.5 15t15.5 37v492h-73q-28 0 -50.5 -8.5t-37 -24t-22.5 -38t-8 -50.5v-5h-10v188q13 -5 44 -10t56 -5z" />
    <glyph glyph-name="u" unicode="u" horiz-adv-x="708" 
d="M504 600h193v-8h-13q-18 0 -31 -12.5t-13 -30.5v-326q0 -111 -66 -173t-188 -62q-310 0 -310 233v328q0 9 -3.5 17t-9.5 14t-14 9t-17 3h-13v8h310v-8h-14q-18 0 -30.5 -12t-12.5 -31v-326q0 -59 17 -101t50 -64t79 -22q68 0 105 46t38 130v337q-1 19 -13.5 31t-30.5 12
h-13v8z" />
    <glyph glyph-name="v" unicode="v" horiz-adv-x="620" 
d="M458 600h205v-10h-8q-49 0 -74 -46l-202 -422q-49 -104 -52 -134h-8l-281 557q-26 45 -73 45h-7v10h351v-9h-8q-19 0 -31 -14.5t-3 -38.5l116 -257l116 257q11 24 -1 38.5t-32 14.5h-8v9z" />
    <glyph glyph-name="w" unicode="w" horiz-adv-x="851" 
d="M692 600h191v-10h-7q-21 0 -41 -10t-31 -31l-147 -462q-2 -5 -4.5 -14.5t-6.5 -35.5t-2 -47h-8l-206 348l-134 -254q-24 -47 -24 -94h-8l-216 552q-11 25 -31.5 36.5t-41.5 11.5h-7v10h329v-10h-9q-17 0 -28 -13t-5 -34l92 -208l145 278h7l172 -288l62 214q5 24 -5 37.5
t-29 13.5h-7v10z" />
    <glyph glyph-name="x" unicode="x" horiz-adv-x="666" 
d="M680 10h11v-10h-357v10h10q18 0 28.5 16.5t0.5 33.5l-98 161l-116 -161q-12 -18 -1.5 -34t29.5 -16h10v-10h-221v10h12q44 0 79 42l171 229l-163 268q-13 18 -35 30.5t-45 12.5h-11v10h355v-10h-10q-9 0 -16.5 -4.5t-12 -12t-5.5 -16t5 -17.5l92 -151l97 151
q10 17 0 33.5t-28 16.5h-10v10h216v-10h-12q-15 0 -31 -6t-28 -16t-21 -22l-145 -218l168 -275q13 -19 35 -32t47 -13z" />
    <glyph glyph-name="y" unicode="y" horiz-adv-x="633" 
d="M466 600h218v-10h-13q-26 0 -48.5 -13.5t-36.5 -33.5l-169 -264v-217q1 -22 16.5 -37t38.5 -15h11v-10h-328v10h12q22 0 38 15t16 37v216l-172 265q-9 13 -22 23.5t-29.5 17t-33.5 6.5h-12v10h350v-10h-10q-19 0 -29.5 -17t-0.5 -34l124 -210l121 210q10 17 -1 34t-29 17
h-11v10z" />
    <glyph glyph-name="z" unicode="z" horiz-adv-x="606" 
d="M598 210l-36 -210h-537v8l301 547h-158q-57 0 -88.5 -32.5t-31.5 -90.5v-4h-10v188q12 -5 45.5 -10t60.5 -5h338q17 0 37.5 1.5t36.5 4t21 5.5v-7l-290 -560h108q68 0 120 44t73 121h10z" />
    <glyph glyph-name="braceleft" unicode="{" horiz-adv-x="407" 
d="M85 314v10q35 1 43 16q4 10 -1.5 39.5t-14 70.5t-8.5 71q0 43 16.5 80.5t49 67.5t88 47t128.5 17l2 -8q-17 -5 -30 -12t-21.5 -14t-14 -20.5t-8.5 -22t-4 -27t-1.5 -28t0 -32.5t0.5 -33q0 -30 -2 -54.5t-5 -43.5t-9 -34t-10.5 -25.5t-14 -19t-16 -13.5t-18.5 -10
t-19.5 -7t-22 -6t-21.5 -7q21 -6 32 -9.5t28 -12t26.5 -17t21 -24t17 -34.5t9.5 -46.5t4 -62.5q0 -19 -2 -46t-3.5 -44.5t0 -37.5t7.5 -33t20 -24t37 -17l-2 -8q-72 0 -125 17t-81.5 47.5t-42 66t-13.5 78.5q0 38 13.5 103t7.5 80q-7 19 -40 22z" />
    <glyph glyph-name="bar" unicode="|" horiz-adv-x="265" 
d="M100 -180v880h65v-880h-65z" />
    <glyph glyph-name="braceright" unicode="}" horiz-adv-x="407" 
d="M20 725l2 8q72 0 127.5 -17t88.5 -47t49.5 -67.5t16.5 -80.5q0 -30 -8.5 -71t-14 -70.5t-1.5 -39.5q7 -15 43 -16v-10q-33 -3 -40 -22q-6 -15 7.5 -80t13.5 -103q0 -43 -13.5 -78.5t-42.5 -66t-81.5 -47.5t-124.5 -17l-2 8q23 6 37 17t20 24t7.5 33t0 37.5t-4 44.5
t-2.5 46q0 35 4 62.5t10 46.5t17.5 34.5t20.5 24t26.5 17t28.5 12t32 9.5q-8 3 -22.5 7t-21.5 6t-19.5 7t-18.5 10t-15.5 13.5t-14.5 19t-11 25.5t-9 34t-5 43.5t-2 54.5q0 10 0.5 33t0.5 32.5t-1.5 28t-4 27t-8.5 22t-14.5 20.5t-21 14t-29.5 12z" />
    <glyph glyph-name="asciitilde" unicode="~" horiz-adv-x="494" 
d="M393 363h68q10 -41 4.5 -71t-24 -49.5t-43.5 -29t-52 -9.5q-21 0 -44.5 10t-45 24t-41.5 28.5t-40 25t-35 11.5q-28 1 -41 -22t-2 -72h-65q-16 73 18 115.5t90 43.5q25 0 57 -15t56.5 -33.5t51 -34.5t41.5 -16q33 -1 49 23.5t-2 70.5z" />
    <glyph glyph-name="exclamdown" unicode="&#xa1;" horiz-adv-x="295" 
d="M149.5 716q37.5 0 64 -26.5t26.5 -64t-26.5 -63.5t-64 -26t-63.5 26t-26 63.5t26 64t63.5 26.5zM68 339l45 133h70l45 -133l22 -339h-205z" />
    <glyph glyph-name="cent" unicode="&#xa2;" horiz-adv-x="578" 
d="M534 304l23 -138q-50 -85 -193 -88l-7 -87l-46 3l7 85q-142 9 -222.5 79.5t-80.5 189.5q0 48 13.5 88.5t35 67.5t52 48t61.5 33t66 19.5t63 10t55 2.5l7 84l47 -1l-7 -85q80 -7 134 -29l-11 -147h-6q-34 116 -120 132l-37 -450q27 1 47 5.5t36 14.5t27 22.5t20 34.5
t16 46t14 60h6zM322 125l36 448q-157 -6 -156 -222q-1 -96 29.5 -154t90.5 -72z" />
    <glyph glyph-name="sterling" unicode="&#xa3;" horiz-adv-x="620" 
d="M606 219h10l-45 -195q-46 -21 -117.5 -29.5t-115.5 -2.5q-32 4 -98.5 18.5t-102.5 13.5q-18 -1 -54 -13.5t-43 -20.5h-10v10q16 31 24 49t23.5 61t24 95.5t10.5 113.5h-82l18 56h64q-6 322 276 339q74 4 127 -12t76 -45l-48 -142h-10q-3 79 -28 115t-80 34
q-52 -1 -78 -37.5t-30 -100t0 -151.5h181l-21 -56h-158q-1 -61 -11 -104.5t-29 -70t-41.5 -41.5t-54.5 -24q13 4 36 3t37 -3t40 -5.5t44 -5.5q40 -3 77 3.5t72 23.5t65 48.5t52 75.5z" />
    <glyph glyph-name="currency" unicode="&#xa4;" horiz-adv-x="541" 
d="M492 154l-22 -22l-60 61q-59 -54 -139.5 -54t-140.5 52l-59 -59l-21 22l59 58q-53 61 -52.5 141t53.5 140l-60 60l21 21l60 -60q60 51 139.5 51t138.5 -52l61 61l22 -21l-62 -61q52 -60 52.5 -139t-51.5 -139zM140 222.5q54 -53.5 129.5 -53.5t129 53.5t53.5 129.5
t-53.5 129.5t-129 53.5t-129.5 -53.5t-54 -129.5t54 -129.5z" />
    <glyph glyph-name="yen" unicode="&#xa5;" horiz-adv-x="729" 
d="M526 700h249v-10h-14q-30 0 -57.5 -17t-43.5 -42l-131 -206h94v-50h-126l-33 -53v-7h159v-50h-159v-192q0 -26 18.5 -44.5t45.5 -18.5h12v-10h-358v10h13q26 0 44.5 18t19.5 44v193h-162v50h162v7l-33 53h-129v50h99l-128 208q-7 11 -17.5 21.5t-23.5 18.5t-28 12.5
t-30 4.5h-14v10h386v-10h-12q-22 0 -34 -20.5t-1 -41.5l137 -247l142 247q12 21 -1 41.5t-34 20.5h-12v10z" />
    <glyph glyph-name="brokenbar" unicode="&#xa6;" horiz-adv-x="265" 
d="M100 350v350h65v-350h-65zM100 -180v350h65v-350h-65z" />
    <glyph glyph-name="section" unicode="&#xa7;" horiz-adv-x="536" 
d="M331 716q84 0 129.5 -38.5t15.5 -84.5q-15 -23 -32 -30t-33 0t-33.5 20t-33.5 29t-33 27.5t-32 15.5t-31 -8q-12 -9 -13.5 -22.5t6.5 -30.5t20.5 -34t30.5 -36.5t33.5 -35.5t33 -33.5t26.5 -27.5q56 -64 87.5 -134t37.5 -134t-10.5 -122.5t-53 -101.5t-95 -68.5
t-130.5 -25.5q-57 0 -103.5 18t-64.5 46t0 63q15 25 33 32.5t36 0t37.5 -21t37.5 -30t37 -28.5t35 -16t32 9q27 22 1 58.5t-105 112.5q-34 33 -52 51q-52 51 -81.5 109.5t-35.5 113.5t4 108.5t38 98t66.5 78.5t89 53t105.5 19zM145 583q-14 -32 -20 -62t-5.5 -53.5t10 -49.5
t18.5 -43t29 -41.5t32.5 -38t36.5 -38.5q32 -32 49 -50.5t42 -50.5t36.5 -56.5t18.5 -57t3 -63.5q13 28 18 55.5t4 50t-11 48.5t-20 44.5t-30 44.5t-34 41.5t-39 42.5q-33 35 -47 51t-34 41t-27.5 40.5t-16 39.5t-11 48.5t-2.5 56.5z" />
    <glyph glyph-name="dieresis" unicode="&#xa8;" 
d="M149.5 665q-30.5 0 -52 22t-21.5 52.5t21.5 52t52 21.5t52 -21.5t21.5 -52t-21.5 -52.5t-52 -22zM411.5 665q-30.5 0 -52 22t-21.5 52.5t21.5 52t52 21.5t52 -21.5t21.5 -52t-21.5 -52.5t-52 -22z" />
    <glyph glyph-name="copyright" unicode="&#xa9;" horiz-adv-x="848" 
d="M424 714q151 0 257.5 -106.5t106.5 -257.5t-106.5 -257.5t-257.5 -106.5t-257.5 106.5t-106.5 257.5t106.5 257.5t257.5 106.5zM424 662q-129 0 -220.5 -91.5t-91.5 -220.5t91.5 -220.5t220.5 -91.5t220.5 91.5t91.5 220.5t-91.5 220.5t-220.5 91.5zM610 326h6l23 -108
q-78 -91 -205 -91q-108 1 -178.5 64.5t-70.5 158.5q0 96 71 159.5t180 63.5q46 0 96 -11.5t85 -31.5l-6 -120h-6q-53 122 -163 122q-57 0 -89 -48t-32 -134q0 -85 32.5 -133t91.5 -48q67 0 110 40.5t55 116.5z" />
    <glyph glyph-name="ordfeminine" unicode="&#xaa;" horiz-adv-x="390" 
d="M391 381h4v-4h-205v4h5q10 0 16.5 7t3.5 18l-16 33h-100l-15 -30q-6 -12 1 -20t18 -8h5v-4h-113v4h4q26 0 41 23l115 231q28 63 30 75h4l162 -306q16 -23 40 -23zM111 465h75l-37 77z" />
    <glyph glyph-name="guillemotleft" unicode="&#xab;" horiz-adv-x="541" 
d="M265 490l-225 -198l225 -204l9 7l-79 197l78 193zM473 490l-225 -198l225 -204l9 7l-79 197l78 193z" />
    <glyph glyph-name="logicalnot" unicode="&#xac;" 
d="M40 407h522v-212h-65v147h-457v65z" />
    <glyph glyph-name="softhyphen" unicode="&#xad;" horiz-adv-x="380" 
d="M30 292l10 40h300l10 -40l-10 -41h-300z" />
    <glyph glyph-name="registered" unicode="&#xae;" horiz-adv-x="245" 
d="M123 701q47 0 80 -33t33 -80t-33 -80t-80 -33t-80 33t-33 80t33 80t80 33zM122.5 499q38.5 0 64 25.5t25.5 63.5t-25.5 63.5t-64 25.5t-63.5 -25.5t-25 -63.5t25 -63.5t63.5 -25.5zM107 650h19q9 0 17 -2.5t14 -6.5t9.5 -10t3.5 -14q0 -29 -31 -33q11 -2 31 -33
q9 -15 20 -19v-2h-19q-7 0 -13 1t-10.5 4.5t-7.5 5t-6.5 8t-4.5 8t-4.5 10l-3.5 8.5q-6 13 -9 13v2h10q11 1 14 16q2 8 1 13q0 22 -20 21h-10v-97q0 -11 10 -11h3v-2h-57v2h2q10 0 11 10v95q-1 11 -11 11h-2v2h44z" />
    <glyph glyph-name="macron" unicode="&#xaf;" 
d="M150 703v85h290v-85h-290z" />
    <glyph glyph-name="degree" unicode="&#xb0;" horiz-adv-x="237" 
d="M118.5 664q40.5 0 69.5 -28.5t29 -69.5t-29 -70t-69.5 -29t-69.5 29t-29 70t29 69.5t69.5 28.5zM118.5 606q-16.5 0 -28.5 -11.5t-12 -28.5t12 -28.5t28.5 -11.5t28.5 11.5t12 28.5t-12 28.5t-28.5 11.5z" />
    <glyph glyph-name="plusminus" unicode="&#xb1;" horiz-adv-x="481" 
d="M273 412h169v-65h-169v-168h-65v168h-168v65h168v169h65v-169zM40 50v65h402v-65h-402z" />
    <glyph glyph-name="twosuperior" unicode="&#xb2;" horiz-adv-x="419" 
d="M85 559h-6l-49 115q54 45 163 45q48 0 86.5 -13t61.5 -38.5t23 -60.5q0 -30 -15.5 -58.5t-40.5 -50.5t-48.5 -37.5t-47.5 -26.5h93q51 0 79 62h5l-41 -188h-310v5q12 17 35.5 48t36 48.5t31.5 44.5t29.5 46t21.5 41.5t15.5 43t4.5 40.5q0 31 -17.5 48t-47.5 14
q-62 -7 -62 -128z" />
    <glyph glyph-name="threesuperior" unicode="&#xb3;" horiz-adv-x="373" 
d="M60 565l-40 111q52 40 155 38q24 0 44 -3t36.5 -8.5t29.5 -13.5t22 -19t13.5 -24.5t4.5 -28.5q0 -36 -20.5 -54.5t-50.5 -19.5q17 -4 31.5 -11t28 -19t21.5 -32t8 -46q0 -52 -32 -87.5t-79.5 -48.5t-103 -7t-101.5 31l1 5q71 -1 119.5 30t48.5 88q0 46 -30 68.5t-66 23.5
l1 5q38 -2 63 26.5t21 65.5q-3 30 -22.5 41t-43.5 7q-31 -4 -43 -31.5t-11 -86.5h-5z" />
    <glyph glyph-name="acute" unicode="&#xb4;" 
d="M211 743l-7 7q19 44 65 96.5t89 89.5q64 -27 86 -100q-50 -33 -115.5 -60t-117.5 -33z" />
    <glyph glyph-name="paragraph" unicode="&#xb6;" horiz-adv-x="540" 
d="M523 743l7 -6q-3 -19 -15 -37t-34.5 -32.5t-48.5 -16.5v-504q0 -55 -18.5 -96.5t-49.5 -63.5l-9 8q14 24 20 49t6.5 40.5t0.5 60.5v505h-83v-650q0 -42 -9 -78.5t-33.5 -70t-63.5 -50.5l-7 9q41 42 52 78.5t8 111.5v333q-85 0 -141 50.5t-55 133.5t57 133t139 50h182h7h9
t8.5 0.5t10.5 2t10.5 3t12 5t12 8t13 10.5t12.5 14z" />
    <glyph glyph-name="periodcentered" unicode="&#xb7;" horiz-adv-x="250" 
d="M125 265q-37 0 -63.5 26.5t-26.5 63.5t26.5 63.5t63.5 26.5t63.5 -26.5t26.5 -63.5t-26.5 -63.5t-63.5 -26.5z" />
    <glyph glyph-name="cedilla" unicode="&#xb8;" 
d="M217 -62l48 63h62l-43 -49q15 5 35 5t40 -5.5t33 -22t11 -40.5q-3 -34 -33 -59.5t-71 -32t-85 6.5l1 10q37 0 68 19t36 57q2 20 -15 32t-40 12t-42 -6z" />
    <glyph glyph-name="onesuperior" unicode="&#xb9;" horiz-adv-x="292" 
d="M34 308h228v6h-11q-12 0 -21 8.5t-9 20.5v372h-5q-31 -15 -92.5 -24.5t-93.5 -10.5v-5h4q13 0 21.5 -3.5t14 -13t5.5 -26.5v-289q0 -12 -8.5 -20.5t-21.5 -8.5h-11v-6z" />
    <glyph glyph-name="ordmasculine" unicode="&#xba;" horiz-adv-x="400" 
d="M200 710q88 0 134 -43t46 -124q0 -80 -46 -123t-134 -43t-134 43t-46 123q0 81 46 124t134 43zM200 403q31 0 45 35t14 105q0 35 -3 60.5t-10 44t-18.5 27.5t-27.5 9q-60 0 -60 -141q0 -140 60 -140z" />
    <glyph glyph-name="guillemotright" unicode="&#xbb;" horiz-adv-x="541" 
d="M69 88l225 204l-225 198l-8 -5l78 -193l-79 -197zM277 88l225 204l-225 198l-8 -5l78 -193l-79 -197z" />
    <glyph glyph-name="onequarter" unicode="&#xbc;" horiz-adv-x="769" 
d="M597 723l-478 -712l48 -31l477 711zM241 314h12v-6h-229v6h11q13 0 21.5 8.5t8.5 20.5v289q0 24 -10.5 33.5t-30.5 9.5h-4v5q32 1 93.5 10.5t92.5 24.5h5v-372q0 -12 9 -20.5t21 -8.5zM719 92h-52v-54q0 -13 10 -22.5t23 -9.5h7v-6h-224v6h7q13 0 23 9t10 22v55h-194v6
l332 310h6v-244h26q29 0 41 28h6zM448 165h75v66z" />
    <glyph glyph-name="onehalf" unicode="&#xbd;" horiz-adv-x="850" 
d="M575 723l-478 -712l48 -31l477 711zM24 308h228v6h-11q-12 0 -21 8.5t-9 20.5v372h-5q-31 -15 -92.5 -24.5t-93.5 -10.5v-5h4q20 0 30.5 -9.5t10.5 -33.5v-289q0 -12 -8.5 -20.5t-21.5 -8.5h-11v-6zM505 251h-5l-49 115q54 46 163 46q73 0 122 -30.5t49 -82.5
q0 -30 -15.5 -58.5t-40.5 -50.5t-49 -37.5t-47 -26.5h93q51 0 79 62h5l-41 -188h-310v5q12 16 41 55t42 57t34.5 51t31 53.5t17.5 46.5t8 49q0 31 -17.5 48t-47.5 14q-62 -7 -63 -128z" />
    <glyph glyph-name="threequarters" unicode="&#xbe;" horiz-adv-x="839" 
d="M666 723l-478 -712l48 -31l477 711zM64 565l-39 111q52 40 155 38q71 -1 110 -25.5t39 -71.5q0 -36 -20.5 -54.5t-49.5 -19.5q16 -4 30.5 -11t28.5 -19t22 -32t8 -46q0 -52 -32 -87.5t-79.5 -48.5t-103 -7t-101.5 31l1 5q71 -1 119.5 30t48.5 88q0 46 -30 68.5t-66 23.5
l1 5q37 -2 62.5 26.5t21.5 65.5q-4 30 -23 41t-43 7q-32 -4 -43.5 -31.5t-10.5 -86.5h-6zM799 92h-52v-54q0 -9 4.5 -16t12 -11.5t16.5 -4.5h7v-6h-224v6h7q13 0 22.5 9t10.5 22v55h-194v6l332 311h6v-244h26q29 0 41 27h6zM528 165h75v66z" />
    <glyph glyph-name="questiondown" unicode="&#xbf;" horiz-adv-x="523" 
d="M267 714q38 0 64.5 -26.5t26.5 -63.5t-26.5 -63.5t-64.5 -26.5q-37 0 -63 26.5t-26 63.5t26 63.5t63 26.5zM443 190l50 -115q-23 -40 -81.5 -64.5t-139.5 -24.5q-117 0 -179.5 46t-62.5 131q0 58 32.5 99t114.5 101q17 12 24.5 18t19 18.5t14.5 22.5t2.5 25t-9.5 32l9 6
q30 -8 53 -23.5t36.5 -42t10.5 -58.5q-2 -22 -13 -40.5t-24 -32.5t-26 -30t-21.5 -42.5t-7.5 -61.5q2 -118 91 -118q97 0 97 154h10z" />
    <glyph glyph-name="Agrave" unicode="&#xc0;" horiz-adv-x="720" 
d="M376 771l-7 -7q-53 6 -118 33t-115 60q21 73 85 100q43 -37 89.5 -89.5t65.5 -96.5zM351 724l317 -659q32 -55 84 -55h8v-10h-379v10h9q22 0 36 17.5t3 45.5l-39 93h-214l-40 -93q-9 -20 -3.5 -34t17 -21.5t24.5 -7.5h9v-10h-223v10h9q23 0 45.5 13.5t37.5 40.5l233 511
q53 112 57 149h9zM198 216h171l-84 200z" />
    <glyph glyph-name="Aacute" unicode="&#xc1;" horiz-adv-x="720" 
d="M332 761l-7 7q19 44 65 96.5t90 89.5q64 -27 85 -100q-50 -33 -115 -60t-118 -33zM351 724l317 -659q32 -55 84 -55h8v-10h-379v10h9q22 0 36 17.5t3 45.5l-39 93h-214l-40 -93q-9 -20 -3.5 -34t17 -21.5t24.5 -7.5h9v-10h-223v10h9q23 0 45.5 13.5t37.5 40.5l233 511
q53 112 57 149h9zM198 216h171l-84 200z" />
    <glyph glyph-name="Acircumflex" unicode="&#xc2;" horiz-adv-x="720" 
d="M342 932l-169 -176l7 -8l167 65l178 -65l7 8l-179 176h-11zM351 724l317 -659q32 -55 84 -55h8v-10h-379v10h9q22 0 36 17.5t3 45.5l-39 93h-214l-40 -93q-9 -20 -3.5 -34t17 -21.5t24.5 -7.5h9v-10h-223v10h9q23 0 45.5 13.5t37.5 40.5l233 511q53 112 57 149h9z
M198 216h171l-84 200z" />
    <glyph glyph-name="Atilde" unicode="&#xc3;" horiz-adv-x="720" 
d="M556 919h-12q-6 -15 -33.5 -31t-57.5 -12q-35 5 -83.5 29t-78.5 24q-45 0 -76 -30t-40 -66.5t-1 -65.5h12q8 20 35 38t57 13q29 -4 78.5 -29t83.5 -25q28 0 52.5 11.5t38 29t23 39t8.5 41t-6 34.5zM351 724l317 -659q32 -55 84 -55h8v-10h-379v10h9q22 0 36 17.5t3 45.5
l-39 93h-214l-40 -93q-12 -28 2 -45.5t36 -17.5h9v-10h-223v10h9q23 0 45.5 13.5t37.5 40.5l233 511q53 112 57 149h9zM198 216h171l-84 200z" />
    <glyph glyph-name="Adieresis" unicode="&#xc4;" horiz-adv-x="720" 
d="M213.5 755q-30.5 0 -52 22t-21.5 52.5t21.5 52t52 21.5t52.5 -21.5t22 -52t-22 -52.5t-52.5 -22zM476.5 755q-30.5 0 -52 22t-21.5 52.5t21.5 52t52 21.5t52 -21.5t21.5 -52t-21.5 -52.5t-52 -22zM351 724l317 -659q32 -55 84 -55h8v-10h-379v10h9q22 0 36 17.5t3 45.5
l-39 93h-214l-40 -93q-9 -20 -3.5 -34t17 -21.5t24.5 -7.5h9v-10h-223v10h9q23 0 45.5 13.5t37.5 40.5l233 511q53 112 57 149h9zM198 216h171l-84 200z" />
    <glyph glyph-name="Aring" unicode="&#xc5;" horiz-adv-x="720" 
d="M361 694l303 -621q11 -21 26 -35.5t30.5 -21t31.5 -6.5h8v-10h-379v10h9q22 0 35.5 17.5t3.5 44.5l-41 94h-210l-43 -95q-11 -27 3 -44t36 -17h9v-10h-223v10h9q25 0 49 15.5t39 47.5l228 492q40 83 53 129q-38 2 -63.5 23t-25.5 51q0 33 28.5 54t70.5 21
q41 0 69.5 -20.5t28.5 -53.5q0 -29 -24.5 -50t-60.5 -25zM305 768q0 -8 2 -16t5.5 -14.5t9 -11.5t12 -7.5t13.5 -2.5q19 0 31.5 15t11.5 37q1 23 -11.5 38t-31.5 15q-18 0 -30 -15t-12 -38zM200 216h167l-82 192z" />
    <glyph glyph-name="AE" unicode="&#xc6;" horiz-adv-x="1017" 
d="M991 232h10l-38 -232h-557l1 10h9q20 0 34.5 14t15.5 34v259h-157l-151 -244q-9 -15 -8 -27t8.5 -20t17.5 -12t20 -4h9v-10h-238v10h9q43 0 86 61l391 570q13 20 5.5 34.5t-26.5 14.5h-5v10h394q21 0 46 3t44.5 7t28.5 8v-206h-10v8q0 39 -14.5 67.5t-42.5 44.5t-68 17
h-134v-282h102q46 2 75.5 32.5t29.5 76.5v5h10v-278h-10v5q0 46 -29 76.5t-74 32.5h-104v-266h113q73 0 128.5 48t78.5 133zM340 367h126v202z" />
    <glyph glyph-name="Ccedilla" unicode="&#xc7;" horiz-adv-x="793" 
d="M729 292l24 -182q-74 -124 -281 -124h-12l-37 -43q14 5 34 5t40.5 -5.5t33.5 -22t10 -40.5q-3 -34 -33 -59.5t-70.5 -32t-84.5 6.5l1 10q36 0 67.5 19t35.5 57q3 20 -14.5 32t-40 12t-42.5 -6l-5 10l47 60q-173 17 -270 111t-97 251q0 113 52 195t150.5 125t235.5 43
q149 0 257 -46l-10 -191h-9q-29 101 -84 144t-137 43q-111 0 -173 -82t-62 -228q0 -147 57.5 -231t159.5 -87q41 0 72 5.5t56 18.5t43.5 32t33 48.5t25 65.5t19.5 86h8z" />
    <glyph glyph-name="Egrave" unicode="&#xc8;" horiz-adv-x="667" 
d="M393 771l-7 -7q-53 6 -117 33t-113 60q24 73 89 100q41 -37 85.5 -89.5t62.5 -96.5zM643 232h10l-38 -232h-585v10h13q26 0 44.5 18.5t19.5 44.5v554q0 17 -9 31.5t-23.5 23t-31.5 8.5h-13v10h443q20 0 45 3t45 7t29 8v-206h-10v8q0 39 -15 67.5t-43 44.5t-67 17h-145
v-279h109q48 1 78 31.5t30 78.5v4h10v-278h-10v5q0 47 -30 77.5t-77 31.5h-110v-269h123q73 0 129 48t79 133z" />
    <glyph glyph-name="Eacute" unicode="&#xc9;" horiz-adv-x="667" 
d="M322 761l-7 7q19 44 65.5 96.5t89.5 89.5q64 -27 85 -100q-50 -33 -115 -60t-118 -33zM643 232h10l-38 -232h-585v10h13q26 0 44.5 18.5t19.5 44.5v554q-1 26 -19.5 44.5t-44.5 18.5h-13v10h443q31 0 67.5 6t51.5 12v-206h-10v8q0 39 -15 67.5t-43 44.5t-67 17h-145v-279
h109q48 1 78 31.5t30 78.5v4h10v-278h-10v5q0 47 -30 77.5t-77 31.5h-110v-269h123q73 0 129 48t79 133z" />
    <glyph glyph-name="Ecircumflex" unicode="&#xca;" horiz-adv-x="667" 
d="M332 932l-169 -176l7 -8l167 65l178 -65l7 8l-178 176h-12zM643 232h10l-38 -232h-585v10h13q26 0 44.5 18.5t19.5 44.5v554q-1 26 -19.5 44.5t-44.5 18.5h-13v10h443q31 0 67.5 6t51.5 12v-206h-10v8q0 39 -15 67.5t-43 44.5t-67 17h-145v-279h109q48 1 78 31.5t30 78.5
v4h10v-278h-10v5q0 47 -30 77.5t-77 31.5h-110v-269h123q73 0 129 48t79 133z" />
    <glyph glyph-name="Edieresis" unicode="&#xcb;" horiz-adv-x="667" 
d="M204.5 755q-30.5 0 -52 22t-21.5 52.5t21.5 52t52 21.5t52 -21.5t21.5 -52t-21.5 -52.5t-52 -22zM466.5 755q-30.5 0 -52 22t-21.5 52.5t21.5 52t52 21.5t52 -21.5t21.5 -52t-21.5 -52.5t-52 -22zM643 232h10l-38 -232h-585v10h13q26 0 44.5 18.5t19.5 44.5v554
q-1 26 -19.5 44.5t-44.5 18.5h-13v10h443q20 0 45 3t45 7t29 8v-206h-10v8q0 39 -15 67.5t-43 44.5t-67 17h-145v-279h109q48 1 78 31.5t30 78.5v4h10v-278h-10v5q0 47 -30 77.5t-77 31.5h-110v-269h123q73 0 129 48t79 133z" />
    <glyph glyph-name="Igrave" unicode="&#xcc;" horiz-adv-x="418" 
d="M245 771l-7 -7q-53 6 -118 33t-115 60q21 73 85 100q44 -37 90 -89.5t65 -96.5zM389 10v-10h-359v10h13q26 0 44.5 18.5t19.5 44.5v555q-1 26 -19.5 44t-44.5 18h-13v10h359v-10h-13q-26 0 -44.5 -18t-19.5 -44v-555q0 -26 19 -44.5t45 -18.5h13z" />
    <glyph glyph-name="Iacute" unicode="&#xcd;" horiz-adv-x="418" 
d="M191 761l-7 7q8 19 23 41t31.5 42t35.5 40t35 35t30 28q64 -27 85 -100q-50 -33 -115 -60t-118 -33zM389 10v-10h-359v10h13q26 0 44.5 18.5t19.5 44.5v555q-1 26 -19.5 44t-44.5 18h-13v10h359v-10h-13q-26 0 -44.5 -18t-19.5 -44v-555q0 -26 19 -44.5t45 -18.5h13z" />
    <glyph glyph-name="Icircumflex" unicode="&#xce;" horiz-adv-x="418" 
d="M201 932l-169 -176l7 -8l167 65l178 -65l7 8l-178 176h-12zM389 10v-10h-359v10h13q26 0 44.5 18.5t19.5 44.5v555q-1 26 -19.5 44t-44.5 18h-13v10h359v-10h-13q-26 0 -44.5 -18t-19.5 -44v-555q0 -26 19 -44.5t45 -18.5h13z" />
    <glyph glyph-name="Idieresis" unicode="&#xcf;" horiz-adv-x="418" 
d="M73.5 755q-30.5 0 -52 22t-21.5 52.5t21.5 52t52 21.5t52 -21.5t21.5 -52t-21.5 -52.5t-52 -22zM336.5 755q-30.5 0 -52.5 22t-22 52.5t22 52t52.5 21.5t52 -21.5t21.5 -52t-21.5 -52.5t-52 -22zM389 10v-10h-359v10h13q26 0 44.5 18.5t19.5 44.5v555q-1 26 -19.5 44
t-44.5 18h-13v10h359v-10h-13q-26 0 -44.5 -18t-19.5 -44v-555q0 -26 19 -44.5t45 -18.5h13z" />
    <glyph glyph-name="Eth" unicode="&#xd0;" horiz-adv-x="842" 
d="M30 700h379q188 0 293.5 -92.5t105.5 -257.5q0 -82 -27.5 -147.5t-78.5 -110t-125.5 -68.5t-167.5 -24h-379v10h13q26 0 44.5 18.5t19.5 44.5v252h-77v50h77v258q0 24 -19.5 40.5t-44.5 16.5h-12zM312 325v-275h77q94 0 149 79.5t55 220.5t-55 220.5t-149 79.5h-77v-275
h108v-50h-108z" />
    <glyph glyph-name="Ntilde" unicode="&#xd1;" horiz-adv-x="881" 
d="M619 919h-12q-6 -15 -33.5 -31t-57.5 -12q-35 5 -83.5 29t-78.5 24q-45 0 -76 -30t-40 -66.5t-1 -65.5h12q8 20 35 38t57 13q29 -4 78.5 -29t83.5 -25q28 0 52.5 11.5t38 29t23 39t8.5 41t-6 34.5zM495 700h366v-10h-18q-25 0 -43 -17.5t-19 -42.5v-516q0 -37 3.5 -69
t6.5 -45l3 -14h-9l-479 426v-341q0 -17 8.5 -31t22.5 -22t30 -8h19v-10h-366v10h19q25 0 43 17.5t18 43.5v519q0 35 -3 66t-7 45l-3 14h10l1 -1l478 -425v340q-1 26 -19 43.5t-43 17.5h-19v10z" />
    <glyph glyph-name="Ograve" unicode="&#xd2;" horiz-adv-x="905" 
d="M477 785l-7 -7q-35 4 -78 18.5t-82.5 33.5t-72.5 41q22 73 86 100q26 -23 53.5 -51t57.5 -66.5t43 -68.5zM450 714q129 0 222.5 -43t143.5 -125.5t50 -195.5q0 -171 -110.5 -267.5t-305 -96.5t-305 96.5t-110.5 267.5t110.5 267.5t304.5 96.5zM450 36q96 0 148 82.5
t52 231.5q0 99 -23 169t-68 107.5t-109 37.5q-96 0 -147.5 -82.5t-51.5 -231.5q0 -99 23 -169t68 -107.5t108 -37.5z" />
    <glyph glyph-name="Oacute" unicode="&#xd3;" horiz-adv-x="905" 
d="M433 775l-7 7q19 44 65.5 96.5t89.5 89.5q64 -27 85 -100q-50 -33 -115 -60t-118 -33zM450 714q129 0 222.5 -43t143.5 -125.5t50 -195.5q0 -171 -110.5 -267.5t-305 -96.5t-305 96.5t-110.5 267.5t110.5 267.5t304.5 96.5zM450.5 36q91.5 0 143 83t51.5 231t-51.5 231
t-143 83t-143 -83t-51.5 -231t51.5 -231t143 -83z" />
    <glyph glyph-name="Ocircumflex" unicode="&#xd4;" horiz-adv-x="905" 
d="M443 946l-169 -176l7 -8l168 65l177 -65l8 8l-179 176h-12zM450 714q129 0 222.5 -43t143.5 -125.5t50 -195.5q0 -171 -111 -267.5t-305 -96.5t-304.5 96.5t-110.5 267.5t110.5 267.5t304.5 96.5zM450.5 36q91.5 0 143 83t51.5 231t-51.5 231t-143 83t-143 -83
t-51.5 -231t51.5 -231t143 -83z" />
    <glyph glyph-name="Otilde" unicode="&#xd5;" horiz-adv-x="905" 
d="M658 933h-13q-6 -15 -33 -31t-57 -12q-36 5 -84.5 29t-77.5 24q-46 0 -76.5 -30t-39.5 -66.5t-2 -65.5h13q8 20 35 38t57 13q26 -4 54 -18t54.5 -25t52.5 -11q29 0 53 11.5t38 29t23.5 39t8.5 41t-6 34.5zM450 714q194 0 305 -96.5t111 -267.5t-111 -267.5t-305 -96.5
t-304.5 96.5t-110.5 267.5t110.5 267.5t304.5 96.5zM450.5 36q91.5 0 143 83t51.5 231t-51.5 231t-143 83t-143 -83t-51.5 -231t51.5 -231t143 -83z" />
    <glyph glyph-name="Odieresis" unicode="&#xd6;" horiz-adv-x="905" 
d="M315.5 769q-30.5 0 -52 22t-21.5 52.5t21.5 52t52 21.5t52 -21.5t21.5 -52t-21.5 -52.5t-52 -22zM578.5 769q-30.5 0 -52.5 22t-22 52.5t22 52t52.5 21.5t52 -21.5t21.5 -52t-21.5 -52.5t-52 -22zM450 714q129 0 222.5 -43t143.5 -125.5t50 -195.5q0 -171 -111 -267.5
t-305 -96.5t-304.5 96.5t-110.5 267.5t110.5 267.5t304.5 96.5zM450.5 36q91.5 0 143 83t51.5 231t-51.5 231t-143 83t-143 -83t-51.5 -231t51.5 -231t143 -83z" />
    <glyph glyph-name="multiply" unicode="&#xd7;" horiz-adv-x="410" 
d="M370 429l-119 -119l119 -119l-46 -46l-119 119l-119 -119l-46 46l119 119l-119 119l46 46l119 -119l119 119z" />
    <glyph glyph-name="Oslash" unicode="&#xd8;" horiz-adv-x="905" 
d="M766 692l-43 -50q143 -96 143 -292q0 -171 -111 -267.5t-305 -96.5q-143 0 -243 54l-54 -63l-44 36l50 58q-124 97 -124 279q0 171 110.5 267.5t304.5 96.5q130 0 224 -44l48 56zM269 199l329 383q-52 82 -148 82t-147.5 -82.5t-51.5 -231.5q0 -86 18 -151zM624 527
l-333 -389q52 -102 159 -102q96 0 148 82.5t52 231.5q0 104 -26 177z" />
    <glyph glyph-name="Ugrave" unicode="&#xd9;" horiz-adv-x="845" 
d="M510 771l-7 -7q-53 6 -118 33t-115 60q21 73 85 100q43 -37 89.5 -89.5t65.5 -96.5zM600 700h225v-10h-16q-21 0 -36.5 -13.5t-16.5 -33.5v-386q0 -127 -78.5 -199t-221.5 -72q-179 0 -268 70t-89 200v384q0 15 -7 26t-19 17.5t-27 6.5h-16v10h343v-10h-16
q-22 0 -37 -13.5t-16 -34.5v-382q0 -105 48 -164t134 -59t134.5 55.5t48.5 154.5v395q-1 21 -16 34.5t-37 13.5h-16v10z" />
    <glyph glyph-name="Uacute" unicode="&#xda;" horiz-adv-x="845" 
d="M466 761l-7 7q19 44 65.5 96.5t89.5 89.5q64 -27 85 -100q-50 -33 -115 -60t-118 -33zM600 700h225v-10h-16q-21 0 -36.5 -13.5t-16.5 -33.5v-386q0 -127 -78.5 -199t-221.5 -72q-179 0 -268 70t-89 200v384q0 15 -7 26t-19 17.5t-27 6.5h-16v10h343v-10h-16
q-22 0 -37 -13.5t-16 -34.5v-382q0 -105 48 -164t134 -59t134.5 55.5t48.5 154.5v395q0 10 -4.5 19t-11.5 15.5t-16.5 10t-20.5 3.5h-16v10z" />
    <glyph glyph-name="Ucircumflex" unicode="&#xdb;" horiz-adv-x="845" 
d="M476 932l-169 -176l7 -8l167 65l178 -65l7 8l-178 176h-12zM600 700h225v-10h-16q-21 0 -36.5 -13.5t-16.5 -33.5v-386q0 -127 -78.5 -199t-221.5 -72q-179 0 -268 70t-89 200v384q0 15 -7 26t-19 17.5t-27 6.5h-16v10h343v-10h-16q-22 0 -37 -13.5t-16 -34.5v-382
q0 -105 48 -164t134 -59t134.5 55.5t48.5 154.5v395q-1 21 -16 34.5t-37 13.5h-16v10z" />
    <glyph glyph-name="Udieresis" unicode="&#xdc;" horiz-adv-x="845" 
d="M348.5 755q-30.5 0 -52.5 22t-22 52.5t22 52t52.5 21.5t52 -21.5t21.5 -52t-21.5 -52.5t-52 -22zM610.5 755q-30.5 0 -52 22t-21.5 52.5t21.5 52t52 21.5t52 -21.5t21.5 -52t-21.5 -52.5t-52 -22zM600 700h225v-10h-16q-21 0 -36.5 -13.5t-16.5 -33.5v-386
q0 -127 -78.5 -199t-221.5 -72q-179 0 -268 70t-89 200v384q0 15 -7 26t-19 17.5t-27 6.5h-16v10h343v-10h-16q-22 0 -37 -13.5t-16 -34.5v-382q0 -105 48 -164t134 -59t134.5 55.5t48.5 154.5v395q-1 21 -16 34.5t-37 13.5h-16v10z" />
    <glyph glyph-name="Yacute" unicode="&#xdd;" horiz-adv-x="729" 
d="M418 761l-7 7q19 44 65.5 96.5t89.5 89.5q64 -27 85 -100q-50 -33 -115 -60t-118 -33zM526 700h249v-10h-14q-30 0 -57.5 -17t-43.5 -42l-196 -309v-249q0 -26 18.5 -44.5t45.5 -18.5h12v-10h-358v10h13q26 0 44.5 18t19.5 44v250l-191 311q-15 24 -42.5 40.5t-56.5 16.5
h-14v10h386v-10h-12q-22 0 -34 -20.5t-1 -41.5l137 -247l142 247q12 21 -1 41.5t-34 20.5h-12v10z" />
    <glyph glyph-name="Thorn" unicode="&#xde;" horiz-adv-x="707" 
d="M325 558h91q58 0 104.5 -10t77.5 -27.5t52 -42t30.5 -52t11.5 -59.5q3 -54 -16.5 -100t-55 -75t-79.5 -42.5t-94.5 -4t-95.5 41.5v10l5 0.5t13.5 3t19.5 7t23 13.5t23 20.5t20.5 31t15.5 42.5q8 31 6 60q-2 62 -35 97.5t-90 35.5h-27v-435q0 -17 8.5 -31.5t23 -23
t32.5 -8.5h12v-10h-358v10h12q27 0 45.5 18.5t19.5 44.5v555q-1 26 -19.5 44t-44.5 18h-13v10h358v-10h-12q-26 0 -45 -18t-19 -44v-70z" />
    <glyph glyph-name="germandbls" unicode="&#xdf;" horiz-adv-x="1098" 
d="M278 419l129 -59q53 -23 82.5 -67.5t23.5 -110.5q-8 -96 -78 -145t-194 -49q-74 0 -123.5 16.5t-68.5 40.5q-15 36 -4.5 88.5t34.5 82.5h6q-3 -73 46.5 -127t134.5 -55q52 0 78.5 23t26.5 55q0 28 -23.5 51t-76.5 46l-105 49q-64 27 -94 79t-21 120q11 77 59.5 116
t130.5 39q56 0 151 -9h67l-24 -146h-6q0 49 -35.5 78.5t-94.5 29.5q-46 0 -72.5 -17.5t-30.5 -48.5q-1 -16 4 -28.5t19.5 -22t25.5 -15t33 -14.5zM827 419l129 -59q53 -23 82.5 -67.5t23.5 -110.5q-8 -96 -78 -145t-194 -49q-74 0 -123.5 16.5t-68.5 40.5q-15 36 -4.5 88.5
t34.5 82.5h6q-3 -73 46.5 -127t134.5 -55q52 0 78.5 23t26.5 55q0 28 -23.5 51t-76.5 46l-105 49q-64 27 -94 79t-21 120q11 77 59.5 116t130.5 39q56 0 151 -9h67l-24 -146h-6q0 49 -35.5 78.5t-94.5 29.5q-31 0 -53.5 -8t-35 -23t-14.5 -35q-2 -16 3.5 -28.5t20 -22
t25.5 -15t33 -14.5z" />
    <glyph glyph-name="agrave" unicode="&#xe0;" horiz-adv-x="632" 
d="M331 671l-7 -7q-52 6 -117.5 33t-114.5 60q21 73 85 100q43 -37 89.5 -89.5t64.5 -96.5zM308 636l282 -575q26 -51 78 -51h8v-10h-351v10h7q20 0 32 14t2 37l-29 66h-185l-30 -69q-9 -22 3 -35t32 -13h7v-10h-206v10h8q21 0 42.5 12t33.5 37l206 444q49 107 52 133h8z
M171 172h146l-73 168z" />
    <glyph glyph-name="aacute" unicode="&#xe1;" horiz-adv-x="632" 
d="M288 661l-7 7q18 44 64.5 96.5t89.5 89.5q64 -27 85 -100q-50 -33 -115 -60t-117 -33zM308 636l282 -575q26 -51 78 -51h8v-10h-352v10h8q20 0 32 14t2 37l-29 66h-185l-30 -69q-9 -22 3 -35t32 -13h7v-10h-206v10h8q21 0 42.5 12t33.5 37l206 444q49 107 52 133h8z
M171 172h146l-73 168z" />
    <glyph glyph-name="acircumflex" unicode="&#xe2;" horiz-adv-x="632" 
d="M297 832l-169 -176l8 -8l167 65l177 -65l8 8l-179 176h-12zM308 636l282 -575q26 -51 78 -51h8v-10h-352v10h8q20 0 32 14t2 37l-29 66h-185l-30 -69q-9 -22 3 -35t32 -13h7v-10h-206v10h8q21 0 42.5 12t33.5 37l206 444q49 107 52 133h8zM171 172h146l-73 168z" />
    <glyph glyph-name="atilde" unicode="&#xe3;" horiz-adv-x="632" 
d="M512 819h-12q-7 -15 -34 -31t-57 -12q-36 5 -84.5 29t-77.5 24q-28 0 -51.5 -12t-36.5 -30t-22.5 -40t-10 -42.5t3.5 -37.5h12q5 12 17.5 24.5t33 21.5t41.5 5q21 -3 43.5 -12.5t38 -18.5t37 -16t42.5 -7q29 0 53 11.5t38 29t23.5 39t8.5 41t-6 34.5zM308 636l282 -575
q26 -51 78 -51h8v-10h-352v10h8q20 0 32 14t2 37l-29 66h-186l-29 -69q-9 -22 3 -35t32 -13h7v-10h-206v10h8q21 0 42.5 12t33.5 37l206 444q48 107 52 133h8zM171 172h146l-73 168z" />
    <glyph glyph-name="adieresis" unicode="&#xe4;" horiz-adv-x="632" 
d="M169.5 655q-30.5 0 -52 22t-21.5 52.5t21.5 52t52 21.5t52 -21.5t21.5 -52t-21.5 -52.5t-52 -22zM432.5 655q-30.5 0 -52 22t-21.5 52.5t21.5 52t52 21.5t52 -21.5t21.5 -52t-21.5 -52.5t-52 -22zM308 636l282 -575q26 -51 78 -51h8v-10h-352v10h8q20 0 32 14t2 37
l-29 66h-185l-30 -69q-9 -22 3 -35t32 -13h7v-10h-206v10h8q21 0 42.5 12t33.5 37l206 444q49 107 52 133h8zM171 172h146l-73 168z" />
    <glyph glyph-name="aring" unicode="&#xe5;" horiz-adv-x="632" 
d="M304 842q50 0 83.5 -25t33.5 -62q0 -40 -33.5 -66t-84 -26t-84.5 25.5t-34 64t34 64t85 25.5zM303 812q-14 0 -25.5 -8t-18 -21.5t-6.5 -30.5q0 -25 14.5 -41.5t35.5 -16.5q22 0 37 16.5t15 41.5q0 26 -15 43t-37 17zM308 636l282 -575q26 -51 78 -51h8v-10h-352v10h8
q20 0 32 14t2 37l-29 66h-186l-29 -69q-9 -22 3 -35t32 -13h7v-10h-206v10h8q21 0 42.5 12t33.5 37l206 444q48 107 52 133h8zM171 172h146l-73 168z" />
    <glyph glyph-name="ae" unicode="&#xe6;" horiz-adv-x="885" 
d="M868 209h9l-32 -209h-496l1 10h8q11 0 21 5t15.5 14.5t5.5 20.5v221h-134l-131 -210q-13 -23 1 -37t34 -14h8v-10h-209v10h8q37 0 75 53l337 484q11 18 4.5 30.5t-23.5 12.5h-4v9h355q18 0 39.5 2.5t38.5 6t25 7.5v-188l-9 1v5q0 55 -30.5 86.5t-85.5 33.5h-107v-237h81
q42 2 69 29.5t27 70.5v3h8v-252h-8v3q0 43 -26.5 70.5t-68.5 30.5h-82v-225h92q64 0 114 43t70 120zM295 316h105v168z" />
    <glyph glyph-name="ccedilla" unicode="&#xe7;" horiz-adv-x="668" 
d="M613 250l26 -160q-60 -102 -235 -102l-39 -45q14 5 34.5 5t40.5 -5.5t33 -22t11 -40.5q-3 -34 -33.5 -59.5t-71 -32t-84.5 6.5l1 10q36 0 67.5 19t36.5 57q2 20 -15.5 32t-40 12t-42.5 -6l-5 10l48 62q-152 13 -237 93t-85 217q0 147 100 229t281 82q127 0 218 -36
l-13 -170h-7q-26 88 -70.5 124.5t-110.5 36.5q-99 0 -146.5 -70.5t-47.5 -192.5q0 -123 46.5 -195.5t130.5 -75.5q35 0 60.5 4.5t45.5 16t33.5 27t25 41.5t19.5 55t18 73h7z" />
    <glyph glyph-name="egrave" unicode="&#xe8;" horiz-adv-x="575" 
d="M315 671l-7 -7q-53 7 -118 33.5t-115 59.5q21 73 85 100q43 -37 89.5 -89.5t65.5 -96.5zM561 210l-28 -210h-512v10h11q10 0 19.5 4t16.5 11t11.5 16.5t4.5 20.5v475q0 23 -15.5 38t-36.5 15h-11v10h390q25 0 56 5t43 10v-189h-10v5q0 58 -30.5 90t-86.5 33h-103v-235h77
q44 1 71.5 29.5t27.5 73.5v2h10v-258h-10v4q0 44 -27.5 73t-71.5 29h-77v-226h96q60 0 109 44t67 120h9z" />
    <glyph glyph-name="eacute" unicode="&#xe9;" horiz-adv-x="575" 
d="M271 661l-7 7q19 45 65 97t89 89q64 -27 86 -100q-33 -21 -72.5 -40.5t-82.5 -33.5t-78 -19zM561 210l-28 -210h-512v10h11q10 0 19.5 4t16.5 11t11.5 16.5t4.5 20.5v475q0 23 -15.5 38t-36.5 15h-11v10h390q25 0 56 5t43 10v-189h-10v5q0 58 -30.5 90t-86.5 33h-103
v-235h77q44 1 71.5 29.5t27.5 73.5v2h10v-258h-10v4q0 44 -27.5 73t-71.5 29h-77v-226h96q60 0 109 44t67 120h9z" />
    <glyph glyph-name="ecircumflex" unicode="&#xea;" horiz-adv-x="575" 
d="M280 832l-168 -175l7 -8l167 64l178 -64l7 8l-179 175h-12zM561 210l-28 -210h-512v10h11q10 0 19.5 4t16.5 11t11.5 16.5t4.5 20.5v475q0 23 -15.5 38t-36.5 15h-11v10h390q25 0 56 5t43 10v-189h-10v5q0 58 -30.5 90t-86.5 33h-103v-235h77q44 1 71.5 29.5t27.5 73.5v2
h10v-258h-10v4q0 44 -27.5 73t-71.5 29h-77v-226h96q60 0 109 44t67 120h9z" />
    <glyph glyph-name="edieresis" unicode="&#xeb;" horiz-adv-x="575" 
d="M152.5 656q-30.5 0 -52 21.5t-21.5 52t21.5 52t52 21.5t52.5 -21.5t22 -52t-22 -52t-52.5 -21.5zM415.5 656q-30.5 0 -52 21.5t-21.5 52t21.5 52t52 21.5t52 -21.5t21.5 -52t-21.5 -52t-52 -21.5zM561 210l-28 -210h-512v10h11q10 0 19.5 4t16.5 11t11.5 16.5t4.5 20.5
v475q0 23 -15.5 38t-36.5 15h-11v10h390q25 0 56 5t43 10v-189h-10v5q0 38 -13.5 65.5t-39.5 42t-64 15.5h-103v-235h77q44 1 71.5 29.5t27.5 73.5v2h10v-258h-10v4q0 44 -27.5 73t-71.5 29h-77v-226h96q60 0 109 44t67 120h9z" />
    <glyph glyph-name="igrave" unicode="&#xec;" horiz-adv-x="362" 
d="M206 671l-7 -7q-53 7 -118 33.5t-115 59.5q20 73 85 100q43 -37 89.5 -89t65.5 -97zM279 538v-476q0 -11 4.5 -20.5t11.5 -16.5t16.5 -11t19.5 -4h11v-10h-321v10h11q21 0 36 15t15 37v476q0 22 -15 37t-36 15h-11v10h320v-10h-10q-14 0 -25.5 -6.5t-18.5 -18.5t-8 -27z
" />
    <glyph glyph-name="iacute" unicode="&#xed;" horiz-adv-x="362" 
d="M162 662l-7 7q19 44 65 96t90 89q64 -27 85 -100q-50 -33 -115 -59.5t-118 -32.5zM279 538v-476q0 -11 4.5 -20.5t11.5 -16.5t16.5 -11t19.5 -4h11v-10h-321v10h11q21 0 36 15t15 37v476q0 22 -15 37t-36 15h-11v10h320v-10h-10q-14 0 -25.5 -6.5t-18.5 -18.5t-8 -27z
" />
    <glyph glyph-name="icircumflex" unicode="&#xee;" horiz-adv-x="362" 
d="M172 832l-169 -175l7 -8l167 64l178 -64l7 8l-178 175h-12zM279 538v-476q0 -11 4.5 -20.5t11.5 -16.5t16.5 -11t19.5 -4h11v-10h-321v10h11q21 0 36 15t15 37v476q0 22 -15 37t-36 15h-11v10h320v-10h-10q-21 0 -36 -15t-16 -37z" />
    <glyph glyph-name="idieresis" unicode="&#xef;" horiz-adv-x="362" 
d="M44.5 656q-30.5 0 -52.5 21.5t-22 52t22 52t52.5 21.5t52 -21.5t21.5 -52t-21.5 -52t-52 -21.5zM306.5 656q-30.5 0 -52 21.5t-21.5 52t21.5 52t52 21.5t52 -21.5t21.5 -52t-21.5 -52t-52 -21.5zM279 538v-476q1 -22 16 -37t36 -15h11v-10h-321v10h11q21 0 36 15t15 37
v476q0 22 -15 37t-36 15h-11v10h320v-10h-10q-14 0 -25.5 -6.5t-18.5 -18.5t-8 -27z" />
    <glyph glyph-name="eth" unicode="&#xf0;" horiz-adv-x="741" 
d="M18 600h341q170 0 264 -79t94 -221.5t-94 -221t-264 -78.5h-340v10h12q11 0 21.5 4t18 11t12 16.5t4.5 20.5v216h-67v45h67v216q-1 22 -17.5 36.5t-39.5 14.5h-12v10zM283 278v-232h57q80 0 126 67t46 187q0 79 -20.5 136.5t-59.5 88t-92 30.5h-57v-232h105v-45h-105z
" />
    <glyph glyph-name="ntilde" unicode="&#xf1;" horiz-adv-x="779" 
d="M570 819h-13q-6 -15 -33 -31t-58 -12q-35 5 -83.5 29t-78.5 24q-45 0 -76 -30t-40 -66.5t-1 -65.5h13q8 20 34.5 38t57.5 13q29 -4 78 -29t83 -25q29 0 53 11.5t38 29t23 39t8.5 41t-5.5 34.5zM428 600h340v-10h-17q-23 0 -39 -14t-16 -35v-444q0 -33 3 -60t6 -38l3 -11
h-9l-420 353v-281q1 -21 16.5 -35.5t38.5 -14.5h16v-10h-338v10h16q23 0 39 14.5t16 35.5v447q0 30 -3 56.5t-6 38.5l-3 11h9l419 -354v281q0 14 -7 25.5t-19.5 18t-27.5 6.5h-17v10z" />
    <glyph glyph-name="ograve" unicode="&#xf2;" horiz-adv-x="779" 
d="M417 672l-7 -7q-53 6 -118 33t-115 60q21 73 85 99q43 -37 89.5 -89t65.5 -96zM389 612q172 0 268.5 -82t96.5 -231q0 -147 -96.5 -229t-268.5 -82q-171 0 -267.5 82t-96.5 229q0 149 96.5 231t267.5 82zM389 33q78 0 119 69.5t41 196.5q0 85 -18 144.5t-54 91.5t-88 32
q-78 0 -119 -69.5t-41 -198.5q0 -127 41 -196.5t119 -69.5z" />
    <glyph glyph-name="oacute" unicode="&#xf3;" horiz-adv-x="779" 
d="M373 662l-7 7q19 44 65 96.5t90 89.5q64 -27 85 -100q-50 -33 -115 -60t-118 -33zM389 612q172 0 268.5 -82t96.5 -231q0 -147 -96.5 -229t-268.5 -82q-171 0 -267.5 82t-96.5 229q0 149 96.5 231t267.5 82zM389 33q78 0 119 69.5t41 196.5q0 85 -18 144.5t-54 91.5
t-88 32q-78 0 -119 -69.5t-41 -198.5q0 -127 41 -196.5t119 -69.5z" />
    <glyph glyph-name="ocircumflex" unicode="&#xf4;" horiz-adv-x="779" 
d="M383 833l-169 -176l7 -8l167 65l178 -65l7 8l-178 176h-12zM389 612q172 0 268.5 -82t96.5 -231q0 -147 -96.5 -229t-268.5 -82q-171 0 -267.5 82t-96.5 229q0 149 96.5 231t267.5 82zM389 33q78 0 119 69.5t41 196.5q0 129 -41 198.5t-119 69.5t-119 -69.5t-41 -198.5
q0 -127 41 -196.5t119 -69.5z" />
    <glyph glyph-name="otilde" unicode="&#xf5;" horiz-adv-x="779" 
d="M597 820h-12q-6 -15 -33.5 -31t-57.5 -12q-35 5 -83.5 29t-78.5 24q-45 0 -76 -30t-40 -66.5t-1 -65.5h12q9 20 35.5 38t56.5 13t79 -29.5t83 -24.5q28 0 52.5 11.5t38 29t23 39t9 41t-6.5 34.5zM389 612q172 0 268.5 -82t96.5 -231q0 -147 -96.5 -229t-268.5 -82
q-171 0 -267.5 82t-96.5 229q0 149 96.5 231t267.5 82zM389 33q78 0 119 69.5t41 196.5q0 85 -18 144.5t-54 91.5t-88 32q-78 0 -119 -70t-41 -198q0 -127 41 -196.5t119 -69.5z" />
    <glyph glyph-name="odieresis" unicode="&#xf6;" horiz-adv-x="779" 
d="M255.5 656q-30.5 0 -52.5 22t-22 52.5t22 52t52.5 21.5t52 -21.5t21.5 -52t-21.5 -52.5t-52 -22zM517.5 656q-30.5 0 -52 22t-21.5 52.5t21.5 52t52 21.5t52 -21.5t21.5 -52t-21.5 -52.5t-52 -22zM389 612q172 0 268.5 -82t96.5 -231q0 -147 -96.5 -229t-268.5 -82
q-171 0 -267.5 82t-96.5 229q0 149 96.5 231t267.5 82zM389 33q78 0 119 69.5t41 196.5q0 85 -18 144.5t-54 91.5t-88 32q-78 0 -119 -69.5t-41 -198.5q0 -127 41 -196.5t119 -69.5z" />
    <glyph glyph-name="divide" unicode="&#xf7;" horiz-adv-x="481" 
d="M240.5 416q-21.5 0 -37 15.5t-15.5 37t15.5 36.5t37 15t37 -15t15.5 -36.5t-15.5 -37t-37 -15.5zM40 277v65h402v-65h-402zM240.5 100q-21.5 0 -37 15.5t-15.5 37t15.5 36.5t37 15t37 -15t15.5 -36.5t-15.5 -37t-37 -15.5z" />
    <glyph glyph-name="oslash" unicode="&#xf8;" horiz-adv-x="779" 
d="M684 608l-52 -62q122 -84 122 -247q0 -147 -96.5 -229t-268.5 -82q-114 0 -197 37l-49 -58l-44 36l43 51q-117 82 -117 245q0 149 96.5 231t267.5 82q111 0 194 -38l58 69zM243 173l269 317q-41 77 -123 77q-78 0 -119 -69.5t-41 -198.5q0 -72 14 -126zM534 431
l-269 -319q41 -79 124 -79q78 0 119 69.5t41 196.5q0 76 -15 132z" />
    <glyph glyph-name="ugrave" unicode="&#xf9;" horiz-adv-x="708" 
d="M425 671l-7 -7q-53 6 -118 33t-115 60q21 73 85 100q26 -23 53.5 -51t58 -66.5t43.5 -68.5zM504 600h193v-8h-13q-18 0 -31 -12.5t-13 -30.5v-326q0 -111 -66 -173t-188 -62q-310 0 -310 233v328q0 12 -6 22t-16 15.5t-22 5.5h-13v8h310v-8h-14q-18 0 -30 -12t-13 -31
v-326q0 -59 17 -101t50 -64t79 -22q68 0 105 46t38 130v337q0 12 -6 22t-16 15.5t-22 5.5h-13v8z" />
    <glyph glyph-name="uacute" unicode="&#xfa;" horiz-adv-x="708" 
d="M381 661l-7 7q19 44 65 96.5t89 89.5q64 -27 86 -100q-50 -33 -115.5 -60t-117.5 -33zM504 600h193v-8h-13q-18 0 -31 -12.5t-13 -30.5v-326q0 -111 -66 -173t-188 -62q-310 0 -310 233v328q0 12 -6 22t-16 15.5t-22 5.5h-13v8h310v-8h-14q-18 0 -30 -12t-13 -31v-326
q0 -59 17 -101t50 -64t79 -22q68 0 105 46t38 130v337q0 12 -6 22t-16 15.5t-22 5.5h-13v8z" />
    <glyph glyph-name="ucircumflex" unicode="&#xfb;" horiz-adv-x="708" 
d="M390 832l-168 -176l7 -8l167 65l178 -65l7 8l-179 176h-12zM504 600h193v-8h-13q-18 0 -31 -12.5t-13 -30.5v-326q0 -111 -66 -173t-188 -62q-310 0 -310 233v328q0 12 -6 22t-16 15.5t-22 5.5h-13v8h310v-8h-14q-18 0 -30.5 -12t-12.5 -31v-326q0 -89 38.5 -138
t107.5 -49q68 0 105 46t38 130v337q-1 19 -13.5 31t-30.5 12h-13v8z" />
    <glyph glyph-name="udieresis" unicode="&#xfc;" horiz-adv-x="708" 
d="M262.5 655q-30.5 0 -52 22t-21.5 52.5t21.5 52t52 21.5t52.5 -21.5t22 -52t-22 -52.5t-52.5 -22zM525.5 655q-30.5 0 -52 22t-21.5 52.5t21.5 52t52 21.5t52 -21.5t21.5 -52t-21.5 -52.5t-52 -22zM504 600h193v-8h-13q-18 0 -31 -12.5t-13 -30.5v-326q0 -111 -66 -173
t-188 -62q-310 0 -310 233v328q0 9 -3.5 17t-9.5 14t-14 9t-17 3h-13v8h310v-8h-14q-18 0 -30.5 -12t-12.5 -31v-326q0 -59 17 -101t50 -64t79 -22q68 0 105 46t38 130v337q-1 19 -13.5 31t-30.5 12h-13v8z" />
    <glyph glyph-name="yacute" unicode="&#xfd;" horiz-adv-x="633" 
d="M356 661l-7 7q19 44 65.5 96.5t89.5 89.5q64 -27 85 -100q-50 -33 -115 -60t-118 -33zM467 600h217v-10h-13q-26 0 -48.5 -13.5t-36.5 -33.5l-169 -264v-217q0 -14 7.5 -26.5t20 -19t27.5 -6.5h11v-10h-328v10h12q22 0 38 15t16 37v216l-172 265q-14 20 -37 33.5
t-48 13.5h-12v10h350v-10h-10q-19 0 -29.5 -17t-0.5 -34l124 -210l121 210q10 17 -1 34t-29 17h-10v10z" />
    <glyph glyph-name="thorn" unicode="&#xfe;" 
d="M294 481h76q125 0 183.5 -46t62.5 -118q3 -47 -14 -88t-48.5 -66.5t-70 -37t-83 -2.5t-83.5 38l-1 8q3 1 8 2t18.5 7t25 16t24 30.5t18.5 47.5q6 26 5 52q-2 52 -30 82t-76 30h-14v-373q0 -15 7.5 -27t20 -19t27.5 -7h10l1 -10h-324v10h11q23 0 39 15t16 38v475
q0 22 -16 37t-39 15h-11v10h324l-1 -10h-10q-15 0 -27.5 -6.5t-20 -18.5t-8.5 -27v-57z" />
    <glyph glyph-name="ydieresis" unicode="&#xff;" horiz-adv-x="633" 
d="M238.5 655q-30.5 0 -52 22t-21.5 52.5t21.5 52t52 21.5t52 -21.5t21.5 -52t-21.5 -52.5t-52 -22zM501.5 655q-30.5 0 -52.5 22t-22 52.5t22 52t52.5 21.5t52 -21.5t21.5 -52t-21.5 -52.5t-52 -22zM466 600h218v-10h-13q-26 0 -48.5 -13.5t-36.5 -33.5l-169 -264v-217
q0 -22 16 -37t39 -15h11v-10h-328v10h12q22 0 38 15t16 37v216l-172 265q-9 13 -22 23.5t-29.5 17t-33.5 6.5h-12v10h350v-10h-10q-19 0 -29.5 -17t-0.5 -34l124 -210l121 210q10 17 -1 34t-29 17h-11v10z" />
    <glyph glyph-name="Amacron" unicode="&#x100;" horiz-adv-x="720" 
d="M207 795v85h290v-85h-290zM351 724l317 -659q32 -55 84 -55h8v-10h-379v10h9q22 0 36 17.5t3 45.5l-39 93h-214l-40 -93q-9 -20 -3.5 -34t17 -21.5t24.5 -7.5h9v-10h-223v10h9q23 0 45.5 13.5t37.5 40.5l233 511q53 112 57 149h9zM198 216h171l-84 200z" />
    <glyph glyph-name="amacron" unicode="&#x101;" horiz-adv-x="632" 
d="M162 695v85h290v-85h-290zM308 636l282 -575q26 -51 78 -51h8v-10h-352v10h8q20 0 32 14t2 37l-29 66h-185l-30 -69q-9 -22 3 -35t32 -13h7v-10h-206v10h8q21 0 42.5 12t33.5 37l206 444q49 107 52 133h8zM171 172h146l-73 168z" />
    <glyph glyph-name="Abreve" unicode="&#x102;" horiz-adv-x="720" 
d="M476 928h12q15 -65 -28.5 -114.5t-110.5 -49.5q-68 0 -111 50t-29 114h13q5 -11 13.5 -20.5t21 -17.5t26.5 -14t31 -9t35 -3q43 0 79 18t48 46zM351 724l317 -659q32 -55 84 -55h8v-10h-379v10h9q22 0 36 17.5t3 45.5l-39 93h-214l-40 -93q-9 -20 -3.5 -34t17 -21.5
t24.5 -7.5h9v-10h-223v10h9q23 0 45.5 13.5t37.5 40.5l233 511q53 112 57 149h9zM198 216h171l-84 200z" />
    <glyph glyph-name="abreve" unicode="&#x103;" horiz-adv-x="632" 
d="M431 828h13q14 -65 -29.5 -114.5t-109.5 -49.5q-68 0 -111 50t-29 114h13q12 -28 47.5 -46t78.5 -18q29 0 55 8t45 22.5t27 33.5zM308 636l282 -575q26 -51 78 -51h8v-10h-352v10h8q20 0 32 14t2 37l-29 66h-185l-30 -69q-9 -22 3 -35t32 -13h7v-10h-206v10h8
q21 0 42.5 12t33.5 37l206 444q49 107 52 133h8zM171 172h146l-73 168z" />
    <glyph glyph-name="Aogonek" unicode="&#x104;" horiz-adv-x="720" 
d="M351 714l313 -641q10 -21 26.5 -34.5t29.5 -18t32 -8.5l8 -2v-10q-1 0 -40 2.5t-73 4t-77.5 0.5t-68.5 -7q-70 -16 -64 -73q4 -45 40 -58.5t72 16.5l6 -6q-3 -63 -60 -81q-52 -16 -100 16q-55 36 -44 102q1 9 4 16.5t5 13t8 12t8 9.5t10.5 9.5t10 7.5t12.5 8t12 8
q15 10 17 25.5t-8 43.5l-42 97h-210l-43 -95q-5 -14 -3.5 -25.5t8 -19.5t16 -12t18.5 -4h9v-10h-223v10h9q25 0 49 15.5t39 47.5l228 492q53 112 57 149h9zM200 216h167l-82 192z" />
    <glyph glyph-name="aogonek" unicode="&#x105;" horiz-adv-x="632" 
d="M308 625l277 -566q11 -20 31 -33t35 -16l15 -3v-10q-3 0 -25.5 1.5t-44.5 2.5t-50 1t-55.5 -2t-47.5 -7q-70 -16 -64 -73q3 -45 39.5 -58.5t72.5 16.5l6 -6q-3 -63 -60 -81q-52 -16 -100 16q-56 36 -44 102q1 9 4 16.5t5 13t8 12t8 9.5t10.5 9.5t10 7.5t12.5 8t12 8
q15 10 17 26.5t-10 46.5l-29 67h-190l-33 -74q-9 -22 3 -35.5t32 -13.5h7v-10h-196v10h8q21 0 42 12t34 38l202 435q47 103 50 130h8zM170 177h152l-75 173z" />
    <glyph glyph-name="Cacute" unicode="&#x106;" horiz-adv-x="793" 
d="M419 761l-7 7q19 44 65.5 96.5t89.5 89.5q64 -27 85 -100q-50 -33 -115 -60t-118 -33zM721 292h8l24 -182q-74 -124 -281 -124q-204 1 -320.5 96.5t-116.5 268.5q0 113 52 195t150.5 125t235.5 43q149 0 257 -46l-10 -191h-9q-29 101 -84 144t-137 43q-111 0 -173 -82
t-62 -228q0 -147 57.5 -231t159.5 -87q41 0 72 5.5t56 18.5t43.5 32t33 48.5t25 65.5t19.5 86z" />
    <glyph glyph-name="cacute" unicode="&#x107;" horiz-adv-x="668" 
d="M360 676l-7 7q19 44 65.5 96.5t89.5 89.5q64 -27 85 -100q-50 -33 -115 -59.5t-118 -33.5zM606 250h7l26 -160q-60 -102 -235 -102q-118 1 -203.5 36.5t-131.5 106t-46 170.5q0 147 100 229t281 82q127 0 218 -36l-13 -170h-7q-26 88 -70.5 124.5t-110.5 36.5
q-99 0 -146.5 -70.5t-47.5 -192.5q0 -81 20.5 -141t60.5 -94t96 -36q35 0 60.5 4.5t45.5 16t33.5 27t25 41.5t19.5 55t18 73z" />
    <glyph glyph-name="Cdotaccent" unicode="&#x10a;" horiz-adv-x="793" 
d="M436 764q-31 0 -52.5 21.5t-21.5 52t21.5 52t52.5 21.5t52.5 -21.5t21.5 -52t-21.5 -52t-52.5 -21.5zM721 292h8l24 -182q-74 -124 -281 -124q-204 1 -320.5 96.5t-116.5 268.5q0 113 52 195t150.5 125t235.5 43q149 0 257 -46l-10 -191h-9q-29 101 -84 144t-137 43
q-111 0 -173 -82t-62 -228q0 -147 57.5 -231t159.5 -87q41 0 72 5.5t56 18.5t43.5 32t33 48.5t25 65.5t19.5 86z" />
    <glyph glyph-name="cdotaccent" unicode="&#x10b;" horiz-adv-x="668" 
d="M377.5 679q-30.5 0 -52.5 21.5t-22 52t22 52.5t52.5 22t52 -22t21.5 -52.5t-21.5 -52t-52 -21.5zM606 250h7l26 -160q-60 -102 -235 -102q-179 1 -280 82t-101 231q0 147 100 229t281 82q127 0 218 -36l-13 -170h-7q-26 88 -70.5 124.5t-110.5 36.5q-99 0 -146.5 -70.5
t-47.5 -192.5q0 -123 46.5 -195.5t130.5 -75.5q35 0 60.5 4.5t45.5 16t33.5 27t25 41.5t19.5 55t18 73z" />
    <glyph glyph-name="Ccaron" unicode="&#x10c;" horiz-adv-x="793" 
d="M443 764l159 175l-7 8l-158 -64l-168 64l-7 -8l169 -175h12zM721 292h8l24 -182q-74 -124 -281 -124q-204 1 -320.5 96.5t-116.5 268.5q0 113 52 195t150.5 125t235.5 43q149 0 257 -46l-10 -191h-9q-29 101 -84 144t-137 43q-111 0 -173 -82t-62 -228q0 -147 57.5 -231
t159.5 -87q41 0 72 5.5t56 18.5t43.5 32t33 48.5t25 65.5t19.5 86z" />
    <glyph glyph-name="ccaron" unicode="&#x10d;" horiz-adv-x="668" 
d="M384 679l159 176l-7 8l-158 -65l-168 65l-7 -8l169 -176h12zM606 250h7l26 -160q-60 -102 -235 -102q-179 1 -280 82t-101 231q0 147 100 229t281 82q127 0 218 -36l-13 -170h-7q-26 88 -70.5 124.5t-110.5 36.5q-99 0 -146.5 -70.5t-47.5 -192.5q0 -123 46.5 -195.5
t130.5 -75.5q35 0 60.5 4.5t45.5 16t33.5 27t25 41.5t19.5 55t18 73z" />
    <glyph glyph-name="Dcaron" unicode="&#x10e;" horiz-adv-x="842" 
d="M428 764l159 175l-7 8l-157 -64l-169 64l-7 -8l169 -175h12zM30 700h379q188 0 293.5 -92.5t105.5 -257.5q0 -110 -47.5 -188.5t-137.5 -120t-214 -41.5h-379v10h13q26 0 44.5 18.5t19.5 44.5v560q0 24 -19.5 40.5t-44.5 16.5h-13v10zM312 650v-600h77q93 0 146 79.5
t53 220.5t-53 220.5t-146 79.5h-77z" />
    <glyph glyph-name="dcaron" unicode="&#x10f;" horiz-adv-x="741" 
d="M366 665l159 175l-7 8l-157 -64l-169 64l-7 -8l169 -175h12zM18 600h341q170 0 264 -79t94 -221.5t-94 -221t-264 -78.5h-340v10h12q23 0 39.5 16t16.5 38v475q-2 22 -18 36.5t-39 14.5h-12v10zM283 555v-509h57q80 0 126 67t46 187q0 79 -20.5 136.5t-59.5 88t-92 30.5
h-57z" />
    <glyph glyph-name="Dcroat" unicode="&#x110;" horiz-adv-x="842" 
d="M279 795v85h290v-85h-290zM30 700h379q188 0 293.5 -92.5t105.5 -257.5q0 -82 -27.5 -147.5t-78.5 -110t-125.5 -68.5t-167.5 -24h-379v10h13q26 0 44.5 18.5t19.5 44.5v560q0 24 -19.5 40.5t-44.5 16.5h-12zM312 650v-600h77q93 0 146 79.5t53 220.5t-53 220.5
t-146 79.5h-77z" />
    <glyph glyph-name="dcroat" unicode="&#x111;" horiz-adv-x="741" 
d="M217 696v85h290v-85h-290zM18 600h341q170 0 264 -79t94 -221.5t-94 -221t-264 -78.5h-340v10h12q23 0 39.5 16t16.5 38v475q-2 22 -18 36.5t-39 14.5h-12v10zM283 555v-509h57q80 0 126 67t46 187q0 79 -20.5 136.5t-59.5 88t-92 30.5h-57z" />
    <glyph glyph-name="Emacron" unicode="&#x112;" horiz-adv-x="667" 
d="M197 795v85h290v-85h-290zM643 232h10l-38 -232h-585v10h13q26 0 44.5 18.5t19.5 44.5v554q0 11 -3.5 20.5t-9.5 17t-14 13.5t-17.5 9t-19.5 3h-13v10h443q31 0 67.5 6t51.5 12v-206h-10v8q0 39 -15 67.5t-43 44.5t-67 17h-145v-279h109q48 1 78 31.5t30 78.5v4h10v-278
h-10v5q0 47 -30 77.5t-77 31.5h-110v-269h123q73 0 129 48t79 133z" />
    <glyph glyph-name="emacron" unicode="&#x113;" horiz-adv-x="575" 
d="M146 696v85h290v-85h-290zM561 210l-28 -210h-512v10h11q10 0 19.5 4t16.5 11t11.5 16.5t4.5 20.5v475q0 23 -15.5 38t-36.5 15h-11v10h390q25 0 56 5t43 10v-189h-10v5q0 58 -30.5 90t-86.5 33h-103v-235h77q44 1 71.5 29.5t27.5 73.5v2h10v-258h-10v4q0 44 -27.5 73
t-71.5 29h-77v-226h96q60 0 109 44t67 120h9z" />
    <glyph glyph-name="Edotaccent" unicode="&#x116;" horiz-adv-x="667" 
d="M339.5 764q-30.5 0 -52.5 21.5t-22 52t22 52t52.5 21.5t52 -21.5t21.5 -52t-21.5 -52t-52 -21.5zM643 232h10l-38 -232h-585v10h13q26 0 44.5 18.5t19.5 44.5v554q0 11 -3.5 20.5t-9.5 17t-14 13.5t-17.5 9t-19.5 3h-13v10h443q20 0 45 3t45 7t29 8v-206h-10v8
q0 39 -15 67.5t-43 44.5t-67 17h-145v-279h109q48 1 78 31.5t30 78.5v4h10v-278h-10v5q0 47 -30 77.5t-77 31.5h-110v-269h123q73 0 129 48t79 133z" />
    <glyph glyph-name="edotaccent" unicode="&#x117;" horiz-adv-x="575" 
d="M287.5 664q-30.5 0 -52 22t-21.5 52.5t21.5 52t52 21.5t52 -21.5t21.5 -52t-21.5 -52.5t-52 -22zM561 210l-28 -210h-512v10h11q10 0 19.5 4t16.5 11t11.5 16.5t4.5 20.5v475q0 23 -15.5 38t-36.5 15h-11v10h390q25 0 56 5t43 10v-189h-10v5q0 58 -30.5 90t-86.5 33h-103
v-235h77q44 1 71.5 29.5t27.5 73.5v2h10v-258h-10v4q0 44 -27.5 73t-71.5 29h-77v-226h96q60 0 109 44t67 120h9z" />
    <glyph glyph-name="Eogonek" unicode="&#x118;" horiz-adv-x="667" 
d="M661 -120l6 -6q-4 -64 -61 -82q-53 -16 -100 17q-52 36 -43 102q5 37 29.5 59.5t58.5 29.5h-521v10h13q26 0 44.5 18.5t19.5 44.5v554q0 11 -3.5 20.5t-9.5 17t-14 13.5t-17.5 9t-19.5 3h-13v10h443q31 0 67.5 6t51.5 12v-206h-10v8q0 39 -15 67.5t-43 44.5t-67 17h-145
v-279h109q48 1 78 31.5t30 78.5v4h10v-278h-10v5q0 47 -30 77.5t-77 31.5h-110v-269h123q73 0 129 48t79 133h10l-38 -232h-2q-69 -17 -64 -78q4 -46 39.5 -59t72.5 17z" />
    <glyph glyph-name="eogonek" unicode="&#x119;" horiz-adv-x="575" 
d="M580 -120l6 -6q-4 -64 -61 -82q-53 -16 -100 17q-52 36 -43 102q10 70 87 89h-448v10h11q10 0 19.5 4t16.5 11t11.5 16.5t4.5 20.5v475q0 23 -15.5 38t-36.5 15h-11v10h390q25 0 56 5t43 10v-189h-10v5q0 58 -30.5 90t-86.5 33h-103v-235h77q44 1 71.5 29.5t27.5 73.5v2
h10v-258h-10v4q0 44 -27.5 73t-71.5 29h-77v-226h96q60 0 109 44t67 120h9l-28 -210h-2q-68 -17 -63 -78q5 -46 40 -59t72 17z" />
    <glyph glyph-name="Ecaron" unicode="&#x11a;" horiz-adv-x="667" 
d="M346 764l159 175l-7 8l-158 -64l-168 64l-7 -8l169 -175h12zM643 232h10l-38 -232h-585v10h13q26 0 44.5 18.5t19.5 44.5v554q0 11 -3.5 20.5t-9.5 17t-14 13.5t-17.5 9t-19.5 3h-13v10h443q31 0 67.5 6t51.5 12v-206h-10v8q0 39 -15 67.5t-43 44.5t-67 17h-145v-279h109
q48 1 78 31.5t30 78.5v4h10v-278h-10v5q0 47 -30 77.5t-77 31.5h-110v-269h123q73 0 129 48t79 133z" />
    <glyph glyph-name="ecaron" unicode="&#x11b;" horiz-adv-x="575" 
d="M295 664l159 176l-7 8l-158 -64l-168 64l-7 -8l168 -176h13zM561 210l-28 -210h-512v10h11q10 0 19.5 4t16.5 11t11.5 16.5t4.5 20.5v475q0 23 -15.5 38t-36.5 15h-11v10h390q25 0 56 5t43 10v-189h-10v5q0 58 -30.5 90t-86.5 33h-103v-235h77q44 1 71.5 29.5t27.5 73.5
v2h10v-258h-10v4q0 44 -27.5 73t-71.5 29h-77v-226h96q60 0 109 44t67 120h9z" />
    <glyph glyph-name="Gbreve" unicode="&#x11e;" horiz-adv-x="861" 
d="M553 928h13q14 -65 -29.5 -114.5t-110.5 -49.5q-68 0 -111 50t-29 114h13q12 -28 47.5 -46t79.5 -18q43 0 79 18t48 46zM849 325h-15q-25 0 -38 -11.5t-12 -33.5v-165q-25 -32 -76 -60.5t-127 -48.5t-156 -20q-179 0 -284.5 97.5t-105.5 268.5q0 170 106 266t294 96
q81 0 167 -13.5t131 -32.5l-10 -191h-9q-52 187 -229 187q-230 0 -230 -322q0 -146 47.5 -226t144.5 -80q53 0 92.5 28.5t39.5 78.5l1 137q0 22 -13.5 33.5t-37.5 11.5h-16v10h336v-10z" />
    <glyph glyph-name="gbreve" unicode="&#x11f;" horiz-adv-x="723" 
d="M492 840h12q15 -65 -28.5 -114.5t-110.5 -49.5q-68 0 -111 50t-29 114h13q12 -28 47.5 -46t79.5 -18q43 0 79 18t48 46zM664 240v-142q-31 -42 -120 -76t-189.5 -34t-174.5 37t-115 108t-41 169q0 146 89.5 228t251.5 82q68 0 144 -10.5t113 -25.5l-14 -170h-7
q-45 161 -185 161q-97 0 -142.5 -69.5t-45.5 -205.5q0 -259 149 -259q41 0 70.5 25.5t22.5 69.5v112q0 19 -11 29.5t-31 10.5h-14v8h305v-8h-12q-43 0 -43 -40z" />
    <glyph glyph-name="Gdotaccent" unicode="&#x120;" horiz-adv-x="861" 
d="M426 764q-31 0 -52.5 21.5t-21.5 52t21.5 52t52.5 21.5t52.5 -21.5t21.5 -52t-21.5 -52t-52.5 -21.5zM849 325h-15q-25 0 -38 -11.5t-12 -33.5v-165q-25 -32 -76 -60.5t-127 -48.5t-156 -20q-179 0 -284.5 97.5t-105.5 268.5q0 170 106 266t294 96q81 0 167 -13.5
t131 -32.5l-10 -191h-9q-52 187 -229 187q-230 0 -230 -322q0 -146 47.5 -226t144.5 -80q53 0 92.5 28.5t39.5 78.5l1 137q0 22 -13.5 33.5t-37.5 11.5h-16v10h336v-10z" />
    <glyph glyph-name="gdotaccent" unicode="&#x121;" horiz-adv-x="723" 
d="M365 676q-31 0 -52.5 21.5t-21.5 52t21.5 52t52.5 21.5t52.5 -21.5t21.5 -52t-21.5 -52t-52.5 -21.5zM664 240v-142q-31 -42 -120 -76t-189.5 -34t-174.5 37t-115 108t-41 169q0 146 89.5 228t251.5 82q68 0 144 -10.5t113 -25.5l-14 -170h-7q-45 161 -185 161
q-97 0 -142.5 -69.5t-45.5 -205.5q0 -259 149 -259q41 0 70.5 25.5t22.5 69.5v112q0 19 -11 29.5t-31 10.5h-14v8h305v-8h-12q-43 0 -43 -40z" />
    <glyph glyph-name="Gcommaaccent" unicode="&#x122;" horiz-adv-x="861" 
d="M849 325h-15q-25 0 -38 -11.5t-12 -33.5v-165q-25 -32 -76 -60.5t-127 -48.5t-156 -20q-179 0 -284.5 97.5t-105.5 268.5q0 170 106 266t294 96q81 0 167 -13.5t131 -32.5l-10 -191h-9q-52 187 -229 187q-230 0 -230 -322q0 -146 47.5 -226t144.5 -80q53 0 92.5 28.5
t39.5 78.5l1 137q0 22 -13.5 33.5t-37.5 11.5h-16v10h336v-10zM386 -273l-3 9q14 6 23.5 18.5t8 32t-18.5 39.5q-19 22 -17 52.5t23 45.5q24 18 56 9t45 -38q16 -32 10 -64t-22.5 -57.5t-45 -39t-59.5 -7.5z" />
    <glyph glyph-name="gcommaaccent" unicode="&#x123;" horiz-adv-x="723" 
d="M664 240v-142q-31 -42 -120 -76t-189.5 -34t-174.5 37t-115 108t-41 169q0 146 89.5 228t251.5 82q68 0 144 -10.5t113 -25.5l-14 -170h-7q-45 161 -185 161q-97 0 -142.5 -69.5t-45.5 -205.5q0 -259 149 -259q41 0 70.5 25.5t22.5 69.5v112q0 19 -11 29.5t-31 10.5h-14
v8h305v-8h-12q-43 0 -43 -40zM312 -273l-3 9q15 6 24 18.5t8 32t-19 39.5q-19 22 -16.5 52.5t23.5 45.5q24 18 55.5 9t45.5 -38q15 -32 9.5 -64t-22 -57.5t-45.5 -39t-60 -7.5z" />
    <glyph glyph-name="Hbar" unicode="&#x126;" horiz-adv-x="893" 
d="M863 10v-10h-359v10h13q26 0 44.5 18t19.5 44v253h-269v-252q0 -17 8.5 -31.5t23.5 -23t32 -8.5h13v-10h-359v10h13q26 0 44.5 18.5t19.5 44.5v415h-65v50h65v90q-1 26 -19.5 44t-44.5 18h-13v10h359v-10h-13q-26 0 -44.5 -18t-19.5 -44v-90h269v90q-1 26 -19.5 44
t-44.5 18h-13v10h359v-10h-13q-17 0 -31.5 -8.5t-23 -23t-9.5 -31.5v-89h67v-50h-67v-415q1 -26 19.5 -44.5t44.5 -18.5h13zM312 375h269v113h-269v-113z" />
    <glyph glyph-name="hbar" unicode="&#x127;" horiz-adv-x="753" 
d="M734 590h-11q-14 0 -26 -7t-19.5 -19t-7.5 -26v-76h60v-45h-60v-355q0 -22 15 -37t37 -15h11v-10h-321v10h10q22 0 37 15t16 37v216h-195v-216q0 -11 4.5 -20.5t11.5 -16.5t16.5 -11t20.5 -4h10v-10h-322v10h11q10 0 19.5 4t16.5 11t11.5 16.5t4.5 20.5v355h-59v45h59v76
q0 22 -15.5 37t-36.5 15h-11v10h322v-10h-10q-22 0 -37 -15t-16 -37v-76h195v76q-1 22 -16 37t-37 15h-10v10h322v-10zM475 324v93h-195v-93h195z" />
    <glyph glyph-name="Imacron" unicode="&#x12a;" horiz-adv-x="418" 
d="M66 795v85h290v-85h-290zM389 10v-10h-359v10h13q26 0 44.5 18.5t19.5 44.5v555q-1 26 -19.5 44t-44.5 18h-13v10h359v-10h-13q-26 0 -44.5 -18t-19.5 -44v-555q0 -26 19 -44.5t45 -18.5h13z" />
    <glyph glyph-name="imacron" unicode="&#x12b;" horiz-adv-x="362" 
d="M37 696v85h290v-85h-290zM279 538v-476q0 -9 3 -17t7.5 -14.5t11 -11t14.5 -7t16 -2.5h11v-10h-321v10h11q21 0 36 15t15 37v476q0 22 -15 37t-36 15h-11v10h320v-10h-10q-14 0 -25.5 -6.5t-18.5 -18.5t-8 -27z" />
    <glyph glyph-name="Iogonek" unicode="&#x12e;" horiz-adv-x="418" 
d="M250 0l6 -2q-70 -15 -65 -78q5 -46 40 -59t72 17l6 -6q-4 -64 -61 -82q-53 -16 -100 17q-52 36 -43 102q4 27 19 47t34.5 30t43.5 14h-172v10h13q26 0 44.5 18.5t19.5 44.5v555q-1 26 -19.5 44t-44.5 18h-13v10h359v-10h-13q-26 0 -44.5 -18t-19.5 -44v-555
q0 -26 19 -44.5t45 -18.5h13v-10h-139z" />
    <glyph glyph-name="iogonek" unicode="&#x12f;" horiz-adv-x="362" 
d="M342 0h-101q-68 -17 -63 -78q5 -46 40 -59t72 17l6 -6q-4 -64 -61 -82q-52 -16 -100 17q-52 36 -43 102q10 70 87 89h-158v9l11 -1q13 0 25 7t19 20t7 27v476q0 23 -15.5 38.5t-35.5 15.5h-11v8h321l-1 -8h-10q-21 0 -36 -16t-16 -38v-476q1 -22 16 -38t36 -16l11 1v-9z
" />
    <glyph glyph-name="Idotaccent" unicode="&#x130;" horiz-adv-x="418" 
d="M208.5 764q-30.5 0 -52 21.5t-21.5 52t21.5 52t52 21.5t52 -21.5t21.5 -52t-21.5 -52t-52 -21.5zM389 10v-10h-359v10h13q26 0 44.5 18.5t19.5 44.5v555q-1 26 -19.5 44t-44.5 18h-13v10h359v-10h-13q-26 0 -44.5 -18t-19.5 -44v-555q0 -26 19 -44.5t45 -18.5h13z" />
    <glyph glyph-name="dotlessi" unicode="&#x131;" horiz-adv-x="362" 
d="M279 538v-476q1 -22 16 -37t36 -15h11v-10h-321v10h11q21 0 36 15t15 37v476q0 22 -15 37t-36 15h-11v10h320v-10h-10q-14 0 -25.5 -6.5t-18.5 -18.5t-8 -27z" />
    <glyph glyph-name="IJ" unicode="&#x132;" horiz-adv-x="842" 
d="M453 700h359v-10h-13q-17 0 -31.5 -8.5t-23 -22.5t-9.5 -32v-577q0 -82 -46.5 -144t-120 -89.5t-155.5 -16.5v9q117 53 117 244v574q-1 26 -19.5 44.5t-44.5 18.5h-13v10zM389 10v-10h-359v10h13q26 0 44.5 18.5t19.5 44.5v555q-1 26 -19.5 44t-44.5 18h-13v10h359v-10
h-13q-26 0 -44.5 -18t-19.5 -44v-555q0 -17 8.5 -31.5t23.5 -23t32 -8.5h13z" />
    <glyph glyph-name="ij" unicode="&#x133;" horiz-adv-x="724" 
d="M279 538v-476q1 -22 16 -37t36 -15h11v-10h-321v10h11q21 0 36 15t15 37v476q0 22 -15 37t-36 15h-11v10h320v-10h-10q-14 0 -25.5 -6.5t-18.5 -18.5t-8 -27zM378 600h326v-10h-11q-21 0 -36.5 -15.5t-17.5 -37.5v-486q0 -75 -42.5 -130.5t-108 -79t-138.5 -13.5v9
q31 15 50.5 38.5t28.5 55t11.5 58.5t2.5 65v481q0 23 -16 39t-38 16h-10z" />
    <glyph glyph-name="Kcommaaccent" unicode="&#x136;" horiz-adv-x="822" 
d="M312 628v-555q0 -17 8.5 -31.5t23.5 -23t32 -8.5h13v-10h-359v10h13q26 0 44.5 18.5t19.5 44.5v555q-1 26 -19.5 44t-44.5 18h-13v10h359v-10h-13q-26 0 -44.5 -18t-19.5 -44zM507 438l234 -352q49 -74 107 -76v-10h-108q-184 0 -257 100q-14 19 -48.5 73t-62.5 99
t-28 46l239 326q12 17 4.5 32t-28.5 15h-10v9h241v-9h-4q-67 0 -110 -49zM411 -209l-2 9q14 6 23 18.5t8 32t-19 39.5q-19 22 -16.5 52.5t23.5 45.5q24 18 55.5 9t45.5 -38q15 -32 9.5 -64t-22 -57.5t-45.5 -39t-60 -7.5z" />
    <glyph glyph-name="kcommaaccent" unicode="&#x137;" horiz-adv-x="705" 
d="M282 538v-476q0 -14 7 -26t19.5 -19t26.5 -7h10v-10h-322v10h10q22 0 37 15t16 37v477q-1 22 -16.5 37t-36.5 15h-11v10h323v-10h-10q-22 0 -37.5 -15t-15.5 -38zM458 387l189 -309q42 -68 91 -70v-8h-103h-4q-160 -2 -227 90q-14 19 -38 63.5t-41.5 79t-17.5 35.5
l199 284q11 15 4.5 27.5t-23.5 12.5h-8v9h204v-9h-4q-52 0 -87 -37zM328 -274l-3 9q14 6 23.5 18.5t8 32t-18.5 39.5q-19 22 -17 52.5t23 45.5q24 18 56 9t45 -38q16 -32 10 -64t-22.5 -57.5t-45 -39t-59.5 -7.5z" />
    <glyph glyph-name="Lacute" unicode="&#x139;" horiz-adv-x="652" 
d="M193 761l-7 7q8 19 22.5 41t31 42t35.5 40t35 35t31 28q64 -27 85 -100q-50 -33 -115 -60t-118 -33zM643 232h10l-38 -232h-585v10h13q26 0 44.5 18.5t19.5 44.5v554q-1 26 -19.5 44.5t-44.5 18.5h-13v10h359v-10h-13q-26 0 -45 -18.5t-19 -44.5v-576h123q73 0 129 48
t79 133z" />
    <glyph glyph-name="lacute" unicode="&#x13a;" horiz-adv-x="557" 
d="M169 661l-7 7q18 44 64.5 96.5t89.5 89.5q64 -27 85 -100q-50 -33 -115 -60t-117 -33zM562 210l-29 -210h-2h-510v10h11q21 0 36.5 15t15.5 37v476q0 22 -15.5 37t-36.5 15h-11v10h323v-10h-11q-22 0 -37 -15t-16 -37v-492h96q60 0 108.5 44t67.5 120h10z" />
    <glyph glyph-name="Lcommaaccent" unicode="&#x13b;" horiz-adv-x="652" 
d="M643 232h10l-38 -232h-585v10h13q26 0 44.5 18.5t19.5 44.5v554q0 17 -9 31.5t-23.5 23t-31.5 8.5h-13v10h359v-10h-13q-26 0 -45 -18.5t-19 -44.5v-576h123q73 0 129 48t79 133zM295 -273l-3 9q14 6 23.5 18.5t8.5 32t-19 39.5q-19 22 -16.5 52.5t23.5 45.5
q24 18 55.5 9t45.5 -38q15 -32 9.5 -64t-22 -57.5t-45.5 -39t-60 -7.5z" />
    <glyph glyph-name="lcommaaccent" unicode="&#x13c;" horiz-adv-x="557" 
d="M562 210l-29 -210h-2h-510v10h11q21 0 36.5 15t15.5 37v476q0 22 -15.5 37t-36.5 15h-11v10h323v-10h-11q-11 0 -20.5 -4t-16.5 -11t-11.5 -16.5t-4.5 -20.5v-492h96q60 0 108.5 44t67.5 120h10zM218 -274l-3 9q14 6 23.5 18.5t8.5 32t-19 39.5q-19 22 -17 52.5t23 45.5
q24 18 56 9t45 -38q16 -32 10.5 -64t-22.5 -57.5t-45.5 -39t-59.5 -7.5z" />
    <glyph glyph-name="Lcaron" unicode="&#x13d;" horiz-adv-x="652" 
d="M434 500l-2 9q14 6 23 18.5t8 32.5t-19 39q-19 22 -16.5 52.5t23.5 45.5q24 18 56 9t45 -38q15 -31 9.5 -63.5t-22 -58t-45.5 -39t-60 -7.5zM643 232h10l-38 -232h-585v10h13q26 0 44.5 18.5t19.5 44.5v554q0 17 -9 31.5t-23.5 23t-31.5 8.5h-13v10h359v-10h-13
q-26 0 -45 -18.5t-19 -44.5v-576h123q73 0 129 48t79 133z" />
    <glyph glyph-name="lcaron" unicode="&#x13e;" horiz-adv-x="557" 
d="M394 390l-2 9q14 6 23 18.5t8 32.5t-19 39q-19 22 -16.5 52.5t23.5 45.5q24 18 56 9t45 -38q15 -31 9.5 -63.5t-22 -58t-45.5 -39t-60 -7.5zM552 210h10l-29 -210h-512v10h11q21 0 36.5 15t15.5 37v476q0 22 -15.5 37t-36.5 15h-11v10h323v-10h-11q-11 0 -20.5 -4
t-16.5 -11t-11.5 -16.5t-4.5 -20.5v-492h96q60 0 108.5 44t67.5 120z" />
    <glyph glyph-name="Ldot" unicode="&#x13f;" horiz-adv-x="652" 
d="M643 232h10l-38 -232h-585v10h13q26 0 44.5 18.5t19.5 44.5v554q0 17 -9 31.5t-23.5 23t-31.5 8.5h-13v10h359v-10h-13q-26 0 -45 -18.5t-19 -44.5v-576h123q73 0 129 48t79 133zM468.5 327q-30.5 0 -52 22t-21.5 52.5t21.5 52t52 21.5t52 -21.5t21.5 -52t-21.5 -52.5
t-52 -22z" />
    <glyph glyph-name="ldot" unicode="&#x140;" horiz-adv-x="557" 
d="M552 210h10l-29 -210h-512v10h11q21 0 36.5 15t15.5 37v476q0 22 -15.5 37t-36.5 15h-11v10h323v-10h-11q-11 0 -20.5 -4t-16.5 -11t-11.5 -16.5t-4.5 -20.5v-492h96q60 0 108.5 44t67.5 120zM433.5 312q-30.5 0 -52 21.5t-21.5 52t21.5 52t52 21.5t52 -21.5t21.5 -52
t-21.5 -52t-52 -21.5z" />
    <glyph glyph-name="Lslash" unicode="&#x141;" horiz-adv-x="652" 
d="M643 232h10l-38 -232h-585v10h13q26 0 44.5 18.5t19.5 44.5v191l-63 -36l-26 46l89 51v302q0 17 -9 31.5t-23.5 23t-31.5 8.5h-13v10h359v-10h-13q-26 0 -45 -18.5t-19 -44.5v-183l77 45l26 -46l-103 -60v-332h123q73 0 129 48t79 133z" />
    <glyph glyph-name="lslash" unicode="&#x142;" 
d="M552 210h10l-29 -210h-512v10h11q21 0 36.5 15t15.5 37v182l-50 -26l-26 46l76 40v234q0 22 -15.5 37t-36.5 15h-11v10h323v-10h-11q-11 0 -20.5 -4t-16.5 -11t-11.5 -16.5t-4.5 -20.5v-131l79 42l26 -46l-105 -56v-301h96q60 0 108.5 44t67.5 120z" />
    <glyph glyph-name="Nacute" unicode="&#x143;" horiz-adv-x="881" 
d="M395 761l-7 7q19 44 65 96.5t90 89.5q64 -27 85 -100q-50 -33 -115 -60t-118 -33zM495 700h366v-10h-18q-25 0 -43 -17.5t-19 -42.5v-516q0 -37 3.5 -69t6.5 -45l3 -14h-9l-479 426v-341q0 -17 8.5 -31t22.5 -22t30 -8h19v-10h-366v10h19q25 0 43 17.5t18 43.5v519
q0 35 -3 66t-7 45l-3 14h10l1 -1l478 -425v340q-1 26 -19 43.5t-43 17.5h-19v10z" />
    <glyph glyph-name="nacute" unicode="&#x144;" horiz-adv-x="779" 
d="M345 661l-7 7q19 44 65.5 96.5t89.5 89.5q64 -27 85 -100q-50 -33 -115 -60t-118 -33zM428 600h340v-10h-17q-23 0 -39 -14t-16 -35v-444q0 -33 3 -60t6 -38l3 -11h-9l-420 353v-281q1 -21 16.5 -35.5t38.5 -14.5h16v-10h-338v10h16q23 0 39 14.5t16 35.5v447
q0 30 -3 56.5t-6 38.5l-3 11h9l419 -354v281q0 21 -15.5 35.5t-38.5 14.5h-17v10z" />
    <glyph glyph-name="Ncommaaccent" unicode="&#x145;" horiz-adv-x="881" 
d="M495 700h366v-10h-18q-25 0 -43 -17.5t-19 -42.5v-516q0 -37 3.5 -69t6.5 -45l3 -14h-9l-479 426v-341q0 -17 8.5 -31t22.5 -22t30 -8h19v-10h-366v10h19q25 0 43 17.5t18 43.5v519q0 35 -3 66t-7 45l-3 14h10l1 -1l478 -425v340q-1 26 -19 43.5t-43 17.5h-19v10z
M449 -273l-3 9q14 6 23.5 18.5t8.5 32t-19 39.5q-19 22 -16.5 52.5t23.5 45.5q24 18 55.5 9t45.5 -38q15 -32 9.5 -64t-22 -57.5t-45.5 -39t-60 -7.5z" />
    <glyph glyph-name="ncommaaccent" unicode="&#x146;" horiz-adv-x="779" 
d="M428 600h340v-10h-17q-23 0 -39 -14t-16 -35v-444q0 -33 3 -60t6 -38l3 -11h-9l-420 353v-281q1 -21 16.5 -35.5t38.5 -14.5h16v-10h-338v10h16q23 0 39 14.5t16 35.5v447q0 30 -3 56.5t-6 38.5l-3 11h9l419 -354v281q0 21 -15.5 35.5t-38.5 14.5h-17v10zM402 -274l-3 9
q14 6 23.5 18.5t8 32t-18.5 39.5q-19 22 -17 52.5t23 45.5q24 18 56 9t45 -38q15 -32 9.5 -64t-22 -57.5t-45 -39t-59.5 -7.5z" />
    <glyph glyph-name="Ncaron" unicode="&#x147;" horiz-adv-x="881" 
d="M419 764l159 175l-7 8l-158 -64l-168 64l-7 -8l169 -175h12zM495 700h366v-10h-18q-25 0 -43 -17.5t-19 -42.5v-516q0 -37 3.5 -69t6.5 -45l3 -14h-9l-479 426v-341q0 -17 8.5 -31t22.5 -22t30 -8h19v-10h-366v10h19q25 0 43 17.5t18 43.5v519q0 35 -3 66t-7 45l-3 14h10
l1 -1l478 -425v340q-1 26 -19 43.5t-43 17.5h-19v10z" />
    <glyph glyph-name="ncaron" unicode="&#x148;" horiz-adv-x="779" 
d="M369 664l159 175l-7 8l-157 -64l-169 65l-7 -8l169 -176h12zM428 600h340v-10h-17q-23 0 -39 -14t-16 -35v-444q0 -33 3 -60t6 -38l3 -11h-9l-420 353v-281q1 -21 16.5 -35.5t38.5 -14.5h16v-10h-338v10h16q23 0 39 14.5t16 35.5v447q0 30 -3 56.5t-6 38.5l-3 11h9
l419 -354v281q0 21 -15.5 35.5t-38.5 14.5h-17v10z" />
    <glyph glyph-name="Eng" unicode="&#x14a;" horiz-adv-x="891" 
d="M505 700h356v-10h-18q-24 0 -41 -16t-17 -39v-648v-1q-3 -69 -43 -118t-103.5 -66.5t-135.5 -0.5l-5 8q29 23 42 37.5t25.5 40t16.5 61.5t4 94v121l-290 258v-350q0 -17 8.5 -31t22.5 -22t30 -8h19v-10h-356v10h19q25 0 43 17.5t18 43.5v519q0 35 -3 66t-7 45l-3 14
l11 -1l488 -434v349q-1 26 -19 43.5t-43 17.5h-19v10z" />
    <glyph glyph-name="eng" unicode="&#x14b;" horiz-adv-x="779" 
d="M455 600h328v-10h-17q-24 0 -37.5 -14.5t-13.5 -35.5v-524q0 -72 -37 -123.5t-99.5 -70.5t-135.5 -1l-5 8q29 23 42 37.5t25.5 40t16.5 61.5t4 94v72l-255 214v-288q1 -14 8 -25.5t19.5 -18t27.5 -6.5h16v-10h-330v10h16q23 0 39 14.5t16 35.5v447q0 30 -3 56.5t-6 38.5
l-3 11h9l446 -375v303q-1 21 -16.5 35t-37.5 14h-17v10z" />
    <glyph glyph-name="Omacron" unicode="&#x14c;" horiz-adv-x="905" 
d="M308 809v85h290v-85h-290zM450 714q129 0 222.5 -43t143.5 -125.5t50 -195.5q0 -171 -111 -267.5t-305 -96.5t-304.5 96.5t-110.5 267.5t110.5 267.5t304.5 96.5zM450.5 36q91.5 0 143 83t51.5 231t-51.5 231t-143 83t-143 -83t-51.5 -231t51.5 -231t143 -83z" />
    <glyph glyph-name="omacron" unicode="&#x14d;" horiz-adv-x="779" 
d="M248 696v85h290v-85h-290zM389 612q172 0 268.5 -82t96.5 -231q0 -147 -96.5 -229t-268.5 -82q-171 0 -267.5 82t-96.5 229q0 149 96.5 231t267.5 82zM389 33q78 0 119 69.5t41 196.5q0 85 -18 144.5t-54 91.5t-88 32q-78 0 -119 -69.5t-41 -198.5q0 -127 41 -196.5
t119 -69.5z" />
    <glyph glyph-name="Ohungarumlaut" unicode="&#x150;" horiz-adv-x="905" 
d="M326 778l-7 7q19 44 65 96.5t90 89.5q64 -27 85 -100q-50 -33 -115 -60t-118 -33zM536 778l-7 7q10 23 29.5 51t42.5 53t43.5 45.5t39.5 36.5q64 -27 85 -100q-32 -21 -71.5 -40.5t-83 -34t-78.5 -18.5zM450 714q129 0 222.5 -43t143.5 -125.5t50 -195.5
q0 -171 -110.5 -267.5t-305 -96.5t-305 96.5t-110.5 267.5t110.5 267.5t304.5 96.5zM450.5 36q91.5 0 143 83t51.5 231t-51.5 231t-143 83t-143 -83t-51.5 -231t51.5 -231t143 -83z" />
    <glyph glyph-name="ohungarumlaut" unicode="&#x151;" horiz-adv-x="779" 
d="M265 665l-7 7q14 30 44 68.5t57.5 66.5t53.5 51q64 -27 85 -100q-50 -33 -115 -60t-118 -33zM476 665l-7 7q18 44 64.5 96.5t89.5 89.5q64 -27 85 -100q-50 -33 -115 -60t-117 -33zM389 612q172 0 268.5 -82t96.5 -231q0 -147 -96.5 -229t-268.5 -82q-171 0 -267.5 82
t-96.5 229q0 149 96.5 231t267.5 82zM389 33q78 0 119 69.5t41 196.5q0 85 -18 144.5t-54 91.5t-88 32q-78 0 -119 -69.5t-41 -198.5q0 -127 41 -196.5t119 -69.5z" />
    <glyph glyph-name="OE" unicode="&#x152;" horiz-adv-x="1142" 
d="M1118 232h10l-38 -232h-450q-26 0 -53 -2q-8 -1 -56 -6.5t-84 -5.5q-189 0 -300.5 97.5t-111.5 268.5q0 170 112.5 266t311.5 96q46 0 113 -9q37 -5 68 -5h308q31 0 67.5 6t51.5 12v-206h-10v8q0 39 -15 67.5t-43 44.5t-67 17h-145v-279h109q48 1 78 31.5t30 78.5v4h10
v-278h-10v5q0 31 -13.5 55.5t-38 38.5t-55.5 15h-110v-269h123q73 0 129 48t79 133zM581 104v492q0 23 -33 45.5t-86 22.5q-95 0 -154.5 -82t-60.5 -232q-1 -146 58 -230t156 -84q52 0 86 22t34 46z" />
    <glyph glyph-name="oe" unicode="&#x153;" horiz-adv-x="997" 
d="M979 207h10l-31 -208h-436l-15 -1q-15 -1 -37 -4t-41 -4.5t-43 -1.5q-166 0 -263.5 83.5t-97.5 231.5q0 97 44 167t128 107t200 37q37 0 97 -8q27 -4 54 -4h286q13 0 29 1.5t30 4t25.5 5t17.5 5.5v-186h-10v5q0 37 -13 63t-38.5 40.5t-61.5 15.5h-118v-237h87
q43 1 70.5 29t27.5 72v3h10v-252h-10v3q0 43 -27 71t-70 29h-88v-228h103q41 0 77 18.5t63 55t41 87.5zM502 94v414q0 20 -28 40.5t-74 20.5q-78 0 -127.5 -69.5t-50.5 -198.5q0 -63 12.5 -113.5t36 -84.5t56.5 -52t72 -18q46 0 74.5 20t28.5 41z" />
    <glyph glyph-name="Racute" unicode="&#x154;" horiz-adv-x="793" 
d="M374 761l-7 7q19 44 65.5 96.5t89.5 89.5q64 -27 85 -100q-50 -33 -115 -60t-118 -33zM35 700h391q39 0 74 -4.5t71 -17.5t62 -33.5t42 -55t16 -78.5q0 -31 -8 -59.5t-25 -56.5t-49.5 -47.5t-77.5 -26.5q39 -11 70.5 -38.5t51.5 -61.5q1 -1 10.5 -17.5t20 -34.5t26 -42
t28.5 -41q33 -46 56 -60.5t60 -15.5v-10h-125q-41 0 -69.5 2t-61 8.5t-56 18.5t-46.5 33.5t-41 51.5q-16 27 -25.5 56t-16 61t-10.5 44q-7 23 -16 37.5t-17 20t-19 9.5v10h16q28 0 49.5 12.5t37 40.5t20.5 70q3 29 2 41q-7 132 -114 132h-44v-575q0 -13 5 -24.5t13.5 -20
t20.5 -13.5t25 -5h12l1 -10h-360v10h13q26 0 44.5 18t19.5 44v555q-1 26 -19.5 44.5t-44.5 18.5h-13v10z" />
    <glyph glyph-name="racute" unicode="&#x155;" horiz-adv-x="678" 
d="M318 661l-7 7q10 24 29.5 51.5t42 52.5t43.5 45.5t39 36.5q64 -27 86 -100q-33 -21 -72.5 -40.5t-82.5 -33.5t-78 -19zM32 600h344q228 0 228 -165q0 -25 -5.5 -48.5t-19 -47t-40 -40.5t-63.5 -24q35 -9 64.5 -35.5t44.5 -53.5q4 -7 14.5 -28t22.5 -42.5t26 -42.5
q27 -41 44.5 -52t44.5 -11v-10h-118q-33 0 -50 0.5t-41 3.5t-38.5 9.5t-31.5 17.5t-31.5 28t-28.5 42q-20 34 -29 62.5t-18 73.5q-10 45 -33 57v8h5q28 0 49 25.5t27 83.5q0 1 0.5 6t0.5 10.5v15.5q-2 32 -12 55t-20 33t-25.5 15.5t-20 5.5h-11.5h-20v-490q0 -13 5 -23
t13 -16t17 -9.5t18 -3.5h9v-10h-321v10h11q21 0 36 15t15 37v476q0 22 -14.5 37t-35.5 15h-12v10z" />
    <glyph glyph-name="Rcommaaccent" unicode="&#x156;" horiz-adv-x="793" 
d="M35 700h391q39 0 74 -4.5t71 -17.5t62 -33.5t42 -55t16 -78.5q0 -31 -8 -59.5t-25 -56.5t-49.5 -47.5t-77.5 -26.5q39 -11 70.5 -38.5t51.5 -61.5q1 -1 10.5 -17.5t20 -34.5t26 -42t28.5 -41q23 -31 40 -47t34 -22t42 -7v-10h-125q-41 0 -69.5 2t-61 8.5t-56 18.5
t-46.5 33.5t-41 51.5q-16 27 -25.5 56t-16 61t-10.5 44q-5 17 -11 29.5t-13 19.5t-13.5 11t-14.5 7v10h16q28 0 49.5 12.5t37 40.5t20.5 70q3 29 2 41q-7 132 -114 132h-44v-575q0 -26 19 -44.5t45 -18.5h12v-10h-359v10h13q26 0 44.5 18t19.5 44v555q0 17 -9 31.5t-23.5 23
t-31.5 8.5h-13v10zM421 -273l-2 9q14 6 23 18.5t8 32t-19 39.5q-19 22 -16.5 52.5t23.5 45.5q24 18 56 9t45 -38q15 -32 9.5 -64t-22 -57.5t-45.5 -39t-60 -7.5z" />
    <glyph glyph-name="rcommaaccent" unicode="&#x157;" horiz-adv-x="678" 
d="M32 600h344q228 0 228 -165q0 -25 -5.5 -48.5t-19 -47t-40 -40.5t-63.5 -24q35 -9 64.5 -35.5t44.5 -53.5q4 -7 14.5 -28t22.5 -42.5t26 -42.5q27 -41 44.5 -52t44.5 -11v-10h-118q-33 0 -50 0.5t-41 3.5t-38.5 9.5t-31.5 17.5t-31.5 28t-28.5 42q-20 34 -29 62.5
t-18 73.5q-10 45 -33 57v8h5q28 0 49 25.5t27 83.5q0 1 0.5 6t0.5 10.5v15.5q-2 32 -12 55t-20 33t-26 15.5t-20 5.5h-11h-20v-490q0 -25 16.5 -38.5t36.5 -13.5h9v-10h-321v10h11q21 0 36 15t15 37v476q0 22 -14.5 37t-35.5 15h-12v10zM362 -274l-2 9q14 6 23.5 18.5t8 32
t-18.5 39.5q-20 22 -17.5 52.5t23.5 45.5q24 18 56 9t45 -38q15 -32 9.5 -64.5t-22 -57.5t-45.5 -38.5t-60 -7.5z" />
    <glyph glyph-name="Rcaron" unicode="&#x158;" horiz-adv-x="793" 
d="M398 764l159 175l-7 8l-158 -64l-168 64l-7 -8l169 -175h12zM35 700h391q39 0 74 -4.5t71 -17.5t62 -33.5t42 -55t16 -78.5q0 -31 -8 -59.5t-25 -56.5t-49.5 -47.5t-77.5 -26.5q39 -11 70.5 -38.5t51.5 -61.5q1 -1 10.5 -17.5t20 -34.5t26 -42t28.5 -41q23 -31 40 -47
t34 -22t42 -7v-10h-125q-41 0 -69.5 2t-61 8.5t-56 18.5t-46.5 33.5t-41 51.5q-16 27 -25.5 56t-16 61t-10.5 44q-9 33 -22 47t-30 20v10h16q28 0 49.5 12.5t37 40.5t20.5 70q3 29 2 41q-7 132 -114 132h-44v-575q0 -26 19 -44.5t45 -18.5h12v-10h-359v10h13q26 0 44.5 18
t19.5 44v555q0 17 -9 31.5t-23.5 23t-31.5 8.5h-13v10z" />
    <glyph glyph-name="rcaron" unicode="&#x159;" horiz-adv-x="678" 
d="M341 664l160 176l-7 8l-158 -65l-168 65l-8 -8l169 -176h12zM32 600h344q228 0 228 -165q0 -25 -5.5 -48.5t-19 -47t-40 -40.5t-63.5 -24q35 -9 64.5 -35.5t44.5 -53.5q4 -7 14.5 -28t22.5 -42.5t26 -42.5q27 -41 44.5 -52t44.5 -11v-10h-118q-33 0 -50 0.5t-41 3.5
t-38.5 9.5t-31.5 17.5t-31.5 28t-28.5 42q-14 24 -23 48t-13.5 41t-10.5 47q-10 45 -33 57v8h5q18 0 32.5 9t27 34.5t16.5 65.5q0 1 0.5 6t0.5 10.5v15.5q-2 32 -12 55t-20 33t-25.5 15.5t-20 5.5h-11.5h-20v-490q0 -25 16.5 -38.5t36.5 -13.5h9v-10h-321v10h11q21 0 36 15
t15 37v476q0 22 -14.5 37t-35.5 15h-12v10z" />
    <glyph glyph-name="Sacute" unicode="&#x15a;" horiz-adv-x="645" 
d="M303 761l-7 7q19 44 65.5 96.5t89.5 89.5q64 -27 85 -100q-50 -33 -115 -60t-118 -33zM303 487l187 -87q125 -57 115 -194q-7 -107 -89 -163.5t-225 -56.5q-83 0 -146 18.5t-91 46.5q-15 38 -4.5 97t36.5 92h9q-5 -82 55.5 -143t161.5 -61q68 0 104.5 28.5t36.5 69.5
q0 32 -25 58t-81 52l-163 76q-69 31 -100.5 87t-22.5 128q10 87 71 133t162 46q66 0 169 -10h78l-22 -163h-10q0 55 -43 89t-116 34q-40 0 -70.5 -11t-47 -29.5t-18.5 -43.5q-3 -32 20 -52.5t69 -40.5z" />
    <glyph glyph-name="sacute" unicode="&#x15b;" horiz-adv-x="549" 
d="M270 661l-7 7q19 44 65 96.5t90 89.5q64 -27 85 -100q-50 -33 -115 -60t-118 -33zM278 419l129 -59q53 -23 82.5 -67.5t23.5 -110.5q-8 -96 -78 -145t-194 -49q-74 0 -123.5 16.5t-68.5 40.5q-15 36 -4.5 88.5t34.5 82.5h6q-3 -73 46.5 -127t134.5 -55q52 0 78.5 23
t26.5 55q0 28 -23.5 51t-76.5 46l-105 49q-64 27 -94 79t-21 120q11 77 59.5 116t130.5 39q56 0 151 -9h67l-24 -146h-6q0 49 -35.5 78.5t-94.5 29.5q-46 0 -72.5 -17.5t-30.5 -48.5q-1 -16 4 -28.5t19.5 -22t25.5 -15t33 -14.5z" />
    <glyph glyph-name="Scedilla" unicode="&#x15e;" horiz-adv-x="645" 
d="M303 487l187 -87q125 -57 115 -194q-7 -98 -77.5 -154.5t-194.5 -64.5l-42 -48q14 5 34.5 5t40.5 -5.5t33 -22t11 -40.5q-3 -34 -33 -59.5t-71 -32t-85 6.5l1 10q37 0 68 19t36 57q2 20 -15 32t-40 12t-42 -6l-6 10l48 61q-76 2 -133.5 20t-83.5 45q-15 38 -4.5 97
t36.5 92h9q-6 -82 55 -143t162 -61q68 0 104.5 28.5t36.5 69.5q0 32 -25 58t-81 52l-163 76q-69 31 -100.5 87t-22.5 128q10 87 71 133t162 46q66 0 169 -10h78l-22 -163h-10q0 55 -43 89t-116 34q-60 0 -96.5 -23t-39.5 -61q-1 -14 3.5 -26t11.5 -21t20 -18t24.5 -15
t29.5 -13z" />
    <glyph glyph-name="scedilla" unicode="&#x15f;" horiz-adv-x="519" 
d="M266 419l130 -59q53 -23 82 -67.5t24 -110.5q-7 -84 -62.5 -132.5t-153.5 -58.5l-41 -47q15 5 35 5t40 -5.5t33 -22t11 -40.5q-3 -34 -33 -59.5t-71 -32t-85 6.5l1 10q37 0 68 19t36 57q2 20 -15 32t-40 12t-42 -6l-5 10l44 58q-70 1 -118 17t-67 40q-14 36 -3.5 88.5
t34.5 82.5h5q-3 -73 47 -127t135 -55q52 0 78 23t26 55q0 28 -23 51t-76 46l-105 49q-65 27 -95 79t-20 120q11 77 59.5 116t130.5 39q56 0 151 -9h67l-24 -146h-7q0 49 -35 78.5t-95 29.5q-46 0 -72.5 -17.5t-29.5 -48.5q-2 -16 3.5 -28.5t20 -22t25.5 -15t32 -14.5z" />
    <glyph glyph-name="Scaron" unicode="&#x160;" horiz-adv-x="645" 
d="M327 764l159 175l-7 8l-158 -64l-168 64l-7 -8l169 -175h12zM303 487l187 -87q125 -57 115 -194q-7 -107 -89 -163.5t-225 -56.5q-83 0 -146 18.5t-91 46.5q-15 38 -4.5 97t36.5 92h9q-6 -82 55 -143t162 -61q68 0 104.5 28.5t36.5 69.5q0 22 -10.5 40t-34 35.5
t-61.5 34.5l-163 76q-69 31 -100.5 87t-22.5 128q10 87 71 133t162 46q66 0 169 -10h78l-22 -163h-10q0 55 -43 89t-116 34q-60 0 -96.5 -23t-39.5 -61q-3 -33 20 -53t69 -40z" />
    <glyph glyph-name="scaron" unicode="&#x161;" horiz-adv-x="549" 
d="M294 664l159 175l-7 8l-158 -64l-168 64l-7 -8l169 -175h12zM278 419l129 -59q53 -23 82.5 -67.5t23.5 -110.5q-8 -96 -78 -145t-194 -49q-74 0 -123.5 16.5t-68.5 40.5q-15 36 -4.5 88.5t34.5 82.5h6q-3 -73 46.5 -127t134.5 -55q52 0 78.5 23t26.5 55q0 28 -23.5 51
t-76.5 46l-105 49q-64 27 -94 79t-21 120q11 77 59.5 116t130.5 39q56 0 151 -9h67l-24 -146h-6q0 49 -35.5 78.5t-94.5 29.5q-46 0 -72.5 -17.5t-30.5 -48.5q-2 -16 3.5 -28.5t20 -22t25.5 -15t33 -14.5z" />
    <glyph glyph-name="Tcedilla" unicode="&#x162;" horiz-adv-x="698" 
d="M128 701h443q31 0 67 6t51 12v-206l-10 1v7q0 60 -34 94.5t-95 35.5h-98v-579q1 -26 19.5 -44t44.5 -18h13v-10h-160l-42 -48q15 5 35 5t40 -5.5t33 -22t11 -40.5q-3 -34 -33 -59.5t-71 -32t-84 6.5v10q37 0 68.5 19t35.5 57q3 20 -14.5 32t-40 12t-42.5 -6l-5 10l48 62
h-138v10h13q26 0 44.5 18t19.5 43v580h-99q-60 -1 -94 -35.5t-34 -94.5v-7l-10 -1v206q14 -6 50.5 -12t67.5 -6z" />
    <glyph glyph-name="tcedilla" unicode="&#x163;" horiz-adv-x="613" 
d="M107 601h399q26 0 59 5t41 10v-188h-10v5q0 38 -13.5 65t-40 41.5t-64.5 14.5h-74v-492q0 -14 7.5 -26.5t19.5 -19t26 -6.5h10v-10h-138l-41 -47q14 5 34.5 5t40.5 -5.5t33 -22t11 -40.5q-4 -34 -34 -59.5t-70.5 -32t-84.5 6.5l1 10q36 0 67.5 19t36.5 57q2 20 -15.5 32
t-40 12t-42.5 -6l-5 10l47 61h-121v10h10q21 0 36.5 15t15.5 37v492h-73q-28 0 -50.5 -8.5t-37 -24t-22.5 -38t-8 -50.5v-5h-10v188q13 -5 44 -10t56 -5z" />
    <glyph glyph-name="Tcaron" unicode="&#x164;" horiz-adv-x="698" 
d="M357 764l159 175l-7 8l-158 -64l-168 64l-7 -8l169 -175h12zM128 701h443q21 0 45.5 3t43.5 7t29 8v-206l-10 1v7q0 40 -15.5 69t-44.5 44.5t-69 16.5h-98v-579q1 -26 19.5 -44t44.5 -18h13v-10h-359v10h13q26 0 44.5 18t19.5 43v580h-99q-60 -1 -94 -35.5t-34 -94.5v-7
l-10 -1v206q14 -6 50.5 -12t67.5 -6z" />
    <glyph glyph-name="tcaron" unicode="&#x165;" horiz-adv-x="612" 
d="M317 671h-12l-169 175l7 8l168 -64l158 64l7 -8zM107 601h399q26 0 59 5t41 10v-188h-10v5q0 38 -13.5 65t-40 41.5t-64.5 14.5h-74v-492q0 -14 7.5 -26.5t19.5 -19t26 -6.5h10v-10h-321v10h10q21 0 36.5 15t15.5 37v492h-73q-38 0 -64.5 -14.5t-40 -41.5t-13.5 -65v-5
h-10v188q13 -5 44 -10t56 -5z" />
    <glyph glyph-name="Tbar" unicode="&#x166;" horiz-adv-x="698" 
d="M128 701h443q31 0 67 6t51 12v-206l-10 1v7q0 60 -34 94.5t-95 35.5h-98v-248h150v-50h-150v-281q1 -26 19.5 -44t44.5 -18h13v-10h-359v10h13q26 0 44.5 18t19.5 43v282h-151v50h151v248h-99q-60 -1 -94 -35.5t-34 -94.5v-7l-10 -1v206q14 -6 50.5 -12t67.5 -6z" />
    <glyph glyph-name="tbar" unicode="&#x167;" horiz-adv-x="620" 
d="M107 601h399q26 0 59 5t41 10v-188h-10v5q0 38 -13.5 65t-40 41.5t-64.5 14.5h-74v-208h126v-45h-126v-239q0 -22 15.5 -37t37.5 -15h10v-10h-321v10h10q21 0 36.5 15t15.5 37v239h-120v45h120v208h-73q-28 0 -50.5 -8.5t-37 -24t-22.5 -38t-8 -50.5v-5h-10v188
q13 -5 44 -10t56 -5z" />
    <glyph glyph-name="Umacron" unicode="&#x16a;" horiz-adv-x="845" 
d="M341 795v85h290v-85h-290zM600 700h225v-10h-16q-21 0 -36.5 -13.5t-16.5 -33.5v-386q0 -127 -78.5 -199t-221.5 -72q-179 0 -268 70t-89 200v384q0 22 -15.5 36t-37.5 14h-16v10h343v-10h-16q-22 0 -37 -13.5t-16 -34.5v-382q0 -105 48 -164t134 -59t134.5 55.5
t48.5 154.5v395q-1 21 -16 34.5t-37 13.5h-16v10z" />
    <glyph glyph-name="umacron" unicode="&#x16b;" horiz-adv-x="708" 
d="M256 695v85h290v-85h-290zM504 600h193v-8h-13q-18 0 -31 -12.5t-13 -30.5v-326q0 -111 -66 -173t-188 -62q-310 0 -310 233v328q0 9 -3.5 17t-9.5 14t-14 9t-17 3h-13v8h310v-8h-14q-18 0 -30.5 -12t-12.5 -31v-326q0 -59 17 -101t50 -64t79 -22q68 0 105 46t38 130v337
q-1 19 -13.5 31t-30.5 12h-13v8z" />
    <glyph glyph-name="Uring" unicode="&#x16e;" horiz-adv-x="845" 
d="M483 942q50 0 83.5 -25t33.5 -62q0 -40 -34 -66t-84.5 -26t-84 25.5t-33.5 64t34 64t85 25.5zM482 912q-22 0 -36.5 -17t-14.5 -43q0 -25 14.5 -41.5t36.5 -16.5t37 16.5t15 41.5q0 26 -15 43t-37 17zM600 700h225v-10h-16q-21 0 -36.5 -13.5t-16.5 -33.5v-386
q0 -127 -78.5 -199t-221.5 -72q-179 0 -268 70t-89 200v384q0 22 -15.5 36t-37.5 14h-16v10h343v-10h-16q-22 0 -37 -13.5t-16 -34.5v-382q0 -105 48 -164t134 -59t134.5 55.5t48.5 154.5v395q-1 21 -16 34.5t-37 13.5h-16v10z" />
    <glyph glyph-name="uring" unicode="&#x16f;" horiz-adv-x="708" 
d="M398 842q50 0 83 -25t33 -62q0 -40 -33.5 -66t-84 -26t-84.5 25.5t-34 64t34 64t86 25.5zM396 812q-14 0 -25.5 -8t-18 -21.5t-6.5 -30.5q0 -25 14.5 -41.5t35.5 -16.5q23 0 37.5 16.5t14.5 41.5q0 26 -14.5 43t-37.5 17zM504 600h193v-8h-13q-18 0 -31 -12.5t-13 -30.5
v-326q0 -111 -66 -173t-188 -62q-310 0 -310 233v328q0 9 -3.5 17t-9.5 14t-14 9t-17 3h-13v8h310v-8h-14q-18 0 -30.5 -12t-12.5 -31v-326q0 -89 38.5 -138t107.5 -49q68 0 105 46t38 130v337q-1 19 -13.5 31t-30.5 12h-13v8z" />
    <glyph glyph-name="Uhungarumlaut" unicode="&#x170;" horiz-adv-x="845" 
d="M359 764l-7 7q18 44 64.5 96.5t89.5 89.5q64 -27 85 -100q-32 -21 -71.5 -40.5t-82.5 -34t-78 -18.5zM569 764l-7 7q18 44 64.5 96.5t89.5 89.5q64 -27 85 -100q-50 -33 -115 -60t-117 -33zM600 700h225v-10h-16q-21 0 -36.5 -13.5t-16.5 -33.5v-386q0 -127 -78.5 -199
t-221.5 -72q-179 0 -268 70t-89 200v384q0 22 -15.5 36t-37.5 14h-16v10h343v-10h-16q-22 0 -37 -13.5t-16 -34.5v-382q0 -105 48 -164t134 -59t134.5 55.5t48.5 154.5v395q-1 21 -16 34.5t-37 13.5h-16v10z" />
    <glyph glyph-name="uhungarumlaut" unicode="&#x171;" horiz-adv-x="708" 
d="M273 664l-7 7q10 23 29.5 51t42.5 53t43.5 45.5t39.5 36.5q64 -27 85 -100q-50 -33 -115 -60t-118 -33zM483 664l-7 7q19 44 65.5 96.5t89.5 89.5q64 -27 85 -100q-32 -21 -71.5 -40.5t-82.5 -34t-79 -18.5zM504 600h193v-8h-13q-18 0 -31 -12.5t-13 -30.5v-326
q0 -111 -66 -173t-188 -62q-310 0 -310 233v328q0 12 -6 22t-16 15.5t-22 5.5h-13v8h310v-8h-14q-18 0 -30 -12t-13 -31v-326q0 -89 38.5 -138t107.5 -49q68 0 105 46t38 130v337q0 12 -6 22t-16 15.5t-22 5.5h-13v8z" />
    <glyph glyph-name="Uogonek" unicode="&#x172;" horiz-adv-x="845" 
d="M825 700v-10h-16q-21 0 -36.5 -13.5t-16.5 -33.5v-386q0 -40 -8 -75t-23.5 -64t-38.5 -52t-52.5 -40t-66.5 -27t-80 -12q-68 -17 -63 -78q5 -46 40 -59t73 17l6 -6q-5 -64 -62 -82q-52 -16 -100 17q-52 36 -43 102q6 37 29 59t57 30q-163 6 -244 75.5t-81 193.5v384
q0 22 -15.5 36t-37.5 14h-16v10h343v-10h-16q-22 0 -37 -13.5t-16 -34.5v-382q0 -105 48 -164t134 -59t134.5 55.5t48.5 154.5v395q-1 21 -16 34.5t-37 13.5h-16v10h225z" />
    <glyph glyph-name="uogonek" unicode="&#x173;" horiz-adv-x="708" 
d="M697 600v-8h-13q-18 0 -31 -12.5t-13 -30.5v-326q0 -102 -55.5 -163t-159.5 -70q-63 -18 -57 -77q4 -46 39 -59t73 17l6 -6q-5 -64 -62 -82q-52 -16 -100 17q-52 36 -42 102q9 65 76 87q-282 10 -282 232v328q0 9 -3.5 17t-9.5 14t-14 9t-17 3h-13v8h310v-8h-14
q-18 0 -30.5 -12t-12.5 -31v-326q0 -59 17 -101t50 -64t79 -22q68 0 105 46t38 130v337q-1 19 -13.5 31t-30.5 12h-13v8h193z" />
    <glyph glyph-name="Wcircumflex" unicode="&#x174;" horiz-adv-x="964" 
d="M536 932l-169 -176l7 -8l167 65l178 -65l7 8l-178 176h-12zM786 700h218v-10h-8q-25 0 -50 -14.5t-36 -42.5l-170 -544q-2 -7 -5 -18.5t-7.5 -41t-1.5 -51.5h-10l-231 435l-158 -324q-26 -56 -27 -111h-9l-247 655q-14 29 -37.5 43t-48.5 14h-8v10h359v-10h-9
q-13 0 -24 -7t-15.5 -21t2.5 -34l109 -272l173 360l9 -1l199 -368l80 281q5 20 0.5 34t-14.5 21t-24 7h-9v10z" />
    <glyph glyph-name="wcircumflex" unicode="&#x175;" horiz-adv-x="851" 
d="M480 832l-168 -176l7 -8l167 65l178 -65l7 8l-179 176h-12zM692 600h191v-10h-7q-21 0 -41 -10t-31 -31l-147 -462q-2 -5 -4.5 -14.5t-6.5 -35.5t-2 -47h-8l-206 348l-134 -254q-24 -47 -24 -94h-8l-216 552q-11 25 -31.5 36.5t-41.5 11.5h-7v10h329v-10h-9
q-17 0 -28 -13t-5 -34l92 -208l145 278h7l172 -288l62 214q5 24 -5 37.5t-29 13.5h-7v10z" />
    <glyph glyph-name="Ycircumflex" unicode="&#x176;" horiz-adv-x="729" 
d="M428 932l-169 -176l7 -8l167 65l178 -65l7 8l-178 176h-12zM526 700h249v-10h-14q-30 0 -57.5 -17t-43.5 -42l-196 -309v-249q0 -26 18.5 -44.5t45.5 -18.5h12v-10h-358v10h13q26 0 44.5 18t19.5 44v250l-191 311q-7 11 -17.5 21.5t-23.5 18.5t-28 12.5t-30 4.5h-14v10
h386v-10h-12q-22 0 -34 -20.5t-1 -41.5l137 -247l142 247q12 21 -1 41.5t-34 20.5h-12v10z" />
    <glyph glyph-name="ycircumflex" unicode="&#x177;" horiz-adv-x="633" 
d="M366 832l-169 -176l7 -8l168 65l177 -65l7 8l-178 176h-12zM466 600h218v-10h-13q-26 0 -48.5 -13.5t-36.5 -33.5l-169 -264v-217q0 -22 16 -37t39 -15h11v-10h-328v10h12q22 0 38 15t16 37v216l-172 265q-9 13 -22 23.5t-29.5 17t-33.5 6.5h-12v10h350v-10h-10
q-19 0 -29.5 -17t-0.5 -34l124 -210l121 210q10 17 -1 34t-29 17h-11v10z" />
    <glyph glyph-name="Ydieresis" unicode="&#x178;" horiz-adv-x="729" 
d="M300.5 755q-30.5 0 -52.5 22t-22 52.5t22 52t52.5 21.5t52 -21.5t21.5 -52t-21.5 -52.5t-52 -22zM562.5 755q-30.5 0 -52 22t-21.5 52.5t21.5 52t52 21.5t52 -21.5t21.5 -52t-21.5 -52.5t-52 -22zM526 700h249v-10h-14q-30 0 -57.5 -17t-43.5 -42l-196 -309v-249
q0 -26 18.5 -44.5t45.5 -18.5h12v-10h-358v10h13q26 0 44.5 18t19.5 44v250l-191 311q-15 24 -42.5 40.5t-56.5 16.5h-14v10h386v-10h-12q-22 0 -34 -20.5t-1 -41.5l137 -247l142 247q12 21 -1 41.5t-34 20.5h-12v10z" />
    <glyph glyph-name="Zacute" unicode="&#x179;" horiz-adv-x="668" 
d="M318 761l-7 7q19 44 65.5 96.5t89.5 89.5q64 -27 85 -100q-50 -33 -115 -60t-118 -33zM634 232h10l-38 -232h-571v9l332 642h-180q-60 -1 -94 -35.5t-34 -94.5v-8h-10v206q15 -6 52.5 -12t68.5 -6h345q19 0 42 2t40.5 5t23.5 6v-9l-336 -655h141q73 0 129 48.5t79 133.5z
" />
    <glyph glyph-name="zacute" unicode="&#x17a;" horiz-adv-x="606" 
d="M301 661l-7 7q13 30 43 68.5t58 66.5t54 51q64 -27 85 -100q-32 -21 -71.5 -40.5t-83 -34t-78.5 -18.5zM598 210l-36 -210h-537v8l301 547h-158q-57 0 -88.5 -32.5t-31.5 -90.5v-4h-10v188q8 -3 26 -6.5t40 -6t40 -2.5h338q26 0 56.5 3.5t38.5 7.5v-7l-290 -560h108
q68 0 120 44t73 121h10z" />
    <glyph glyph-name="Zdotaccent" unicode="&#x17b;" horiz-adv-x="668" 
d="M335 764q-31 0 -52.5 21.5t-21.5 52t21.5 52t52.5 21.5t52.5 -21.5t21.5 -52t-21.5 -52t-52.5 -21.5zM634 232h10l-38 -232h-571v9l332 642h-180q-60 -1 -94 -35.5t-34 -94.5v-8h-10v206q15 -6 52.5 -12t68.5 -6h345q19 0 42 2t40.5 5t23.5 6v-9l-336 -655h141
q73 0 129 48.5t79 133.5z" />
    <glyph glyph-name="zdotaccent" unicode="&#x17c;" horiz-adv-x="606" 
d="M318 664q-31 0 -52.5 21.5t-21.5 52t21.5 52t52.5 21.5t52.5 -21.5t21.5 -52t-21.5 -52t-52.5 -21.5zM598 210l-36 -210h-537v8l301 547h-158q-57 0 -88.5 -32.5t-31.5 -90.5v-4h-10v188q12 -5 45.5 -10t60.5 -5h338q17 0 37.5 1.5t36.5 4t21 5.5v-7l-290 -560h108
q68 0 120 44t73 121h10z" />
    <glyph glyph-name="Zcaron" unicode="&#x17d;" horiz-adv-x="668" 
d="M342 764l159 175l-7 8l-158 -64l-168 64l-7 -8l169 -175h12zM634 232h10l-38 -232h-571v9l332 642h-180q-60 -1 -94 -35.5t-34 -94.5v-8h-10v206q15 -6 52.5 -12t68.5 -6h345q19 0 42 2t40.5 5t23.5 6v-9l-336 -655h141q73 0 129 48.5t79 133.5z" />
    <glyph glyph-name="zcaron" unicode="&#x17e;" horiz-adv-x="606" 
d="M325 664l159 175l-7 8l-158 -64l-168 64l-7 -8l169 -175h12zM598 210l-36 -210h-537v8l301 547h-158q-57 0 -88.5 -32.5t-31.5 -90.5v-4h-10v188q5 -2 13.5 -4t20 -4t23.5 -3.5t25 -2.5t24 -1h338q17 0 37.5 1.5t36.5 4t21 5.5v-7l-290 -560h108q68 0 120 44t73 121h10z
" />
    <glyph glyph-name="florin" unicode="&#x192;" horiz-adv-x="578" 
d="M59 600h389q25 0 56 5t44 10v-191h-10v6q0 58 -31 90.5t-89 33.5h-93v-235h69q44 1 72 29.5t28 73.5v4h10v-262h-10v6q0 44 -28 73t-72 29h-69v-192q0 -60 -18 -106.5t-47 -74.5t-70.5 -46t-82 -24.5t-87.5 -6.5v10q59 33 80 84t21 134v488q0 23 -15.5 38.5t-36.5 15.5
h-10v8z" />
    <glyph glyph-name="Scommaaccent" unicode="&#x218;" horiz-adv-x="615" 
d="M293 487l187 -87q125 -57 115 -194q-7 -107 -89 -163.5t-225 -56.5q-83 0 -146 18.5t-91 46.5q-15 38 -4.5 97t36.5 92h9q-6 -82 55 -143t162 -61q68 0 104.5 28.5t36.5 69.5q0 32 -25 58t-81 52l-163 76q-69 31 -100.5 87t-22.5 128q10 87 71 133t162 46q66 0 169 -10
h78l-22 -163h-10q0 63 -53 96q-42 27 -106 27q-40 0 -70.5 -11t-47 -29.5t-18.5 -43.5q-3 -33 20 -53t69 -40zM245 -273l-3 9q14 6 23.5 18.5t8.5 32t-19 39.5q-19 22 -16.5 52.5t23.5 45.5q24 18 55.5 9t45.5 -38q15 -32 9.5 -64t-22 -57.5t-45.5 -39t-60 -7.5z" />
    <glyph glyph-name="scommaaccent" unicode="&#x219;" horiz-adv-x="549" 
d="M278 419l129 -59q53 -23 82.5 -67.5t23.5 -110.5q-8 -96 -78 -145t-194 -49q-74 0 -123.5 16.5t-68.5 40.5q-15 36 -4.5 88.5t34.5 82.5h6q-3 -73 46.5 -127t134.5 -55q52 0 78.5 23t26.5 55q0 28 -23.5 51t-76.5 46l-105 49q-64 27 -94 79t-21 120q11 77 59.5 116
t130.5 39q56 0 151 -9h67l-24 -146h-6q0 49 -35.5 78.5t-94.5 29.5q-46 0 -72.5 -17.5t-30.5 -48.5q-1 -16 4 -28.5t19.5 -22t25.5 -15t33 -14.5zM222 -273l-2 9q14 6 23.5 18.5t8 32t-18.5 39.5q-19 22 -17 52.5t23 45.5q24 18 56 9t45 -38q15 -32 9.5 -64t-22 -57.5
t-45.5 -39t-60 -7.5z" />
    <glyph glyph-name="uni021A" unicode="&#x21a;" horiz-adv-x="698" 
d="M128 701h443q31 0 67 6t51 12v-206l-10 1v7q0 40 -15.5 69t-44.5 44.5t-69 16.5h-98v-579q1 -26 19.5 -44t44.5 -18h13v-10h-359v10h13q26 0 44.5 18t19.5 43v580h-99q-60 -1 -94 -35.5t-34 -94.5v-7l-10 -1v206q14 -6 50.5 -12t67.5 -6zM291 -273l-2 9q14 6 23 18.5
t8 32t-19 39.5q-19 22 -16.5 52.5t23.5 45.5q24 18 56 9t45 -38q15 -32 9.5 -64t-22 -57.5t-45.5 -39t-60 -7.5z" />
    <glyph glyph-name="uni021B" unicode="&#x21b;" horiz-adv-x="612" 
d="M107 601h399q26 0 59 5t41 10v-188h-10v5q0 38 -13.5 65t-40 41.5t-64.5 14.5h-74v-492q0 -22 15.5 -37t37.5 -15h10v-10h-321v10h10q21 0 36.5 15t15.5 37v492h-73q-28 0 -50.5 -8.5t-37 -24t-22.5 -38t-8 -50.5v-5h-10v188q13 -5 44 -10t56 -5zM257 -272l-3 9
q14 6 23.5 18.5t8 32t-18.5 39.5q-19 22 -17 52.5t23 45.5q24 18 56 9t45 -38q16 -32 10 -64t-22.5 -57.5t-45 -39t-59.5 -7.5z" />
    <glyph glyph-name="circumflex" unicode="&#x2c6;" 
d="M270 844l-169 -175l7 -8l168 64l177 -64l8 8l-179 175h-12z" />
    <glyph glyph-name="caron" unicode="&#x2c7;" 
d="M292 671l159 175l-7 8l-158 -64l-168 64l-7 -8l169 -175h12z" />
    <glyph glyph-name="breve" unicode="&#x2d8;" 
d="M347 874h13q14 -64 -29.5 -114t-110.5 -50q-68 0 -110.5 50t-28.5 114h12q12 -27 47.5 -45.5t79.5 -18.5q29 0 55 8t45 23t27 33z" />
    <glyph glyph-name="dotaccent" unicode="&#x2d9;" 
d="M293.5 665q-30.5 0 -52 22t-21.5 52.5t21.5 52t52 21.5t52.5 -21.5t22 -52t-22 -52.5t-52.5 -22z" />
    <glyph glyph-name="ring" unicode="&#x2da;" 
d="M301 877q50 0 83.5 -25t33.5 -62q0 -40 -33.5 -66t-84.5 -26t-84.5 25.5t-33.5 64t34 64t85 25.5zM300 847q-22 0 -36.5 -17t-14.5 -43q0 -25 14.5 -41.5t36.5 -16.5t37 16.5t15 41.5q0 26 -15 43t-37 17z" />
    <glyph glyph-name="ogonek" unicode="&#x2db;" 
d="M425 -107l6 -6q-4 -64 -61 -82q-53 -16 -100 17q-52 36 -43 102q5 36 29 58.5t52.5 29.5t59.5 4l10 -3q-71 -16 -65 -78q5 -46 40 -59t72 17z" />
    <glyph glyph-name="tilde" unicode="&#x2dc;" 
d="M478 799h-12q-7 -16 -34 -32t-57 -12q-36 5 -84 29t-78 24q-46 0 -76.5 -29.5t-39.5 -66.5t-1 -66h12q8 20 35 38t57 13q29 -4 78.5 -29t82.5 -25q29 0 53 11.5t38 29.5t23.5 39t8.5 40.5t-6 35.5z" />
    <glyph glyph-name="hungarumlaut" unicode="&#x2dd;" 
d="M141 743l-7 7q19 44 65 96.5t89 89.5q64 -27 86 -100q-50 -33 -115.5 -60t-117.5 -33zM351 743l-7 7q19 44 65 96.5t89 89.5q64 -27 86 -100q-33 -21 -72.5 -40.5t-82.5 -34t-78 -18.5z" />
    <glyph glyph-name="commaaccentcomb" unicode="&#x326;" horiz-adv-x="0" 
d="M37 -209l-3 9q14 6 23.5 18.5t8.5 32t-19 39.5q-19 22 -17 52.5t23 45.5q24 18 56 9t45 -38q16 -32 10.5 -64t-22 -57.5t-45.5 -39t-60 -7.5z" />
    <glyph glyph-name="Delta" unicode="&#x394;" horiz-adv-x="652" 
d="M321 714h10l316 -704v-10h-642v10zM498 50l-208 482l-211 -482h419z" />
    <glyph glyph-name="Omega" unicode="&#x3a9;" horiz-adv-x="879" 
d="M850 260h10l-48 -260h-330l-20 175q181 60 181 254q0 101 -57.5 168t-143.5 67q-89 0 -147.5 -68.5t-58.5 -170.5q0 -100 47 -162t132 -88l-20 -175h-327l-48 260h10q27 -50 50.5 -67.5t66.5 -17.5h188q-83 0 -153 30t-113 88.5t-43 135.5q0 82 54 147.5t148.5 101.5
t212.5 36q116 0 210.5 -37t148 -102.5t53.5 -145.5q0 -78 -42.5 -136.5t-112.5 -88t-156 -29.5h190q44 0 67 17.5t51 67.5z" />
    <glyph glyph-name="mu" unicode="&#x3bc;" horiz-adv-x="854" 
d="M873 10v-10h-324v10h14q18 0 26 12.5t7 25.5l-33 224l-138 -193q-5 -6 -11.5 -16.5t-16.5 -37t-9 -47.5h-8l-225 280l-27 -210q0 -5 1.5 -11t5 -12t10.5 -10.5t16 -4.5h14v-10h-194v10h13q25 0 43 13.5t21 38.5l78 550h8l298 -375l267 375h9l80 -555q6 -22 22.5 -34.5
t38.5 -12.5h14z" />
    <glyph glyph-name="pi" unicode="&#x3c0;" horiz-adv-x="783" 
d="M759 10v-10h-337l1 10h10q23 0 39 16t17 38v432q-1 14 -8 26.5t-19.5 20t-26.5 7.5h-86q-22 0 -37.5 -15.5t-16.5 -37.5v-434q1 -22 17 -37.5t39 -15.5h10l1 -10h-337v10h11q23 0 39 16t16 38v472q0 15 -7.5 27.5t-20 19.5t-27.5 7h-11v10h734v-10h-11q-22 0 -38 -15.5
t-17 -37.5v-474q0 -14 7.5 -26.5t20 -19.5t27.5 -7h11z" />
    <glyph glyph-name="Wgrave" unicode="&#x1e80;" horiz-adv-x="964" 
d="M570 771l-7 -7q-53 6 -118 33t-115 60q21 73 85 100q44 -37 90 -89.5t65 -96.5zM786 700h218v-10h-8q-25 0 -50 -14.5t-36 -42.5l-170 -544q-2 -7 -5 -18.5t-7.5 -41t-1.5 -51.5h-10l-231 435l-158 -324q-26 -56 -27 -111h-9l-247 655q-14 29 -37.5 43t-48.5 14h-8v10
h359v-10h-9q-21 0 -34 -17t-3 -45l109 -272l173 360l9 -1l199 -368l80 281q5 20 1 34t-14.5 21t-24.5 7h-9v10z" />
    <glyph glyph-name="wgrave" unicode="&#x1e81;" horiz-adv-x="851" 
d="M515 671l-7 -7q-53 6 -118 33t-115 60q21 73 85 100q43 -37 89.5 -89.5t65.5 -96.5zM692 600h191v-10h-7q-21 0 -41 -10t-31 -31l-147 -462q-2 -5 -4.5 -14.5t-6.5 -35.5t-2 -47h-8l-206 348l-134 -254q-24 -47 -24 -94h-8l-216 552q-11 25 -31.5 36.5t-41.5 11.5h-7v10
h329v-10h-9q-17 0 -28 -13t-5 -34l92 -208l145 278h7l172 -288l62 214q5 24 -5 37.5t-29 13.5h-7v10z" />
    <glyph glyph-name="Wacute" unicode="&#x1e82;" horiz-adv-x="964" 
d="M526 761l-7 7q19 44 65.5 96.5t89.5 89.5q64 -27 85 -100q-50 -33 -115 -60t-118 -33zM786 700h218v-10h-8q-25 0 -50 -14.5t-36 -42.5l-170 -544q-2 -7 -5 -18.5t-7.5 -41t-1.5 -51.5h-10l-231 435l-158 -324q-26 -56 -27 -111h-9l-247 655q-14 29 -37.5 43t-48.5 14h-8
v10h359v-10h-9q-13 0 -24 -7t-15.5 -21t2.5 -34l109 -272l173 360l9 -1l199 -368l80 281q7 28 -4.5 45t-33.5 17h-9v10z" />
    <glyph glyph-name="wacute" unicode="&#x1e83;" horiz-adv-x="851" 
d="M471 661l-7 7q19 44 65 96.5t89 89.5q65 -27 86 -100q-33 -21 -72.5 -40.5t-82.5 -34t-78 -18.5zM692 600h191v-10h-7q-21 0 -41 -10t-31 -31l-147 -462q-2 -5 -4.5 -14.5t-6.5 -35.5t-2 -47h-8l-206 348l-134 -254q-24 -47 -24 -94h-8l-216 552q-11 25 -31.5 36.5
t-41.5 11.5h-7v10h329v-10h-9q-17 0 -28 -13t-5 -34l92 -208l145 278h7l172 -288l62 214q5 24 -5 37.5t-29 13.5h-7v10z" />
    <glyph glyph-name="Wdieresis" unicode="&#x1e84;" horiz-adv-x="964" 
d="M408.5 755q-30.5 0 -52 22t-21.5 52.5t21.5 52t52 21.5t52 -21.5t21.5 -52t-21.5 -52.5t-52 -22zM671.5 755q-30.5 0 -52.5 22t-22 52.5t22 52t52.5 21.5t52 -21.5t21.5 -52t-21.5 -52.5t-52 -22zM786 700h218v-10h-8q-25 0 -50 -14.5t-36 -42.5l-170 -544
q-2 -7 -5 -18.5t-7.5 -41t-1.5 -51.5h-10l-231 435l-158 -324q-26 -56 -27 -111h-9l-247 655q-14 29 -37.5 43t-48.5 14h-8v10h359v-10h-9q-13 0 -24 -7t-15.5 -21t2.5 -34l109 -272l173 360l9 -1l199 -368l80 281q7 28 -4.5 45t-33.5 17h-9v10z" />
    <glyph glyph-name="wdieresis" unicode="&#x1e85;" horiz-adv-x="851" 
d="M352.5 655q-30.5 0 -52 22t-21.5 52.5t21.5 52t52 21.5t52.5 -21.5t22 -52t-22 -52.5t-52.5 -22zM615.5 655q-30.5 0 -52 22t-21.5 52.5t21.5 52t52 21.5t52 -21.5t21.5 -52t-21.5 -52.5t-52 -22zM692 600h191v-10h-7q-21 0 -41 -10t-31 -31l-147 -462q-2 -5 -4.5 -14.5
t-6.5 -35.5t-2 -47h-8l-206 348l-134 -254q-24 -47 -24 -94h-8l-216 552q-11 25 -31.5 36.5t-41.5 11.5h-7v10h329v-10h-9q-17 0 -28 -13t-5 -34l92 -208l145 278h7l172 -288l62 214q5 24 -5 37.5t-29 13.5h-7v10z" />
    <glyph glyph-name="Ygrave" unicode="&#x1ef2;" horiz-adv-x="729" 
d="M462 771l-7 -7q-35 4 -78.5 18.5t-83 33.5t-71.5 41q21 73 85 100q26 -23 54 -51t58 -66.5t43 -68.5zM526 700h249v-10h-14q-30 0 -57.5 -17t-43.5 -42l-196 -309v-249q0 -26 18.5 -44.5t45.5 -18.5h12v-10h-358v10h13q26 0 44.5 18t19.5 44v250l-191 311
q-7 11 -17.5 21.5t-23.5 18.5t-28 12.5t-30 4.5h-14v10h386v-10h-12q-22 0 -34 -20.5t-1 -41.5l137 -247l142 247q12 21 -1 41.5t-34 20.5h-12v10z" />
    <glyph glyph-name="ygrave" unicode="&#x1ef3;" horiz-adv-x="633" 
d="M400 671l-7 -7q-52 6 -117.5 33t-115.5 60q22 73 86 100q43 -37 89 -89.5t65 -96.5zM466 600h218v-10h-13q-26 0 -48.5 -13.5t-36.5 -33.5l-169 -264v-217q0 -22 16 -37t39 -15h11v-10h-328v10h12q22 0 38 15t16 37v216l-172 265q-14 20 -37 33.5t-48 13.5h-12v10h350
v-10h-10q-19 0 -29.5 -17t-0.5 -34l124 -210l121 210q10 17 -1 34t-29 17h-11v10z" />
    <glyph glyph-name="endash" unicode="&#x2013;" horiz-adv-x="500" 
d="M0 261v60h500v-60h-500z" />
    <glyph glyph-name="emdash" unicode="&#x2014;" horiz-adv-x="800" 
d="M0 261v60h800v-60h-800z" />
    <glyph glyph-name="quoteleft" unicode="&#x2018;" horiz-adv-x="278" 
d="M233 843l4 -15q-16 -7 -28 -20t-18.5 -31t-0.5 -41t27 -47q29 -33 25.5 -80.5t-35.5 -70.5q-37 -27 -86 -13.5t-69 58.5q-17 40 -17.5 79.5t17 75t43.5 62t62.5 38.5t75.5 5z" />
    <glyph glyph-name="quoteright" unicode="&#x2019;" horiz-adv-x="268" 
d="M45 541l-4 14q12 5 22 14t17 22t8.5 27.5t-5.5 32.5t-23 36q-28 33 -24.5 77.5t33.5 66.5q35 27 82 13.5t66 -55.5q16 -38 16.5 -75.5t-16 -72t-41 -59t-59.5 -36.5t-72 -5z" />
    <glyph glyph-name="quotesinglbase" unicode="&#x201a;" horiz-adv-x="278" 
d="M46 -141l-5 14q16 7 28 20.5t18.5 31t0.5 41t-27 46.5q-29 34 -25.5 81t35.5 70q37 28 86 14t70 -59q16 -39 16.5 -78.5t-17 -75.5t-43.5 -62t-62.5 -38t-74.5 -5z" />
    <glyph glyph-name="quotedblleft" unicode="&#x201c;" horiz-adv-x="528" 
d="M233 843l4 -15q-16 -7 -28 -20t-18.5 -31t-0.5 -41t27 -47q29 -33 25.5 -80.5t-35.5 -70.5q-37 -27 -86 -13.5t-69 58.5q-17 40 -17.5 79.5t17 75t43.5 62t62.5 38.5t75.5 5zM474 843l4 -15q-16 -7 -28 -20t-18.5 -31t-0.5 -41t27 -47q29 -33 25.5 -80.5t-35.5 -70.5
q-37 -27 -86 -13.5t-69 58.5q-17 40 -17.5 79.5t17 75t43.5 62t62.5 38.5t75.5 5z" />
    <glyph glyph-name="quotedblright" unicode="&#x201d;" horiz-adv-x="498" 
d="M45 541l-4 14q12 5 22 14t17 22t8.5 27.5t-5.5 32.5t-23 36q-28 33 -24.5 77.5t33.5 66.5q35 27 82 13.5t66 -55.5q16 -38 16.5 -75.5t-16 -72t-41 -59t-59.5 -36.5t-72 -5zM275 541l-4 14q12 5 22 14t17 22t8.5 27.5t-5.5 32.5t-23 36q-28 33 -24.5 77.5t33.5 66.5
q35 27 82 13.5t66 -55.5q14 -30 16 -63t-7 -62t-26.5 -54.5t-41 -42.5t-53 -24t-60.5 -2z" />
    <glyph glyph-name="quotedblbase" unicode="&#x201e;" horiz-adv-x="518" 
d="M46 -148l-5 14q16 7 28 20t18.5 31t0.5 41.5t-27 46.5q-29 34 -25.5 81t35.5 70q37 28 86 14t70 -59q16 -39 16.5 -78.5t-17 -75.5t-43.5 -62t-62.5 -38t-74.5 -5zM286 -148l-4 14q15 7 27.5 20t19 31t0 41.5t-27.5 46.5q-29 34 -25.5 81t35.5 70q37 28 86 14t70 -59
q16 -39 16.5 -78.5t-17 -75.5t-43 -62t-62.5 -38t-75 -5z" />
    <glyph glyph-name="dagger" unicode="&#x2020;" horiz-adv-x="477" 
d="M458 438l-24 -87l-126 43l-65 40l41 -63l42 -216l-82 -335h-10l-83 335l43 216l40 63l-65 -41l-125 -42l-24 87l24 88l125 -43l65 -39l-40 61l-43 185l89 24l86 -24l-42 -185l-40 -61l64 40l126 42z" />
    <glyph glyph-name="daggerdbl" unicode="&#x2021;" horiz-adv-x="478" 
d="M435 182l24 -87l-24 -88l-125 43l-65 40l40 -62l42 -185l-88 -24l-87 24l43 185l40 62l-65 -40l-125 -43l-24 88l24 87l125 -42l65 -40l-40 62l-43 105l42 104l40 63l-65 -41l-125 -42l-24 87l24 88l125 -43l65 -39l-40 61l-43 185l89 24l86 -24l-42 -185l-40 -61l64 40
l126 42l24 -88l-24 -87l-126 43l-65 40l41 -63l43 -104l-42 -105l-40 -62l65 40z" />
    <glyph glyph-name="bullet" unicode="&#x2022;" horiz-adv-x="389" 
d="M215 192q-20 -7 -40 0q-64 21 -82 39t-39 82q-7 20 0 40q21 64 39 82t82 39q20 7 40 0q64 -21 82 -39t39 -82q6 -20 -1 -43q-11 -34 -18 -49.5t-21 -29.5t-30 -21t-51 -18z" />
    <glyph glyph-name="ellipsis" unicode="&#x2026;" horiz-adv-x="740" 
d="M125 -14q-37 0 -63.5 26.5t-26.5 63.5t26.5 63.5t63.5 26.5t63.5 -26.5t26.5 -63.5t-26.5 -63.5t-63.5 -26.5zM370 -14q-37 0 -63.5 26.5t-26.5 63.5t26.5 63.5t63.5 26.5t63.5 -26.5t26.5 -63.5t-26.5 -63.5t-63.5 -26.5zM615 -14q-37 0 -63.5 26.5t-26.5 63.5
t26.5 63.5t63.5 26.5t63.5 -26.5t26.5 -63.5t-26.5 -63.5t-63.5 -26.5z" />
    <glyph glyph-name="perthousand" unicode="&#x2030;" horiz-adv-x="1167" 
d="M544 709l39 -17l-372 -711l-45 19l346 653q-46 -30 -104 -22q-22 3 -45 11q21 -43 14 -105q-9 -83 -64.5 -129.5t-146.5 -46.5q-80 0 -118 49t-25 137q12 79 66.5 123t139.5 44h1q36 0 64 -7t42.5 -15.5t34 -17t38.5 -9.5q16 -1 31.5 1.5t31 8t26 10.5t26 13t20.5 11z
M249 536q8 65 1.5 101.5t-25.5 36.5q-14 0 -26.5 -16t-22 -47t-15.5 -74q-9 -64 -3 -100t25 -36q24 1 41.5 36.5t24.5 98.5zM590 339q77 0 116 -47t32 -130t-63 -129.5t-148 -46.5q-80 0 -118 49t-25 137q12 79 66.5 123t139.5 44zM981 339q77 0 116 -47t32 -130t-63 -129.5
t-148 -46.5q-80 0 -118 49t-25 137q12 79 66.5 123t139.5 44zM604 161q7 65 0.5 101.5t-25.5 36.5q-21 0 -37.5 -36t-25.5 -101q-9 -64 -3.5 -100t24.5 -36q24 0 41.5 35.5t25.5 99.5zM995 161q7 65 0.5 101.5t-25.5 36.5q-21 0 -37.5 -36t-25.5 -101q-9 -64 -3.5 -100
t24.5 -36q24 0 41.5 35.5t25.5 99.5z" />
    <glyph glyph-name="guilsinglleft" unicode="&#x2039;" horiz-adv-x="333" 
d="M265 490l-225 -198l225 -204l9 7l-79 197l78 193z" />
    <glyph glyph-name="guilsinglright" unicode="&#x203a;" horiz-adv-x="333" 
d="M69 88l225 204l-225 198l-8 -5l78 -193l-79 -197z" />
    <glyph glyph-name="fraction" unicode="&#x2044;" 
d="M498 723l-478 -712l48 -31l477 711z" />
    <glyph glyph-name="Euro" unicode="&#x20ac;" horiz-adv-x="693" 
d="M667 214h9v-165q-29 -30 -96 -46t-133 -16q-142 0 -241 76t-127 201h-119l19 50h92q-1 18 -1 36q0 17 1 34h-111l18 50h100q18 82 67.5 145t128.5 99t176 36q67 0 135 -15t91 -44l-53 -155h-10q2 45 -10.5 78.5t-35 51.5t-47.5 26t-53 8q-78 0 -122.5 -59.5t-55.5 -170.5
h312l-18 -50h-298v-33v-37h275l-16 -50h-255q25 -227 192 -227q73 0 117 43.5t69 133.5z" />
    <glyph glyph-name="trademark" unicode="&#x2122;" horiz-adv-x="512" 
d="M207 643v2q0 19 -10.5 29.5t-29.5 10.5h-24v-164q0 -8 5 -13t13 -5h3v-3h-108v3h4q7 0 12 5t5 13v164h-24q-19 0 -29.5 -10.5t-10.5 -29.5v-2h-3v63q13 -5 34 -5h132q21 0 34 5v-63h-3zM498 503h5v-3h-90l-1 3v-3h-17v3h5q4 0 7 3.5t4 7.5l-12 77l-46 -64q-1 -3 -3.5 -6
t-6 -12t-2.5 -16h-3l-75 93l-9 -72q0 -4 3.5 -7.5t7.5 -3.5h4v-3h-64v3h5q16 0 20 15l27 187h2l100 -126l89 126h3l27 -186q4 -16 20 -16z" />
    <glyph glyph-name="partialdiff" unicode="&#x2202;" horiz-adv-x="647" 
d="M75 587l-9 7q35 70 107 100t156 21q139 -15 214.5 -120t68.5 -262t-87 -247.5t-226 -99.5q-68 -4 -122 13.5t-85 50t-47 74t-15 85.5t17 84q23 58 73 97.5t121.5 49.5t157.5 -30q-11 149 -84 199q-28 20 -69.5 28.5t-89.5 -3t-81 -47.5zM400 333v30q-122 29 -154 -132
q-9 -53 -5.5 -97t20 -72t38.5 -26q43 4 70 87t31 210z" />
    <glyph glyph-name="product" unicode="&#x220f;" horiz-adv-x="853" 
d="M819 -190v-10h-337l1 10h10q23 0 39 15.5t17 38.5v732q-1 22 -16.5 38t-37.5 16h-136q-22 0 -37.5 -15.5t-16.5 -37.5v-734q1 -22 17 -37.5t39 -15.5h10l1 -10h-337v10h11q23 0 39 15.5t16 38.5v772q0 15 -7.5 27.5t-20 19.5t-27.5 7h-11v10h784v-10h-11q-22 0 -38 -15.5
t-17 -37.5v-774q0 -22 16.5 -37.5t38.5 -15.5h11z" />
    <glyph glyph-name="summation" unicode="&#x2211;" horiz-adv-x="637" 
d="M608 175h10l-38 -356h-555v11l277 402l-271 458v10h425q20 0 45 3t45 7t29 8v-206l-10 1v7q0 60 -34 94.5t-94 35.5h-159l178 -306l-245 -350h203q68 5 120 52.5t74 128.5z" />
    <glyph glyph-name="minus" unicode="&#x2212;" horiz-adv-x="481" 
d="M40 277v65h402v-65h-402z" />
    <glyph glyph-name="radical" unicode="&#x221a;" horiz-adv-x="591" 
d="M23 378l-13 52l235 59l76 -257l209 611l55 -2l-327 -988l-174 540z" />
    <glyph glyph-name="infinity" unicode="&#x221e;" horiz-adv-x="633" 
d="M316 245q-17 -26 -40.5 -45.5t-53.5 -32t-60 -12.5q-56 0 -94.5 41t-37.5 101t39 101t93 41q41 0 82 -25t73 -64q31 39 72 64t82 25q55 0 93 -41t39 -101q1 -39 -16.5 -72t-48 -51.5t-67.5 -18.5q-45 0 -86 25.5t-69 64.5zM162 218q31 0 61.5 22.5t53.5 56.5
q-61 79 -115 79q-26 0 -46.5 -23.5t-20.5 -55.5q0 -16 5.5 -31t15 -25.5t21.5 -16.5t25 -6zM471 218q27 0 47 23.5t20 55.5t-20 55.5t-47 23.5q-54 0 -115 -79q55 -79 115 -79z" />
    <glyph glyph-name="integral" unicode="&#x222b;" horiz-adv-x="641" 
d="M436 792q18 2 41.5 2.5t64.5 -6t66 -23.5q28 -20 32.5 -50t-19.5 -54q-28 -21 -56 -15.5t-45 27.5q-9 10 -15 27t-12 26t-19 8q-15 -1 -22.5 -14.5t-9.5 -55.5q-20 -352 -27.5 -479t-8.5 -143q-4 -53 -18 -94t-33.5 -65.5t-46.5 -40.5t-52 -23t-56 -10q-117 -12 -169 29
q-15 11 -23.5 27.5t-7 36.5t17.5 36q25 24 54 20t47 -28q6 -9 11 -22t8 -21.5t10 -14.5t18 -5q13 1 19.5 16t8.5 54q7 124 15.5 270.5t13.5 231t7 120.5q2 50 16.5 90t34.5 65t47.5 42t53.5 25t54 11z" />
    <glyph glyph-name="approxequal" unicode="&#x2248;" horiz-adv-x="482" 
d="M68 330l-48 43q3 5 8.5 12t19 19.5t28.5 21.5t37 15t46 3q26 -3 60 -17.5t62.5 -28t42.5 -14.5q12 -1 23.5 2.5t27 14t20 13.5t22.5 18l45 -43q-1 -2 -5 -6q-15 -15 -25 -24t-29 -21.5t-41 -17t-46 -1.5q-30 4 -86 31t-78 29q-16 1 -31 -6t-22.5 -14t-30.5 -29zM68 160
l-48 43q3 5 8.5 12t19 19.5t28.5 21.5t37 15t46 3q33 -3 91.5 -31t73.5 -29q12 -1 23.5 2.5t27 14t20 13.5t22.5 18l45 -43q-1 -2 -5 -6q-15 -15 -25 -24t-29 -21.5t-41 -17t-46 -1.5q-30 4 -86 31t-78 29t-37 -7.5t-41 -35.5l-2 -2l-2 -2z" />
    <glyph glyph-name="notequal" unicode="&#x2260;" horiz-adv-x="481" 
d="M442 354h-122l-53 -110h175v-65h-206l-58 -121l-61 27l45 94h-122v65h153l53 110h-206v65h238l53 110l60 -28l-40 -82h91v-65z" />
    <glyph glyph-name="lessequal" unicode="&#x2264;" horiz-adv-x="501" 
d="M442 586v-71l-309 -145l309 -146v-71l-402 187v59zM40 33v65h402v-65h-402z" />
    <glyph glyph-name="greaterequal" unicode="&#x2265;" 
d="M40 586l402 -187v-59l-402 -187v71l309 146l-309 145v71zM40 33v65h402v-65h-402z" />
    <glyph glyph-name="lozenge" unicode="&#x25ca;" horiz-adv-x="510" 
d="M471 350l-222 364l-209 -364l209 -364zM106 350l144 255l154 -255l-154 -255z" />
    <glyph glyph-name="fi" unicode="&#xfb01;" horiz-adv-x="905" 
d="M21 600h390q25 0 56 5t43 10v-191h-10v6q0 38 -13.5 65.5t-40.5 42.5t-65 16h-101v-235h76q30 0 52.5 13.5t35 36.5t12.5 53v2h10v-258h-10v4q0 44 -27.5 73t-72.5 29h-76v-210q0 -14 7.5 -26.5t19 -19t26.5 -6.5h10v-10h-322v10h11q21 0 36.5 15t15.5 37v475
q0 23 -15.5 38t-36.5 15h-11v10zM821 538v-476q1 -22 16 -37t36 -15h11v-10h-321v10h11q21 0 36 15t15 37v476q0 11 -4.5 21t-11.5 16.5t-16 10.5t-19 4h-11v10h320v-10h-10q-14 0 -25.5 -6.5t-18.5 -18.5t-8 -27z" />
    <glyph glyph-name="fl" unicode="&#xfb02;" horiz-adv-x="1099" 
d="M21 600h390q25 0 56 5t43 10v-191h-10v6q0 38 -13.5 65.5t-40.5 42.5t-65 16h-101v-235h76q30 0 52.5 13.5t35 36.5t12.5 53v2h10v-258h-10v4q0 44 -27.5 73t-72.5 29h-76v-210q0 -14 7.5 -26.5t19 -19t26.5 -6.5h10v-10h-322v10h11q21 0 36.5 15t15.5 37v475
q0 23 -15.5 38t-36.5 15h-11v10zM1104 210l-29 -210h-2h-510v10h11q21 0 36.5 15t15.5 37v476q0 15 -7.5 27t-19 18.5t-25.5 6.5h-11v10h323v-10h-11q-15 0 -26.5 -6.5t-19 -18.5t-7.5 -27v-492h96q60 0 108.5 44t67.5 120h10z" />
    </font>
</defs>
</svg>
