<?xml version="1.0" standalone="no"?>
<!DOCTYPE svg PUBLIC "-//W3C//DTD SVG 1.1//EN" "http://www.w3.org/Graphics/SVG/1.1/DTD/svg11.dtd" >
<svg xmlns="http://www.w3.org/2000/svg" xmlns:xlink="http://www.w3.org/1999/xlink" version="1.1">
<metadata>
Created by FontForge 20161013 at Mon Oct 10 04:37:01 2011
 By ,,,
Toto 2011 [toto@ispx.com.ph + to22to@gmail.com] For personal use only.
</metadata>
<defs>
<font id="K22DidoniSwash" horiz-adv-x="586" >
  <font-face 
    font-family="K22 Didoni Swash"
    font-weight="400"
    font-stretch="normal"
    units-per-em="1000"
    panose-1="2 0 0 0 0 0 0 0 0 0"
    ascent="750"
    descent="-250"
    x-height="480"
    cap-height="700"
    bbox="-256 -396 1297 828"
    underline-thickness="50"
    underline-position="-200"
    unicode-range="U+0020-E019"
  />
<missing-glyph horiz-adv-x="0" 
 />
    <glyph glyph-name=".notdef" horiz-adv-x="0" 
 />
    <glyph glyph-name=".null" horiz-adv-x="0" 
 />
    <glyph glyph-name="nonmarkingreturn" horiz-adv-x="333" 
 />
    <glyph glyph-name="space" unicode=" " horiz-adv-x="350" 
 />
    <glyph glyph-name="exclam" unicode="!" horiz-adv-x="286" 
d="M43 91q0 41 29.5 70.5t70.5 29.5t70.5 -29.5t29.5 -70.5t-29.5 -70.5t-70.5 -29.5t-70.5 29.5t-29.5 70.5zM133 217v87q0 25 -24.5 68t-49.5 100.5t-25 116.5q0 49 35.5 85t73.5 36t73.5 -36t35.5 -85q0 -59 -24.5 -116t-49.5 -100.5t-25 -68.5v-87h-20z" />
    <glyph glyph-name="dollar" unicode="$" horiz-adv-x="587" 
d="M348 552q0 52 45 77q16 10 16 14t-18 13q-27 9 -55 12v-236q42 -17 61 -24.5t52 -23t48.5 -27.5t34 -29.5t25.5 -37.5t7 -43q0 -89 -64.5 -149t-163.5 -80v-83h-20v80q-33 -5 -60 -5v-75h-20v75q-92 4 -151 53t-59 112q0 41 29.5 70.5t70.5 29.5t70.5 -29.5t29.5 -70.5
q0 -50 -46 -84q-27 -19 -27 -34q0 -10 16 -15q36 -11 67 -12v259q-39 16 -56.5 24.5t-48.5 27.5t-45.5 37.5t-26.5 49t-12 68.5q0 47 54 106.5t135 79.5v68h20v-64q19 4 44 4q10 0 16 -1v61h20v-62q40 -5 79 -18.5t72.5 -45t33.5 -72.5q0 -35 -25.5 -60.5t-61.5 -25.5
q-35 0 -60.5 25.5t-25.5 60.5zM316 253q-23 12 -60 28v-251q35 0 60 5v218zM256 468q24 -13 60 -28v230q-3 0 -8.5 0.5t-7.5 0.5q-23 0 -44 -10v-193zM406 110q0 82 -70 130v-200q70 18 70 70zM186 562q0 -46 50 -81v170q-50 -32 -50 -89z" />
    <glyph glyph-name="ampersand" unicode="&#x26;" horiz-adv-x="854" 
d="M643 685q90 0 134 -41t44 -103q0 -76 -55.5 -142.5t-132.5 -70.5q48 -50 48 -122q0 -89 -75 -152.5t-225 -63.5q-87 0 -164 26t-128.5 81t-51.5 128q0 75 64 129t151 75q-108 36 -108 129q0 68 66.5 110t150.5 42q78 0 123 -37t45 -84q0 -44 -33 -68t-78 -24
q-43 0 -74 23t-31 64q0 62 70 62q23 0 44 -7v-20q-39 -3 -39 -40q0 -23 17 -35t41 -12q26 0 45.5 12.5t19.5 33.5q0 46 -38 79t-112 33q-64 0 -64 -137q0 -61 18.5 -92t77.5 -31q67 57 232 57q75 0 112.5 25.5t37.5 63.5q0 45 -44 68q-3 2 -6 2t-3 -3t1 -5q13 -32 13 -46
q0 -38 -27.5 -66t-65.5 -28t-66 28t-28 66t28 65.5t66 27.5zM592 200q0 -41 -29.5 -70.5t-70.5 -29.5q-79 0 -119 50.5t-40 123.5q0 76 38 132q-5 1 -14 1q-56 0 -86 -56.5t-30 -125.5q0 -76 53 -143.5t117 -67.5q110 0 177.5 61t67.5 135q0 59 -48.5 94t-111.5 35
q-55 0 -93 -28t-38 -79q0 -15 9 -43t20 -28q3 0 3 5q0 3 -1 5q-4 18 -4 29q0 41 29.5 70.5t70.5 29.5t70.5 -29.5t29.5 -70.5z" />
    <glyph glyph-name="period" unicode="." horiz-adv-x="266" 
d="M33 100q0 41 29.5 70.5t70.5 29.5t70.5 -29.5t29.5 -70.5t-29.5 -70.5t-70.5 -29.5t-70.5 29.5t-29.5 70.5z" />
    <glyph glyph-name="zero" unicode="0" 
d="M33 350q0 149 76 254.5t184 105.5t184 -105.5t76 -254.5t-76 -254.5t-184 -105.5t-184 105.5t-76 254.5zM223 350q0 -121 2.5 -185.5t11 -101t20.5 -45t36 -8.5t36 8.5t20.5 45t11 101t2.5 185.5t-2.5 185.5t-11 101t-20.5 45t-36 8.5t-36 -8.5t-20.5 -45t-11 -101
t-2.5 -185.5z" />
    <glyph glyph-name="one" unicode="1" horiz-adv-x="386" 
d="M16 20h20q34 0 47 13.5t13 46.5v460q0 14 -12.5 27t-27.5 13h-21v20q50 0 96 21.5t135 78.5h20v-620q0 -33 13 -46.5t47 -13.5h20v-20h-350v20z" />
    <glyph glyph-name="two" unicode="2" horiz-adv-x="608" 
d="M65 42q0 -7 -0.5 -16t-0.5 -16h-20q1 48 1 148q0 33 17 56t44 37t59.5 27t65.5 32t60 44.5t44 71.5t17 108q0 55 -38 97.5t-81 42.5q-37 0 -63 -23t-26 -63q0 -68 40 -68q22 0 51 20h20q30 -23 30 -59q0 -44 -40.5 -83t-90.5 -39q-48 0 -82.5 30.5t-34.5 86.5
q0 85 75.5 159.5t196.5 74.5q116 0 189.5 -61t73.5 -115q0 -55 -28 -98t-72.5 -69t-98.5 -46.5t-108.5 -36t-99 -31.5t-72.5 -40t-28 -55v-21q24 25 77.5 54t108.5 29q51 0 115.5 -15t84.5 -15q35 0 67 19t32 61h20v-100q0 -49 -63.5 -114.5t-128.5 -65.5q-49 0 -82.5 12
t-50 28.5t-29 33.5t-30 29t-43.5 12q-23 0 -50.5 -16t-27.5 -47z" />
    <glyph glyph-name="three" unicode="3" horiz-adv-x="572" 
d="M105 88q-14 4 -17 4q-9 0 -9 -6q0 -5 8 -16q47 -60 153 -60q64 0 88 56t24 150q0 81 -18 117.5t-68 36.5h-60v20h32q53 0 63.5 26t10.5 126q0 43 -1 63t-5.5 43.5t-15 32.5t-28.5 9q-54 0 -95 -26q-11 -8 -11 -10q0 -4 26 -4q39 0 66.5 -30t27.5 -70q0 -41 -29.5 -70.5
t-70.5 -29.5t-70.5 29.5t-29.5 70.5v4q0 67 56.5 111.5t129.5 44.5q90 0 161.5 -45t71.5 -118q0 -53 -35.5 -98.5t-100.5 -65.5q183 -29 183 -167q0 -57 -28 -102t-73.5 -71t-97 -39.5t-103.5 -13.5q-83 0 -146 47t-63 121q0 47 34.5 84.5t80.5 37.5q41 0 70.5 -29.5
t29.5 -70.5t-29.5 -70.5t-70.5 -29.5q-17 0 -41 8z" />
    <glyph glyph-name="four" unicode="4" horiz-adv-x="569" 
d="M165 20h20q34 0 47 13.5t13 46.5v140h-235l274 480h151v-440h43q27 0 37 9t10 31h20q0 -48 -13.5 -64t-53.5 -16h-43v-140q0 -33 13 -46.5t47 -13.5h20v-20h-350v20zM56 260h189v330z" />
    <glyph glyph-name="five" unicode="5" horiz-adv-x="563" 
d="M88 92q-9 0 -9 -6q0 -8 11 -20q53 -56 150 -56q34 0 55.5 19t31 55.5t12.5 70t3 81.5q0 76 -37.5 130.5t-89.5 54.5q-63 0 -116 -88l-2 -15q-19 2 -20 2l47 380h20q81 -17 139 -17q63 0 174 27h19v-29q0 -41 -45 -77.5t-98.5 -55t-90.5 -18.5h-119l-19 -151q64 75 183 75
q63 0 117.5 -23.5t91 -74.5t36.5 -120q0 -76 -46 -134t-111.5 -85t-134.5 -27q-83 0 -146 47t-63 121q0 47 33.5 84.5t77.5 37.5t74 -29t30 -71q0 -41 -29.5 -70.5t-70.5 -29.5q-11 0 -30 6t-28 6z" />
    <glyph glyph-name="six" unicode="6" horiz-adv-x="584" 
d="M511 580q0 -41 -29.5 -70.5t-70.5 -29.5t-70.5 29.5t-29.5 70.5q0 33 20.5 58.5t52.5 37.5q17 6 17 9q0 5 -16.5 8t-24.5 3q-27 0 -48 -12.5t-34 -29.5t-22.5 -46t-14 -52t-7 -57t-3 -51t-0.5 -44q49 46 100 46q105 0 162.5 -66t57.5 -155q0 -92 -74 -165.5t-186 -73.5
q-108 0 -184 105.5t-76 254.5q0 145 93 257.5t197 112.5q77 0 133.5 -35.5t56.5 -104.5zM291 10q80 0 80 205q0 112 -12 163.5t-40 51.5q-38 0 -88 -53q0 -219 10 -293t50 -74z" />
    <glyph glyph-name="seven" unicode="7" horiz-adv-x="489" 
d="M55 670q22 0 77.5 20t80.5 20q53 0 111 -21.5t74 -21.5q28 0 52 23h20q3 -22 3 -42q0 -51 -21 -99t-51.5 -91t-60.5 -92t-51 -124t-21 -166q0 -30 11 -76h-210q-11 44 -11 76q0 65 31 121.5t79 100t98.5 84t97.5 92t68 106.5q-67 -53 -144 -53q-33 0 -84.5 13t-68.5 13
q-70 0 -74 -86l-1 -22h-20z" />
    <glyph glyph-name="eight" unicode="8" 
d="M172 332q-97 69 -97 172q0 84 66 145t170 61q91 0 141.5 -41.5t50.5 -98.5q0 -42 -29.5 -78.5t-83.5 -53.5q80 -22 122 -81.5t42 -132.5q0 -94 -66.5 -164t-182.5 -70q-123 0 -199 57.5t-76 132.5q0 48 36 89t106 63zM406 128q0 30 -9.5 54.5t-23 40.5t-37 31t-42 23
t-49 21t-47.5 21q-36 -66 -36 -141q0 -73 38 -120.5t105 -47.5q43 0 72 30t29 88zM226 591q0 -26 8 -47t18.5 -34t32.5 -25.5t37.5 -19t46.5 -18.5q26 52 26 120q0 54 -22 88.5t-72 34.5q-31 0 -53 -27.5t-22 -71.5z" />
    <glyph glyph-name="nine" unicode="9" 
d="M46 135q0 41 29.5 70.5t70.5 29.5t70.5 -29.5t29.5 -70.5q0 -59 -52 -88q-27 -15 -27 -19q0 -6 19 -10t29 -4q30 1 53 14t37 37.5t22.5 49.5t12.5 62.5t5 64t1 65.5q-35 -47 -80 -47q-106 0 -163 61.5t-57 149.5q0 95 64.5 167t175.5 72q108 0 184 -105.5t76 -254.5
t-76 -254.5t-184 -105.5q-240 0 -240 145zM346 357q0 201 -9.5 267t-50.5 66q-35 0 -47.5 -46t-12.5 -159q0 -109 9.5 -157t36.5 -48q24 0 49 24t25 53z" />
    <glyph glyph-name="A" unicode="A" horiz-adv-x="700" 
d="M194 275l-28 -92q-8 -24 -8 -50q0 -51 32 -82t65 -31h20v-20h-260v20h20q18 0 40 25t35 47.5t14 27.5l180 580h160q17 -48 41 -129.5t45 -160t50 -172.5t57.5 -174.5t66 -158.5t77 -133t89.5 -88.5t104 -33.5q29 0 57.5 17.5t28.5 43.5q0 20 -17 20q-41 0 -70.5 29.5
t-29.5 70.5t29.5 70.5t70.5 29.5t70.5 -29.5t29.5 -70.5q0 -61 -22.5 -106t-61.5 -71t-86 -38t-102 -12q-51 0 -96 11t-82 29.5t-71 50.5t-60.5 64.5t-52.5 81.5t-45.5 92.5t-41 105.5t-37 113.5t-36.5 122.5h-175zM284 568l-84 -273h163q-48 168 -79 273z" />
    <glyph glyph-name="B" unicode="B" horiz-adv-x="1090" 
d="M376 20h20q34 0 47 13.5t13 46.5v540q0 33 -13 46.5t-47 13.5h-58q-116 0 -179.5 -71t-63.5 -162q0 -68 36 -115t99 -47q12 0 24.5 3t19.5 6.5t7 5.5t-5 2q-41 0 -70.5 29.5t-29.5 70.5t29.5 70.5t70.5 29.5t70.5 -29.5t29.5 -70.5q0 -64 -42.5 -105.5t-103.5 -41.5
q-94 0 -146.5 60.5t-52.5 167.5q0 87 68 152t182 65h499q106 0 165.5 -50t59.5 -118q0 -50 -34 -92.5t-96 -61.5q85 -18 133 -72.5t48 -119.5q0 -77 -66 -131.5t-190 -54.5h-424v20zM726 20h29q40 0 50.5 38.5t10.5 133.5q0 82 -25 127.5t-69 45.5h-56v-285q0 -33 13 -46.5
t47 -13.5zM720 680h-54v-295h54q72 0 72 148q0 147 -72 147z" />
    <glyph glyph-name="C" unicode="C" horiz-adv-x="727" 
d="M620 404q-20 134 -75.5 210t-164.5 76q-120 0 -120 -340q0 -339 150 -339q119 0 189.5 65.5t70.5 165.5q0 31 -12 31q-6 0 -9 -13q-9 -37 -36 -61t-63 -24q-41 0 -70.5 29.5t-29.5 70.5t29.5 70.5t70.5 29.5h4q59 0 97.5 -37.5t38.5 -97.5q0 -13 -1 -25.5t-7 -39.5
t-17 -49t-34.5 -48.5t-55 -44.5t-82 -30.5t-113.5 -12.5q-142 0 -241.5 105.5t-99.5 254.5q0 150 99 255t240 105q56 0 100.5 -11.5t70.5 -23t36 -11.5q20 0 36 36h20v-296h-21z" />
    <glyph glyph-name="D" unicode="D" horiz-adv-x="1093" 
d="M376 20h20q34 0 47 13.5t13 46.5v540q0 33 -13 46.5t-47 13.5h-58q-116 0 -179.5 -71t-63.5 -162q0 -68 36 -115t99 -47q12 0 24.5 3t19.5 6.5t7 5.5t-5 2q-41 0 -70.5 29.5t-29.5 70.5t29.5 70.5t70.5 29.5t70.5 -29.5t29.5 -70.5q0 -64 -42.5 -105.5t-103.5 -41.5
q-94 0 -146.5 60.5t-52.5 167.5q0 87 68 152t182 65h437q143 0 242.5 -101t99.5 -249t-99.5 -249t-242.5 -101h-342v20zM727 680h-61v-600q0 -33 13 -46.5t47 -13.5q28 0 47.5 8t31.5 31t19 43t10 67t3.5 79t0.5 102t-0.5 102t-3.5 79t-10 67t-19 43t-31.5 31t-46.5 8z" />
    <glyph glyph-name="E" unicode="E" horiz-adv-x="1047" 
d="M376 20h20q34 0 47 13.5t13 46.5v540q0 33 -13 46.5t-47 13.5h-58q-116 0 -179.5 -71t-63.5 -162q0 -68 36 -115t99 -47q12 0 24.5 3t19.5 6.5t7 5.5t-5 2q-41 0 -70.5 29.5t-29.5 70.5t29.5 70.5t70.5 29.5t70.5 -29.5t29.5 -70.5q0 -64 -42.5 -105.5t-103.5 -41.5
q-94 0 -146.5 60.5t-52.5 167.5q0 87 68 152t182 65h680v-258h-20q-1 73 -66 155.5t-139 82.5h-70v-290h22q51 0 96.5 47.5t46.5 82.5h20v-300h-20q-1 35 -46.5 82.5t-96.5 47.5h-22v-330h100q49 0 98 51.5t77.5 116.5t29.5 112h20v-300h-615v20z" />
    <glyph glyph-name="F" unicode="F" horiz-adv-x="619" 
d="M467 220q-1 39 -32 84.5t-81 45.5h-22v-380q0 -85 -57 -158.5t-139 -113t-161 -39.5q-80 0 -130.5 45.5t-50.5 137.5q0 41 29.5 70.5t70.5 29.5t70.5 -29.5t29.5 -70.5t-29.5 -70.5t-70.5 -29.5q-27 0 -27 -15q0 -18 25 -28q28 -12 80 -12q37 0 67 30.5t47.5 76.5
t26.5 94.5t9 91.5v640q0 33 -13 46.5t-47 13.5h-30v20h565v-258h-20q-1 73 -66 155.5t-139 82.5h-40v-290h22q50 0 81 45.5t32 84.5h20v-300h-20z" />
    <glyph glyph-name="G" unicode="G" horiz-adv-x="801" 
d="M754 340q-35 -4 -47.5 -16t-12.5 -44v-330q0 -85 -62.5 -157t-153.5 -110t-183 -38q-104 0 -171.5 54t-67.5 163q0 41 29.5 70.5t70.5 29.5t70.5 -29.5t29.5 -70.5t-30 -70.5t-73 -29.5q-33 0 -33 -16q0 -12 16 -26q46 -45 139 -45q62 0 112 47.5t73.5 109t23.5 118.5v72
q-43 -32 -109 -32q-142 0 -241.5 105.5t-99.5 254.5q0 150 99 255t240 105q56 0 102 -11t73.5 -22.5t38.5 -11.5q21 0 37 35h20v-260q0 -4 1 -6h-21q-19 126 -77.5 191t-171.5 65q-27 0 -47 -9.5t-33.5 -31t-21.5 -47t-12 -68.5t-5 -82.5t-1 -101.5t1 -101.5t5 -82.5
t12 -68.5t21.5 -47t33.5 -31t47 -9.5q56 0 82.5 18.5t26.5 46.5v205q0 33 -13 46.5t-47 13.5h-20v20h370v-20h-20z" />
    <glyph glyph-name="H" unicode="H" horiz-adv-x="1182" 
d="M376 20h20q34 0 47 13.5t13 46.5v540q0 33 -13 46.5t-47 13.5h-58q-116 0 -179.5 -71t-63.5 -162q0 -68 36 -115t99 -47q9 0 21.5 3t21 7t8.5 6q0 1 -5 1q-41 0 -70.5 29.5t-29.5 70.5t29.5 70.5t70.5 29.5t70.5 -29.5t29.5 -70.5q0 -64 -42.5 -105.5t-103.5 -41.5
q-94 0 -146.5 60.5t-52.5 167.5q0 87 68 152t182 65h465v-20h-20q-34 0 -47 -13.5t-13 -46.5v-235h190v235q0 33 -13 46.5t-47 13.5h-20v20h370v-20h-20q-34 0 -47 -13.5t-13 -46.5v-540q0 -33 13 -46.5t47 -13.5h20v-20h-370v20h20q34 0 47 13.5t13 46.5v285h-190v-285
q0 -33 13 -46.5t47 -13.5h20v-20h-370v20z" />
    <glyph glyph-name="I" unicode="I" horiz-adv-x="771" 
d="M376 20h20q34 0 47 13.5t13 46.5v540q0 33 -13 46.5t-47 13.5h-58q-116 0 -179.5 -71t-63.5 -162q0 -68 36 -115t99 -47q12 0 24.5 3t19.5 6.5t7 5.5t-5 2q-41 0 -70.5 29.5t-29.5 70.5t29.5 70.5t70.5 29.5t70.5 -29.5t29.5 -70.5q0 -10 -1 -15q-6 -63 -47 -97.5
t-98 -34.5q-94 0 -146.5 60.5t-52.5 167.5q0 87 68 152t182 65h465v-20h-20q-34 0 -47 -13.5t-13 -46.5v-540q0 -33 13 -46.5t47 -13.5h20v-20h-370v20z" />
    <glyph glyph-name="J" unicode="J" horiz-adv-x="773" 
d="M179 402q0 41 29.5 70.5t70.5 29.5t70.5 -29.5t29.5 -70.5q0 -61 -41 -104t-105 -43q-94 0 -146.5 60.5t-52.5 167.5q0 87 68 152t182 65h465v-20h-20q-34 0 -47 -13.5t-13 -46.5v-670q0 -85 -62.5 -157t-153.5 -110t-183 -38q-104 0 -171.5 54t-67.5 163q0 41 29.5 70.5
t70.5 29.5t70.5 -29.5t29.5 -70.5t-30 -70.5t-73 -29.5q-32 0 -32 -16q0 -12 15 -26q46 -45 139 -45q62 0 112 47.5t73.5 109t23.5 118.5v670q0 33 -13 46.5t-47 13.5h-58q-116 0 -179.5 -71t-63.5 -162q0 -68 36 -115t99 -47q12 0 24.5 3t19.5 6.5t7 5.5t-5 2
q-41 0 -70.5 29.5t-29.5 70.5z" />
    <glyph glyph-name="K" unicode="K" horiz-adv-x="735" 
d="M313 406l180 186q11 11 11 29q0 22 -14 40.5t-35 18.5h-22v20h280v-20h-20q-88 0 -166 -82l-83 -86q56 -110 110 -207.5t129 -214t142.5 -198.5t144 -138t140.5 -56q68 0 98 38q11 12 11 21q0 14 -44 14h-4q-41 0 -70.5 29.5t-29.5 70.5t29.5 70.5t70.5 29.5t70.5 -29.5
t29.5 -70.5q0 -117 -77.5 -177t-194.5 -60q-69 0 -132 21t-109 42.5t-103.5 85.5t-86 96t-88 132t-79 135.5t-85.5 160.5q-2 3 -3 5v-232q0 -33 13 -46.5t47 -13.5h20v-20h-370v20h20q34 0 47 13.5t13 46.5v540q0 33 -13 46.5t-47 13.5h-20v20h370v-20h-20q-34 0 -47 -13.5
t-13 -46.5v-214z" />
    <glyph glyph-name="L" unicode="L" horiz-adv-x="973" 
d="M376 20h20q34 0 47 13.5t13 46.5v540q0 33 -13 46.5t-47 13.5h-58q-116 0 -179.5 -71t-63.5 -162q0 -68 36 -115t99 -47q12 0 24.5 3t19.5 6.5t7 5.5t-5 2q-41 0 -70.5 29.5t-29.5 70.5t29.5 70.5t70.5 29.5t70.5 -29.5t29.5 -70.5q0 -64 -42.5 -105.5t-103.5 -41.5
q-94 0 -146.5 60.5t-52.5 167.5q0 87 68 152t182 65h465v-20h-20q-34 0 -47 -13.5t-13 -46.5v-600h60q48 0 97.5 54t78 121.5t29.5 114.5h20v-310h-575v20z" />
    <glyph glyph-name="M" unicode="M" horiz-adv-x="877" 
d="M42 700h274l138 -426l110 426h278v-20h-20q-34 0 -47 -13.5t-13 -46.5v-530q0 -74 10.5 -140t34 -126.5t67.5 -96.5t104 -36q71 0 114 17q16 7 27.5 19.5t11.5 23.5q0 16 -25 16q-41 0 -70.5 29.5t-29.5 70.5t29.5 70.5t70.5 29.5t70.5 -29.5t29.5 -70.5
q0 -103 -62.5 -154.5t-165.5 -51.5q-121 0 -205.5 30t-132 88.5t-68 134t-20.5 176.5v484l-148 -574h-81l-181 558v-408q0 -12 4.5 -32t13 -43t25 -39t37.5 -16h20v-20h-220v20h20q39 0 59.5 39.5t20.5 70.5v490q0 20 -19.5 40t-40.5 20h-20v20z" />
    <glyph glyph-name="N" unicode="N" horiz-adv-x="734" 
d="M582 192v358q0 12 -4.5 32t-13 43t-25 39t-37.5 16h-20v20h220v-20h-20q-39 0 -59.5 -39.5t-20.5 -70.5v-416q55 -102 102 -176t103.5 -143t115.5 -105t118 -36q62 0 98 38q10 14 10 22q0 13 -47 13q-41 0 -70.5 29.5t-29.5 70.5t29.5 70.5t70.5 29.5t70.5 -29.5
t29.5 -70.5q0 -117 -77.5 -177t-194.5 -60q-63 0 -119 15t-101.5 42t-88 68.5t-78 89.5t-72 110.5t-69.5 125.5t-72 140q-47 93 -72 142l-116 223v-436q0 -12 4.5 -32t13 -43t25 -39t37.5 -16h20v-20h-220v20h20q39 0 59.5 39.5t20.5 70.5v490q0 33 -13 46.5t-47 13.5h-20
v20h279l182 -355q52 -102 79 -153z" />
    <glyph glyph-name="O" unicode="O" horiz-adv-x="749" 
d="M33 350q0 149 99.5 254.5t241.5 105.5t242 -105.5t100 -254.5t-100 -254.5t-242 -105.5t-241.5 105.5t-99.5 254.5zM273 512q0 41 29.5 70.5t70.5 29.5t70.5 -29.5t29.5 -70.5t-29.5 -70.5t-70.5 -29.5q-89 0 -120 54v-336q0 -57 35 -88.5t86 -31.5t86.5 31.5t35.5 88.5
v440q0 57 -35.5 88.5t-86.5 31.5q-48 0 -84.5 -28t-36.5 -88v-42q0 -11 5.5 -19t10.5 -8q4 0 4 7z" />
    <glyph glyph-name="P" unicode="P" horiz-adv-x="652" 
d="M53 680h-20v20h318q141 0 212.5 -57t71.5 -147t-71.5 -147.5t-212.5 -57.5h-28v-301q0 -85 -57 -158.5t-139 -113t-161 -39.5q-80 0 -130.5 45.5t-50.5 137.5q0 41 29.5 70.5t70.5 29.5t70.5 -29.5t29.5 -70.5t-29.5 -70.5t-70.5 -29.5q-27 0 -27 -15q0 -18 25 -28
q28 -12 80 -12q37 0 67 30.5t47.5 76.5t26.5 94.5t9 91.5v620q0 33 -13 46.5t-47 13.5zM351 311q44 0 56 40.5t12 144.5t-12 144t-56 40h-28v-351q0 -18 28 -18z" />
    <glyph glyph-name="Q" unicode="Q" horiz-adv-x="749" 
d="M900 -302q68 0 98 38q11 12 11 21q0 14 -48 14q-41 0 -70.5 29.5t-29.5 70.5t29.5 70.5t70.5 29.5t70.5 -29.5t29.5 -70.5q0 -117 -77.5 -177t-194.5 -60q-86 0 -152.5 19.5t-109 51t-71.5 79t-43 97t-20 110.5q-6 -1 -19 -1q-142 0 -241.5 105.5t-99.5 254.5t99.5 254.5
t241.5 105.5t242 -105.5t100 -254.5q0 -109 -56 -197.5t-148 -131.5q35 -51 54.5 -78.5t54.5 -72t63 -69.5t64 -52t74 -39t78 -12zM263 108q6 5 21 26.5t31.5 31.5t43.5 10q26 0 54 -27.5t67 -81.5q16 27 16 63v440q0 57 -35.5 88.5t-86.5 31.5q-48 0 -84.5 -28t-36.5 -88
v-427q0 -7 0.5 -13t1.5 -12.5t3 -10t5 -3.5zM374 10q11 0 17 1q-3 34 -3 105q0 33 -26 33q-48 0 -84 -57q-7 -12 -7 -23q0 -28 36.5 -43.5t66.5 -15.5z" />
    <glyph glyph-name="R" unicode="R" horiz-adv-x="686" 
d="M25 20h20q34 0 47 13.5t13 46.5v540q0 33 -13 46.5t-47 13.5h-20v20h364q124 0 194 -45.5t70 -126.5q0 -62 -40.5 -104t-116.5 -59q79 -14 110 -47.5t31 -92.5v-4.5t-0.5 -12t-0.5 -22v-39v-57.5q0 -74 10.5 -140t34 -126.5t67.5 -96.5t104 -36q71 0 114 17
q16 7 27.5 19.5t11.5 23.5q0 16 -25 16q-41 0 -70.5 29.5t-29.5 70.5t29.5 70.5t70.5 29.5t70.5 -29.5t29.5 -70.5q0 -103 -62.5 -154.5t-165.5 -51.5q-121 0 -205.5 30t-132 88.5t-68 134t-20.5 176.5v100q1 101 1 105q0 21 -18.5 40.5t-49.5 19.5h-44v-275q0 -33 13 -46.5
t47 -13.5h20v-20h-370v20zM443 528q0 34 -1 53.5t-5 41t-12 32.5t-21.5 18t-34.5 7h-54v-305h54q26 0 41 9t22 31.5t9 46t2 66.5z" />
    <glyph glyph-name="S" unicode="S" horiz-adv-x="676" 
d="M444 779q0 20 14 34.5t34 14.5q25 0 42.5 -8t27 -20t15 -30.5t6.5 -33.5t1 -36v-250h-20q-4 89 -75 164.5t-137 75.5q-35 0 -56.5 -28t-21.5 -86q0 -32 20.5 -55t53 -36.5t71.5 -25.5t78 -27.5t71.5 -37.5t53 -60.5t20.5 -91.5q0 -114 -104 -183t-237 -69
q-116 0 -196.5 57t-80.5 165q0 41 29.5 70.5t70.5 29.5t70.5 -29.5t29.5 -70.5t-29.5 -70.5t-70.5 -29.5q-39 0 -39 -12q0 -6 13 -21q65 -69 203 -69q40 0 74.5 7t61.5 27.5t27 52.5q0 46 -21 80t-54.5 55t-74 38t-81 36t-74 42.5t-54.5 63.5t-21 94q0 62 78.5 133t189.5 71
q26 0 76 -20.5t79 -20.5q56 0 56 50q0 19 -4 34q-5 15 -12 15q-6 0 -10 -8q-16 -29 -45 -29q-20 0 -34 14t-14 34z" />
    <glyph glyph-name="T" unicode="T" horiz-adv-x="915" 
d="M746 20v-20h-370v20h20q34 0 47 13.5t13 46.5v600h-118q-116 0 -179.5 -71t-63.5 -162q0 -68 36 -115t99 -47q12 0 24.5 3t19.5 6.5t7 5.5t-5 2q-41 0 -70.5 29.5t-29.5 70.5t29.5 70.5t70.5 29.5t70.5 -29.5t29.5 -70.5q0 -64 -42.5 -105.5t-103.5 -41.5
q-94 0 -146.5 60.5t-52.5 167.5q0 87 68 152t182 65h605v-288h-20q0 44 -27.5 108t-67.5 112t-70 48h-35v-600q0 -33 13 -46.5t47 -13.5h20z" />
    <glyph glyph-name="U" unicode="U" horiz-adv-x="1071" 
d="M176 402q0 41 29.5 70.5t70.5 29.5t70.5 -29.5t29.5 -70.5q0 -64 -42.5 -105.5t-103.5 -41.5q-94 0 -146.5 60.5t-52.5 167.5q0 87 68 152t182 65h464v-20h-20q-34 0 -47 -13.5t-13 -46.5v-441q0 -132 138 -132q51 0 86.5 34t35.5 99v370q0 12 -4.5 32t-13 43t-25 39
t-37.5 16h-20v20h220v-20h-20q-39 0 -59.5 -39.5t-20.5 -70.5v-390q0 -47 -14.5 -80.5t-36 -52.5t-56 -30t-65.5 -14t-73 -3q-100 0 -172.5 47t-72.5 132v441q0 33 -13 46.5t-47 13.5h-57q-116 0 -179.5 -71t-63.5 -162q0 -68 36 -115t99 -47h8q9 0 19.5 3t17 6.5t6.5 5.5
t-5 2q-41 0 -70.5 29.5t-29.5 70.5z" />
    <glyph glyph-name="V" unicode="V" horiz-adv-x="1067" 
d="M176 402q0 41 29.5 70.5t70.5 29.5t70.5 -29.5t29.5 -70.5q0 -64 -42.5 -105.5t-103.5 -41.5q-94 0 -146.5 60.5t-52.5 167.5q0 87 68 152t182 65h449v-20h-20q-63 0 -63 -40q0 -8 3 -17l142 -471l117 390q7 24 7 44q0 48 -33.5 71t-71.5 23h-20v20h260v-20h-20
q-60 0 -87 -90l-177 -590h-148l-182 605q-23 75 -81 75h-18q-116 0 -179.5 -71t-63.5 -162q0 -68 36 -115t99 -47q12 0 24.5 3t19.5 6.5t7 5.5t-5 2q-41 0 -70.5 29.5t-29.5 70.5z" />
    <glyph glyph-name="W" unicode="W" horiz-adv-x="1322" 
d="M176 402q0 41 29.5 70.5t70.5 29.5t70.5 -29.5t29.5 -70.5q0 -64 -42.5 -105.5t-103.5 -41.5q-94 0 -146.5 60.5t-52.5 167.5q0 87 68 152t182 65h403v-20q-25 0 -25 -32q0 -13 4 -29l97 -387l58 224l-40 155q-6 25 -10.5 37t-15 22t-26.5 10v20h303v-20h-20
q-20 0 -20 -31q0 -14 4 -30l97 -387l80 310q7 25 7 50q0 41 -18 64.5t-42 23.5h-20v20h200v-20h-20q-49 0 -81 -122l-144 -558h-117l-106 415l-107 -415h-117l-156 605q-7 29 -11 40.5t-14.5 23t-27.5 11.5h-58q-116 0 -179.5 -71t-63.5 -162q0 -68 36 -115t99 -47
q12 0 24.5 3t19.5 6.5t7 5.5t-5 2q-41 0 -70.5 29.5t-29.5 70.5z" />
    <glyph glyph-name="X" unicode="X" horiz-adv-x="734" 
d="M37 680h-20v20h380v-20h-28q-37 0 -37 -27q0 -13 12 -33l114 -185l38 70q26 47 26 94q0 36 -15.5 58.5t-38.5 22.5h-20v20h250v-20h-20q-32 0 -73 -47t-64 -89l-70 -129q40 -64 61.5 -98.5t62 -98t66 -101t64.5 -93.5t67.5 -90t64.5 -77t65.5 -68.5t61 -49.5t60.5 -34.5
t56 -10.5q31 0 70 15.5t39 43.5q0 14 -44 14q-41 0 -72.5 28.5t-31.5 71.5q0 41 29.5 70.5t70.5 29.5t70.5 -29.5t29.5 -70.5q0 -112 -75.5 -174.5t-196.5 -62.5q-63 0 -123 19.5t-109 48.5t-102.5 83t-93 103t-92 130t-88 141.5t-91.5 159.5l-66 -122q-19 -34 -19 -72
q0 -43 26 -72t62 -29h20v-20h-290v20h20q32 0 73 47t65 91l97 178l-174 284q-4 5 -13.5 18.5t-13 18t-10.5 11.5t-14 9.5t-16 2.5z" />
    <glyph glyph-name="Y" unicode="Y" horiz-adv-x="739" 
d="M19 680v20h380v-20h-28q-38 0 -38 -28q0 -13 10 -29l127 -206l48 88q26 47 26 94q0 36 -15.5 58.5t-38.5 22.5h-20v20h250v-20h-20q-32 0 -73.5 -47.5t-64.5 -89.5l-78 -144v-309q0 -74 10.5 -140t34 -126.5t67.5 -96.5t104 -36q71 0 113 17q17 7 28.5 19.5t11.5 23.5
q0 16 -25 16q-41 0 -70.5 29.5t-29.5 70.5t29.5 70.5t70.5 29.5t70.5 -29.5t29.5 -70.5q0 -100 -61.5 -153t-166.5 -53q-121 0 -205.5 30t-132 88.5t-68 134t-20.5 176.5v257q-18 29 -54.5 92t-62.5 105t-51 76q-4 6 -13 18.5t-13 17.5t-11 12t-14 9.5t-16 2.5h-20z" />
    <glyph glyph-name="Z" unicode="Z" horiz-adv-x="895" 
d="M176 402q0 41 29.5 70.5t70.5 29.5t70.5 -29.5t29.5 -70.5q0 -64 -42.5 -105.5t-103.5 -41.5q-94 0 -146.5 60.5t-52.5 167.5q0 87 68 152t182 65h551v-20l-313 -660h87q49 0 103 56.5t87.5 127t34.5 116.5h20v-320h-565v20l312 660h-260q-116 0 -179.5 -71t-63.5 -162
q0 -68 36 -115t99 -47q12 0 24.5 3t19.5 6.5t7 5.5t-5 2q-41 0 -70.5 29.5t-29.5 70.5z" />
    <glyph glyph-name="a" unicode="a" horiz-adv-x="497" 
d="M206 71q0 -13 8.5 -23.5t20.5 -10.5q16 0 31.5 20.5t15.5 51.5v187q-14 -18 -35.5 -36t-29.5 -34.5t-10 -53.5q-1 -11 -1 -101zM282 20v25q-55 -55 -131 -55q-65 0 -100 35.5t-35 85.5q0 53 38 93t104 40q42 0 83 36t41 73v66q0 47 -70 47q-25 0 -37 -4q-13 -4 -13 -10
q0 -1 2 -3q73 -32 73 -88q0 -37 -26.5 -63.5t-63.5 -26.5q-38 0 -64 26.5t-26 66.5q0 62 55 94t135 32q62 0 107.5 -11.5t67 -29t31 -32.5t9.5 -27v-370q0 -135 43 -200t148 -65q16 0 32.5 10t16.5 17q0 5 -10 5q-38 0 -64 26.5t-26 63.5t26 63.5t64 26.5t64 -26.5t26 -63.5
q0 -156 -214 -156q-69 0 -125 25.5t-90 68.5t-52.5 95.5t-18.5 109.5z" />
    <glyph glyph-name="b" unicode="b" horiz-adv-x="542" 
d="M18 680v20h240v-271q44 61 136 61q46 0 78 -32.5t44 -69.5t12 -70v-116q0 -86 -57.5 -149t-155.5 -63q-33 0 -57 14q-6 -116 -81 -199.5t-205 -83.5q-214 0 -214 156q0 37 26 63.5t64 26.5t64 -26.5t26 -63.5t-26 -63.5t-64 -26.5q-10 0 -10 -5q0 -7 16.5 -17t32.5 -10
q105 0 148 65t43 200v620q0 14 -12.5 27t-27.5 13h-20zM321 448q-22 0 -42.5 -30.5t-20.5 -86.5v-271q0 -15 13 -32.5t27 -17.5q9 0 15 2t15.5 10t14.5 30.5t5 57.5v300q0 18 -7.5 28t-19.5 10z" />
    <glyph glyph-name="c" unicode="c" horiz-adv-x="517" 
d="M465 480v46q0 28 -12.5 44t-28.5 16q-9 0 -9 -3q0 -2 4 -4q31 -10 31 -39q0 -16 -12 -28t-28 -12t-28 12t-12 28q0 31 16 48.5t38 17.5q25 0 43 -21t18 -59v-226h-20q-16 41 -26.5 63t-29.5 51.5t-44 43t-57 13.5q-42 0 -68.5 -27t-26.5 -84v-260q0 -47 27.5 -68.5
t52.5 -21.5q35 0 68.5 16t51.5 45q3 5 3 11q0 10 -12 10q-4 0 -9.5 -0.5t-7.5 -0.5q-37 0 -63.5 26.5t-26.5 63.5t26.5 63.5t63.5 26.5t63.5 -26.5t26.5 -63.5q0 -26 -10.5 -56t-32.5 -61.5t-65.5 -52.5t-100.5 -21q-110 0 -182.5 72.5t-72.5 177.5q0 118 83.5 184t188.5 66
q68 0 111 -18q29 -11 46 -11q23 0 23 19z" />
    <glyph glyph-name="d" unicode="d" horiz-adv-x="502" 
d="M227 680v20h240v-680q0 -135 43 -200t148 -65q16 0 32.5 10t16.5 17q0 5 -10 5q-37 0 -63.5 26.5t-26.5 63.5t26.5 63.5t63.5 26.5t63.5 -26.5t26.5 -63.5q0 -156 -214 -156q-69 0 -125 25.5t-90 68.5t-52.5 95.5t-18.5 109.5v50q-25 -80 -90 -80q-90 0 -136.5 62
t-46.5 150q0 128 49.5 208t124.5 80q66 0 99 -42v192q0 14 -12.5 27t-27.5 13h-20zM241 448q-47 0 -47 -138v-200q0 -82 30 -82q20 0 41.5 37t21.5 84v194q0 51 -13.5 78t-32.5 27z" />
    <glyph glyph-name="e" unicode="e" horiz-adv-x="517" 
d="M295 150q0 38 26.5 64t63.5 26q38 0 64 -26.5t26 -66.5q0 -65 -61.5 -111t-133.5 -46q-110 0 -182.5 72.5t-72.5 177.5q0 104 73 177t177 73q103 0 159 -60t56 -180h-265v-150q0 -47 27.5 -68.5t52.5 -21.5q32 0 55 13q41 23 41 32q0 5 -16 5q-37 0 -63.5 26t-26.5 64z
M225 380v-110h80v110q0 57 -6.5 73.5t-23.5 16.5q-19 0 -34.5 -21.5t-15.5 -68.5z" />
    <glyph glyph-name="f" unicode="f" horiz-adv-x="454" 
d="M274 590q0 28 16 50t42 34q11 4 11 9q0 7 -39 7q-25 0 -42.5 -21.5t-17.5 -58.5v-130h90v-20h-90v-440q0 -57 -18.5 -109.5t-52.5 -95.5t-90 -68.5t-125 -25.5q-214 0 -214 156q0 37 26 63.5t64 26.5t64 -26.5t26 -63.5t-26 -63.5t-64 -26.5q-10 0 -10 -7t16.5 -16
t32.5 -9q105 0 148 65t43 200v440h-50v20h50v60q0 73 75.5 121.5t164.5 48.5q65 0 107.5 -30t42.5 -90q0 -38 -26 -64t-64 -26t-64 26t-26 64z" />
    <glyph glyph-name="g" unicode="g" horiz-adv-x="603" 
d="M582 460h-20q-15 0 -27.5 -13t-12.5 -27v-400q0 -57 -18.5 -109.5t-52.5 -95.5t-90 -68.5t-125 -25.5q-214 0 -214 156q0 37 26 63.5t64 26.5t64 -26.5t26 -63.5t-26 -63.5t-64 -26.5q-10 0 -10 -5q0 -7 15.5 -17t31.5 -10q107 0 150 65t43 200v50q-25 -80 -90 -80
q-90 0 -136.5 62t-46.5 150q0 128 49.5 208t124.5 80q67 0 99 -42v32h240v-20zM342 154v177q0 58 -13 87.5t-33 29.5q-47 0 -47 -138v-200q0 -82 30 -82q21 0 41.5 38.5t21.5 87.5z" />
    <glyph glyph-name="h" unicode="h" horiz-adv-x="562" 
d="M296 20v-20h-279v20h20q15 0 27.5 13t12.5 27v580q0 14 -12.5 27t-27.5 13h-20v20h240v-271q44 61 136 61q53 0 93.5 -23t40.5 -57v-390q0 -135 43 -200t148 -65q16 0 32.5 10t16.5 17q0 5 -10 5q-37 0 -63.5 26.5t-26.5 63.5t26.5 63.5t63.5 26.5t63.5 -26.5t26.5 -63.5
q0 -156 -214 -156q-69 0 -125 25.5t-90 68.5t-52.5 95.5t-18.5 109.5v390q0 18 -7.5 28t-19.5 10q-22 0 -42.5 -30.5t-20.5 -86.5v-271q0 -14 12.5 -27t26.5 -13z" />
    <glyph glyph-name="i" unicode="i" horiz-adv-x="293" 
d="M18 460v20h240v-460q0 -135 43 -200t148 -65q16 0 32.5 10t16.5 17q0 5 -10 5q-38 0 -64 26.5t-26 63.5t26 63.5t64 26.5t64 -26.5t26 -63.5q0 -156 -214 -156q-69 0 -125 25.5t-90 68.5t-52.5 95.5t-18.5 109.5v400q0 14 -12.5 27t-27.5 13h-20zM78 600q0 38 26 64
t64 26t64 -26t26 -64t-26 -64t-64 -26t-64 26t-26 64z" />
    <glyph glyph-name="j" unicode="j" horiz-adv-x="291" 
d="M-62 -123q0 -37 -26 -63.5t-64 -26.5q-10 0 -10 -5q0 -7 16 -17t31 -10q107 0 150 65t43 200v400q0 14 -12.5 27t-27.5 13h-20v20h240v-460q0 -57 -18.5 -109.5t-52.5 -95.5t-90 -68.5t-125 -25.5q-214 0 -214 156q0 37 26 63.5t64 26.5t64 -26.5t26 -63.5zM258 610
q0 -38 -26 -64t-64 -26t-64 26t-26 64t26 64t64 26t64 -26t26 -64z" />
    <glyph glyph-name="k" unicode="k" horiz-adv-x="641" 
d="M26 680v20h240v-416l154 196q21 27 65 27q37 0 63.5 -26.5t26.5 -63.5t-26.5 -63.5t-63.5 -26.5q-32 0 -55 19.5t-33 51.5q-1 6 -7 6q-4 0 -7 -4l-23 -29l209 -311q4 -6 9 -14t7.5 -11.5t6.5 -7.5t8 -5.5t9 -1.5h22v-20h-239l-126 187v-167q0 -11 -4.5 -15.5t-15.5 -4.5
h-140q-11 0 -15.5 4.5t-4.5 15.5v620q0 14 -12.5 27t-27.5 13h-20z" />
    <glyph glyph-name="l" unicode="l" horiz-adv-x="297" 
d="M22 680v20h240v-680q0 -135 43 -200t148 -65q16 0 32.5 10t16.5 17q0 5 -10 5q-38 0 -64 26.5t-26 63.5t26 63.5t64 26.5t64 -26.5t26 -63.5q0 -156 -214 -156q-69 0 -125 25.5t-90 68.5t-52.5 95.5t-18.5 109.5v620q0 14 -12.5 27t-27.5 13h-20z" />
    <glyph glyph-name="m" unicode="m" horiz-adv-x="828" 
d="M13 460v20h240v-62q38 72 136 72q43 0 79.5 -16t49.5 -42q17 35 52.5 46.5t88.5 11.5q51 0 92.5 -32t41.5 -68v-370q0 -135 43 -200t148 -65q16 0 32.5 10t16.5 17q0 5 -10 5q-37 0 -63.5 26.5t-26.5 63.5t26.5 63.5t63.5 26.5t63.5 -26.5t26.5 -63.5q0 -156 -214 -156
q-69 0 -125 25.5t-90 68.5t-52.5 95.5t-18.5 109.5v390q0 24 -9.5 36.5t-23.5 12.5q-21 0 -39 -27t-18 -71v-301q0 -14 12.5 -27t27.5 -13v-20h-260v20q15 0 27.5 13t12.5 27v350q0 18 -7.5 28t-19.5 10q-22 0 -42.5 -30.5t-20.5 -86.5v-271q0 -14 12.5 -27t27.5 -13v-20
h-280v20h20q15 0 27.5 13t12.5 27v360q0 14 -12.5 27t-27.5 13h-20z" />
    <glyph glyph-name="n" unicode="n" horiz-adv-x="559" 
d="M14 460v20h240v-62q38 72 136 72q51 0 92.5 -32t41.5 -68v-370q0 -135 43 -200t148 -65q16 0 32.5 10t16.5 17q0 5 -10 5q-38 0 -64 26.5t-26 63.5t26 63.5t64 26.5t64 -26.5t26 -63.5q0 -156 -214 -156q-69 0 -125 25.5t-90 68.5t-52.5 95.5t-18.5 109.5v390
q0 18 -7.5 28t-19.5 10q-22 0 -42.5 -30.5t-20.5 -86.5v-271q0 -14 12.5 -27t27.5 -13v-20h-280v20h20q15 0 27.5 13t12.5 27v360q0 14 -12.5 27t-27.5 13h-20z" />
    <glyph glyph-name="o" unicode="o" horiz-adv-x="551" 
d="M25 240q0 104 73 177t177 73t177.5 -73t73.5 -177t-73.5 -177t-177.5 -73t-177 73t-73 177zM275 470q-20 0 -38.5 -12.5t-18.5 -40.5q0 -60 12 -60q1 0 5 4q11 35 46 35q19 0 33.5 -14t14.5 -34t-14.5 -34t-33.5 -14q-47 0 -66 29v-229q0 -32 6 -52t17 -27t18 -9t19 -2
t19 2t18 9t17 27t6 52v280q0 32 -6 52t-17 27t-18 9t-19 2z" />
    <glyph glyph-name="p" unicode="p" horiz-adv-x="546" 
d="M-62 -123q0 -37 -26 -63.5t-64 -26.5q-10 0 -10 -5q0 -7 16.5 -17t32.5 -10q105 0 148 65t43 200v400q0 14 -12.5 27t-27.5 13h-20v20h240v-51q30 61 87 61q50 0 86.5 -21t57 -56.5t30 -76.5t9.5 -87q0 -52 -14.5 -109t-49 -103.5t-80.5 -46.5q-91 0 -126 67v-37
q0 -57 -18.5 -109.5t-52.5 -95.5t-90 -68.5t-125 -25.5q-214 0 -214 156q0 37 26 63.5t64 26.5t64 -26.5t26 -63.5zM304 47q34 0 34 103v156q0 137 -36 137q-14 0 -29 -19.5t-15 -46.5v-243q0 -35 14.5 -61t31.5 -26z" />
    <glyph glyph-name="q" unicode="q" horiz-adv-x="545" 
d="M607 -123q0 37 26.5 63.5t63.5 26.5q38 0 64 -26.5t26 -66.5q0 -153 -214 -153q-69 0 -125 25.5t-90 68.5t-52.5 95.5t-18.5 109.5v37q-35 -67 -126 -67q-46 0 -80.5 46.5t-49 103.5t-14.5 109q0 46 9.5 87t30 76.5t57 56.5t86.5 21q56 0 87 -61v51h240v-20h-20
q-15 0 -27.5 -13t-12.5 -27v-400q0 -135 43 -200t148 -65q16 0 32.5 10t16.5 17q0 5 -10 5q-37 0 -63.5 26.5t-26.5 63.5zM241 47q17 0 31.5 26t14.5 61v243q0 27 -15 46.5t-29 19.5q-36 0 -36 -137v-156q0 -103 34 -103z" />
    <glyph glyph-name="r" unicode="r" horiz-adv-x="331" 
d="M13 460v20h240v-45q113 353 324 353q68 0 111.5 -45t43.5 -133q0 -38 -26 -64t-64 -26t-64 26t-26 64t26.5 64t66.5 26q31 0 31 18q0 9 -11 20q-26 27 -88 27q-59 0 -137.5 -95.5t-132.5 -215t-54 -190.5v-204q0 -14 12.5 -27t27.5 -13h20v-20h-300v20h20q15 0 27.5 13
t12.5 27v360q0 14 -12.5 27t-27.5 13h-20z" />
    <glyph glyph-name="s" unicode="s" horiz-adv-x="451" 
d="M370 480v46q0 28 -12.5 44t-28.5 16q-9 0 -9 -3q0 -2 4 -4q31 -10 31 -39q0 -16 -11.5 -28t-28.5 -12t-28.5 12t-11.5 28q0 31 16 48.5t38 17.5q25 0 43 -21t18 -59v-226h-20q-17 43 -26.5 63.5t-29 50.5t-44.5 43t-57 13q-17 0 -31.5 -15.5t-14.5 -37.5q0 -55 120 -111
q39 -18 57 -28t40 -29t30.5 -45.5t8.5 -64.5q0 -55 -46.5 -102t-138.5 -47q-44 0 -90 22t-58 22q-25 0 -50 -34h-20v225h20q4 -37 34.5 -86.5t62.5 -76.5q59 -49 102 -49q45 0 45 57q0 27 -26.5 46.5t-64 35t-75.5 35.5t-64.5 58.5t-26.5 93.5q0 71 54.5 111t130.5 40
q43 0 99 -21q19 -7 34 -7q25 0 25 18z" />
    <glyph glyph-name="t" unicode="t" horiz-adv-x="329" 
d="M222 625h20v-145h69v-20h-69v-440q0 -135 43 -200t148 -65q16 0 32.5 10t16.5 17q0 5 -10 5q-38 0 -64 26.5t-26 63.5t26 63.5t64 26.5t64 -26.5t26 -63.5q0 -156 -214 -156q-69 0 -125 25.5t-90 68.5t-52.5 95.5t-18.5 109.5v440h-40v20q70 0 135 42.5t65 102.5z" />
    <glyph glyph-name="u" unicode="u" horiz-adv-x="559" 
d="M304 460h-20v20h240v-460q0 -135 43 -200t150 -65q15 0 31 10t16 17q0 5 -10 5q-38 0 -64 26.5t-26 63.5t26 63.5t64 26.5t64 -26.5t26 -63.5q0 -156 -214 -156q-69 0 -125 25.5t-90 68.5t-52.5 95.5t-18.5 109.5v42q-38 -71 -126 -71q-58 0 -101 32t-43 87v310
q0 14 -12.5 27t-27.5 13h-20v20h240v-410q0 -18 7.5 -28t19.5 -10q22 0 42.5 30.5t20.5 86.5v271q0 14 -12.5 27t-27.5 13z" />
    <glyph glyph-name="v" unicode="v" horiz-adv-x="539" 
d="M936 610q0 -38 -26 -64t-64 -26t-64 26t-26 64t26.5 64t66.5 26q31 0 31 18q0 24 -33.5 35.5t-65.5 11.5q-73 0 -155.5 -116.5t-143 -275.5t-91.5 -313l-12 -60h-135l-166 430q-4 12 -21 21t-30 9h-20v20h313v-20h-20q-12 0 -19.5 -8.5t-7.5 -20.5q0 -3 2 -11l109 -284
q13 67 24.5 119.5t31 123.5t40.5 124.5t52.5 109.5t66.5 92.5t82 59.5t100 23q68 0 111.5 -45t43.5 -133z" />
    <glyph glyph-name="w" unicode="w" horiz-adv-x="722" 
d="M8 460v20h270v-20q-9 0 -16 -10t-7 -21q0 -6 1 -9l64 -214l38 147l-21 67q-5 15 -16.5 27.5t-25.5 12.5v20h280v-20q-49 0 -49 -40l60 -200q19 88 38.5 158t52.5 150.5t71 134t95 89.5t123 36q68 0 111.5 -45t43.5 -133q0 -38 -26.5 -64t-63.5 -26t-63.5 26t-26.5 64
t26.5 64t63.5 26q33 0 33 17q0 8 -10 21q-31 27 -88 27q-73 0 -156 -116t-144 -276t-90 -313l-12 -60h-99l-96 316l-81 -316h-93l-127 420q-11 40 -60 40z" />
    <glyph glyph-name="x" unicode="x" horiz-adv-x="612" 
d="M531 480v-20q-23 0 -104 -84l-58 -61l150 -259q8 -13 36 -24.5t44 -11.5v-20h-323v20q14 0 24.5 9.5t10.5 20.5q0 6 -3 10l-94 162q-53 -39 -82.5 -67.5t-41.5 -59.5q-2 -4 -2 -9q0 -3 2 -3q4 0 8 4q41 43 77 43q37 0 63.5 -26t26.5 -64q0 -42 -29.5 -65.5t-70.5 -23.5
q-43 0 -75 24.5t-32 67.5q0 91 146 197l-105 181q-8 13 -32.5 26t-39.5 13v20h309v-20q-12 0 -21 -9t-9 -20q0 -7 2 -10l51 -88l47 50q9 11 9 33q0 44 -35 44v20h151z" />
    <glyph glyph-name="y" unicode="y" horiz-adv-x="538" 
d="M320 480v-20q-13 0 -26 -10.5t-13 -22.5q0 -3 2 -7l102 -236q15 75 30.5 135.5t39 135t53 129.5t67.5 103.5t88.5 74.5t108.5 26q68 0 111.5 -45t43.5 -133q0 -38 -26.5 -64t-63.5 -26t-63.5 26t-26.5 64t26.5 64t63.5 26q34 0 34 18q0 9 -11 20q-26 27 -88 27
q-41 0 -84.5 -38.5t-81.5 -98.5t-76.5 -144t-69 -165t-59.5 -172l-60 -187q-25 -76 -66 -114.5t-85 -38.5t-75 35.5t-31 92.5q0 37 26 63.5t64 26.5t64 -26.5t26 -63.5t-26 -63.5t-64 -26.5q-25 0 -25 -3q0 -1 3 -4q12 -11 38 -11q37 0 73.5 35.5t58.5 103.5l11 34h-67
l-189 418q-7 14 -29.5 28t-37.5 14v20h310z" />
    <glyph glyph-name="z" unicode="z" horiz-adv-x="577" 
d="M57 382q28 63 86 63q37 0 63.5 -26.5t26.5 -63.5t-26.5 -63.5t-63.5 -26.5q-55 0 -85 31t-30 74q0 44 31.5 77t86.5 33h371v-20l-229 -440h22q53 0 133 85t80 135h20v-240h-458v20l229 440h-168q-38 0 -63 -19t-32 -48q-2 -8 -2 -11q0 -6 3 -6t5 6z" />
    <glyph glyph-name="K22" unicode="&#x2222;" horiz-adv-x="1315" 
d="M522 106l-247 243l222 221v-102h172q-3 30 -3 53q0 26 4 45t9 29t12 16t12 7.5t10 1.5q43 -3 43 -52q0 -116 -234 -462zM933 468h154q-3 30 -3 53q0 26 4 45t9 29t12 16t12 7.5t10 1.5q43 -3 43 -52q0 -116 -234 -462h-211q100 155 204 362zM275 697v-696h-59v696h59z
M194 697v-696h-35v696h35zM138 697v-696h-21v696h21zM1277 106h-134l134 208v-208zM96 697v-696h-7v696h7zM862 697h120q-30 -30 -56 -77q-32 50 -64 77z" />
    <glyph glyph-name="alt_cap_f" unicode="&#xe000;" horiz-adv-x="953" 
d="M376 20h20q34 0 47 13.5t13 46.5v540q0 33 -13 46.5t-47 13.5h-58q-116 0 -179.5 -71t-63.5 -162q0 -68 36 -115t99 -47q9 0 21.5 3t21 7t8.5 6q0 1 -5 1q-41 0 -70.5 29.5t-29.5 70.5t29.5 70.5t70.5 29.5t70.5 -29.5t29.5 -70.5q0 -64 -42.5 -105.5t-103.5 -41.5
q-94 0 -146.5 60.5t-52.5 167.5q0 87 68 152t182 65h650v-258h-20q-1 73 -66 155.5t-139 82.5h-40v-290h22q50 0 81 45.5t32 84.5h20v-300h-20q-1 39 -32 84.5t-81 45.5h-22v-270q0 -33 13 -46.5t47 -13.5h20v-20h-370v20z" />
    <glyph glyph-name="alt_cap_m" unicode="&#xe001;" horiz-adv-x="1213" 
d="M806 20h20q34 0 47 13.5t13 46.5v494l-148 -574h-81l-181 558v-408q0 -12 4.5 -32t13 -43t25 -39t37.5 -16h20v-20h-220v20h20q39 0 59.5 39.5t20.5 70.5v490q0 20 -19.5 40t-40.5 20h-58q-116 0 -179.5 -71t-63.5 -162q0 -68 36 -115t99 -47q12 0 24.5 3t19.5 6.5t7 5.5
t-5 2q-41 0 -70.5 29.5t-29.5 70.5t29.5 70.5t70.5 29.5t70.5 -29.5t29.5 -70.5q0 -64 -42.5 -105.5t-103.5 -41.5q-94 0 -146.5 60.5t-52.5 167.5q0 87 68 152t182 65h369l138 -426l110 426h278v-20h-20q-34 0 -47 -13.5t-13 -46.5v-540q0 -33 13 -46.5t47 -13.5h20v-20
h-370v20z" />
    <glyph glyph-name="alt_cap_n" unicode="&#xe002;" horiz-adv-x="1066" 
d="M476 586v-436q0 -12 4.5 -32t13 -43t25 -39t37.5 -16h20v-20h-220v20h20q39 0 59.5 39.5t20.5 70.5v490q0 33 -13 46.5t-47 13.5h-58q-116 0 -179.5 -71t-63.5 -162q0 -68 36 -115t99 -47q12 0 24.5 3t19.5 6.5t7 5.5t-5 2q-41 0 -70.5 29.5t-29.5 70.5t29.5 70.5
t70.5 29.5t70.5 -29.5t29.5 -70.5q0 -64 -42.5 -105.5t-103.5 -41.5q-94 0 -146.5 60.5t-52.5 167.5q0 87 68 152t182 65h374l261 -508v358q0 12 -4.5 32t-13 43t-25 39t-37.5 16h-20v20h220v-20h-20q-39 0 -59.5 -39.5t-20.5 -70.5v-570h-157z" />
    <glyph glyph-name="alt_cap_p" unicode="&#xe003;" horiz-adv-x="996" 
d="M746 20v-20h-370v20h20q34 0 47 13.5t13 46.5v540q0 33 -13 46.5t-47 13.5h-58q-116 0 -179.5 -71t-63.5 -162q0 -68 36 -115t99 -47q12 0 24.5 3t19.5 6.5t7 5.5t-5 2q-41 0 -70.5 29.5t-29.5 70.5t29.5 70.5t70.5 29.5t70.5 -29.5t29.5 -70.5q0 -64 -42.5 -105.5
t-103.5 -41.5q-94 0 -146.5 60.5t-52.5 167.5q0 87 68 152t182 65h413q141 0 212.5 -57t71.5 -147t-71.5 -147.5t-212.5 -57.5h-28v-211q0 -33 13 -46.5t47 -13.5h20zM694 311q44 0 56 40.5t12 144.5t-12 144t-56 40h-28v-351q0 -18 28 -18z" />
    <glyph glyph-name="alt_cap_r" unicode="&#xe004;" horiz-adv-x="1104" 
d="M777 90l1 100v105q0 21 -18.5 40.5t-49.5 19.5h-44v-275q0 -33 13 -46.5t47 -13.5h20v-20h-370v20h20q34 0 47 13.5t13 46.5v540q0 33 -13 46.5t-47 13.5h-58q-116 0 -179.5 -71t-63.5 -162q0 -68 36 -115t99 -47q9 0 21.5 3t21 7t8.5 6q0 1 -5 1q-41 0 -70.5 29.5
t-29.5 70.5t29.5 70.5t70.5 29.5t70.5 -29.5t29.5 -70.5q0 -64 -42.5 -105.5t-103.5 -41.5q-94 0 -146.5 60.5t-52.5 167.5q0 87 68 152t182 65h459q124 0 194 -45.5t70 -126.5q0 -62 -40.5 -104t-116.5 -59q79 -14 110 -47.5t31 -92.5v-5.5v-14.5t-0.5 -25t-0.5 -41.5
v-58.5q0 -18 16 -18q48 0 48 53v99h20v-99q0 -65 -41 -97.5t-101 -32.5q-59 0 -105.5 30t-46.5 75zM794 528q0 34 -1 53.5t-5 41t-12 32.5t-21.5 18t-34.5 7h-54v-305h44q29 0 46.5 9t25.5 31.5t10 45.5t2 67z" />
    <glyph glyph-name="alt_cap_x" unicode="&#xe005;" horiz-adv-x="1177" 
d="M397 680h-59q-116 0 -179.5 -71t-63.5 -162q0 -68 36 -115t99 -47q12 0 24.5 3t19.5 6.5t7 5.5t-5 2q-41 0 -70.5 29.5t-29.5 70.5t29.5 70.5t70.5 29.5t70.5 -29.5t29.5 -70.5q0 -61 -41 -104t-105 -43q-94 0 -146.5 60.5t-52.5 167.5q0 87 68 152t182 65h475v-20h-28
q-37 0 -37 -27q0 -13 12 -33l114 -186l38 71q26 49 26 95q0 36 -15 58t-39 22h-20v20h250v-20h-20q-32 0 -73 -47t-64 -89l-71 -130l207 -334q37 -60 96 -60h20v-20h-410v20h28q34 0 34 25q0 11 -10 34q-16 36 -40 75.5t-56 87.5t-48 74l-67 -123q-19 -34 -19 -72
q0 -43 26 -72t62 -29h20v-20h-290v20h20q32 0 72.5 47t64.5 91l98 178l-173 284q-4 5 -13.5 18.5t-13 18t-10.5 11.5t-14 9.5t-16 2.5z" />
    <glyph glyph-name="alt_cap_y" unicode="&#xe006;" horiz-adv-x="1096" 
d="M396 680h-58q-116 0 -179.5 -71t-63.5 -162q0 -68 36 -115t99 -47q15 0 33 5t18 9q0 3 -5 3q-41 0 -70.5 29.5t-29.5 70.5t29.5 70.5t70.5 29.5t70.5 -29.5t29.5 -70.5q0 -61 -41 -104t-105 -43q-94 0 -146.5 60.5t-52.5 167.5q0 87 68 152t182 65h475v-20h-28
q-38 0 -38 -28q0 -13 10 -29l127 -206l48 88q26 47 26 94q0 36 -15.5 58.5t-38.5 22.5h-20v20h250v-20h-20q-32 0 -73.5 -47.5t-64.5 -89.5l-78 -144v-319q0 -33 13 -46.5t47 -13.5h20v-20h-370v20h20q34 0 47 13.5t13 46.5v267q-18 29 -54.5 92t-62.5 105t-51 76
q-4 5 -13.5 18.5t-13 18t-10.5 11.5t-14 9.5t-16 2.5z" />
    <glyph glyph-name="alt_low_a" unicode="&#xe007;" horiz-adv-x="544" 
d="M272 490q62 0 107.5 -11.5t67 -29t31 -32.5t9.5 -27v-390h-180v45q-55 -55 -131 -55q-65 0 -100 35.5t-35 85.5q0 53 38 93t104 40q42 0 83 36t41 73v66q0 47 -70 47q-25 0 -37 -4q-13 -4 -13 -10q0 -1 2 -3q73 -32 73 -88q0 -37 -26 -63.5t-64 -26.5t-64 26.5t-26 66.5
q0 62 55 94t135 32zM231 71q0 -13 8.5 -23.5t20.5 -10.5q16 0 31.5 20.5t15.5 51.5v187q-14 -18 -35.5 -36t-29.5 -34.5t-10 -53.5q-1 -11 -1 -101z" />
    <glyph glyph-name="alt_low_d" unicode="&#xe008;" horiz-adv-x="546" 
d="M486 0h-180v50q-31 -60 -87 -60q-97 0 -145 61.5t-48 150.5v116q0 51 48 111.5t116 60.5q78 0 116 -51v201q0 14 -12.5 27t-27.5 13h-20v20h240v-700zM243 448q-12 0 -19.5 -10t-7.5 -28v-300q0 -83 37 -83q19 0 36 25t17 53v226q0 56 -20.5 86.5t-42.5 30.5z" />
    <glyph glyph-name="alt_low_f" unicode="&#xe009;" horiz-adv-x="520" 
d="M27 0v20h20q34 0 47 13.5t13 46.5v380h-50v20h50v60q0 73 75.5 121.5t164.5 48.5q64 0 107 -29.5t43 -87.5q0 -40 -26 -66.5t-64 -26.5q-37 0 -63.5 26t-26.5 64q0 27 14.5 49t37.5 33q17 8 17 12q0 6 -39 6q-25 0 -42.5 -21.5t-17.5 -58.5v-130h90v-20h-90v-380
q0 -33 13 -46.5t47 -13.5h20v-20h-340z" />
    <glyph glyph-name="alt_low_h" unicode="&#xe00a;" horiz-adv-x="569" 
d="M32 680v20h240v-271q44 61 136 61q53 0 93.5 -23t40.5 -57v-390q0 -11 -4.5 -15.5t-15.5 -4.5h-140q-11 0 -15.5 4.5t-4.5 15.5v390q0 18 -7.5 28t-19.5 10q-22 0 -42.5 -30.5t-20.5 -86.5v-311q0 -11 -4.5 -15.5t-15.5 -4.5h-140q-11 0 -15.5 4.5t-4.5 15.5v620
q0 14 -12.5 27t-27.5 13h-20z" />
    <glyph glyph-name="alt_low_i" unicode="&#xe00b;" horiz-adv-x="296" 
d="M13 460v20h240v-460q0 -11 -4.5 -15.5t-15.5 -4.5h-140q-11 0 -15.5 4.5t-4.5 15.5v400q0 14 -12.5 27t-27.5 13h-20zM73 600q0 38 26.5 64t63.5 26t63.5 -26t26.5 -64t-26.5 -64t-63.5 -26t-63.5 26t-26.5 64z" />
    <glyph glyph-name="alt_low_j" unicode="&#xe00c;" horiz-adv-x="321" 
d="M74 -70q0 -31 -20 -54t-52 -34q-7 -3 -7 -6q0 -5 9 -8.5t21 -3.5q14 0 22 2.5t18 13t15.5 30.5t9.5 58t4 92v400q0 14 -12.5 27t-27.5 13h-20v20h240v-460q0 -104 -70.5 -160t-160.5 -56q-59 0 -104 33t-45 93q0 38 26 64t64 26t64 -26t26 -64zM274 600q0 -38 -26 -64
t-64 -26t-64 26t-26 64t26 64t64 26t64 -26t26 -64z" />
    <glyph glyph-name="alt_low_l" unicode="&#xe00d;" horiz-adv-x="302" 
d="M17 680v20h240v-680q0 -11 -4.5 -15.5t-15.5 -4.5h-140q-11 0 -15.5 4.5t-4.5 15.5v620q0 14 -12.5 27t-27.5 13h-20z" />
    <glyph glyph-name="alt_low_m" unicode="&#xe00e;" horiz-adv-x="838" 
d="M25 460v20h240v-62q38 72 136 72q43 0 79.5 -16t49.5 -42q17 35 52.5 46.5t88.5 11.5q51 0 92.5 -32t41.5 -68v-370q0 -11 -4.5 -15.5t-15.5 -4.5h-140q-11 0 -15.5 4.5t-4.5 15.5v390q0 24 -9.5 36.5t-23.5 12.5q-21 0 -39 -27t-18 -71v-341q0 -11 -4.5 -15.5
t-15.5 -4.5h-140q-11 0 -15.5 4.5t-4.5 15.5v390q0 18 -7.5 28t-19.5 10q-22 0 -42.5 -30.5t-20.5 -86.5v-311q0 -11 -4.5 -15.5t-15.5 -4.5h-140q-11 0 -15.5 4.5t-4.5 15.5v400q0 14 -12.5 27t-27.5 13h-20z" />
    <glyph glyph-name="alt_low_n" unicode="&#xe00f;" horiz-adv-x="563" 
d="M21 460v20h240v-62q38 72 136 72q51 0 92.5 -32t41.5 -68v-370q0 -11 -4.5 -15.5t-15.5 -4.5h-140q-11 0 -15.5 4.5t-4.5 15.5v390q0 18 -7.5 28t-19.5 10q-22 0 -42.5 -30.5t-20.5 -86.5v-311q0 -11 -4.5 -15.5t-15.5 -4.5h-140q-11 0 -15.5 4.5t-4.5 15.5v400
q0 14 -12.5 27t-27.5 13h-20z" />
    <glyph glyph-name="alt_low_p" unicode="&#xe010;" horiz-adv-x="548" 
d="M21 460v20h240v-51q30 61 87 61q50 0 86.5 -21t57 -56.5t30 -76.5t9.5 -87q0 -52 -14.5 -109t-49 -103.5t-80.5 -46.5q-91 0 -126 67v-187q0 -11 -4.5 -15.5t-15.5 -4.5h-140q-11 0 -15.5 4.5t-4.5 15.5v550q0 14 -12.5 27t-27.5 13h-20zM307 47q34 0 34 103v156
q0 137 -36 137q-14 0 -29 -19.5t-15 -46.5v-235q0 -38 14.5 -66.5t31.5 -28.5z" />
    <glyph glyph-name="alt_low_q" unicode="&#xe011;" horiz-adv-x="548" 
d="M287 142v235q0 27 -15 46.5t-29 19.5q-36 0 -36 -137v-156q0 -103 34 -103q17 0 31.5 28.5t14.5 66.5zM527 -150h-220q-11 0 -15.5 4.5t-4.5 15.5v187q-35 -67 -126 -67q-46 0 -80.5 46.5t-49 103.5t-14.5 109q0 46 9.5 87t30 76.5t57 56.5t86.5 21q56 0 87 -61v51h180
v-570q0 -14 12.5 -27t27.5 -13h20v-20z" />
    <glyph glyph-name="alt_low_s" unicode="&#xe012;" horiz-adv-x="494" 
d="M284 390q0 27 19 46q4 4 9 8t7 6t2 4q0 3 -18 9q-25 7 -50 7q-23 0 -39 -15t-16 -38q0 -55 120 -111q39 -18 57 -28t40 -29t30.5 -45.5t8.5 -64.5q0 -55 -47 -102t-138 -47q-44 0 -90 22t-58 22q-25 0 -50 -34h-20v225h20q4 -37 34.5 -86.5t62.5 -76.5q59 -49 102 -49
q45 0 45 57q0 27 -26.5 46.5t-64.5 35t-75.5 35.5t-64 58.5t-26.5 93.5q0 71 54.5 111t130.5 40q25 0 53 -5.5t56 -16.5t46 -31.5t18 -46.5q0 -27 -19.5 -46.5t-46.5 -19.5t-46.5 19.5t-19.5 46.5z" />
    <glyph glyph-name="alt_low_t" unicode="&#xe013;" horiz-adv-x="324" 
d="M216 625h20v-145h69v-20h-69v-380q0 -30 16 -45t37 -15v-20l-35 -5q-36 -5 -62 -5q-52 0 -94 23.5t-42 59.5v387h-40v20q70 0 135 42.5t65 102.5z" />
    <glyph glyph-name="alt_low_u" unicode="&#xe014;" horiz-adv-x="581" 
d="M317 460h-20v20h240v-480h-180v62q-38 -71 -126 -71q-58 0 -101 32t-43 87v310q0 14 -12.5 27t-27.5 13h-20v20h240v-410q0 -18 7.5 -28t19.5 -10q22 0 42.5 30.5t20.5 86.5v271q0 14 -12.5 27t-27.5 13z" />
    <glyph glyph-name="alt_low_v" unicode="&#xe015;" horiz-adv-x="521" 
d="M14 480h193l138 -357q34 100 98 184q1 2 7 9.5t9 11.5t6 11t3 13q0 14 -7 14q-2 0 -5 -3q-39 -33 -70 -33q-38 0 -64 26t-26 64t26 64t64 26q48 0 83 -28.5t35 -76.5q0 -32 -11 -56t-30 -48.5t-40.5 -56.5t-46.5 -95.5t-44 -148.5h-133z" />
    <glyph glyph-name="alt_low_w" unicode="&#xe016;" horiz-adv-x="783" 
d="M31 460v20h212l82 -274l38 147l-21 67q-13 40 -42 40v20h213l91 -305q27 62 79 132q1 1 9.5 11t12.5 17.5t4 15.5q0 9 -6 9q-3 0 -5 -1q-29 -19 -56 -19q-38 0 -64 26t-26 64q0 37 26 63.5t63 26.5q44 0 73.5 -33.5t29.5 -81.5q0 -32 -11 -56t-30.5 -48.5t-41 -56.5
t-46.5 -95.5t-44 -148.5h-101l-96 316l-81 -316h-93l-128 421q-12 39 -41 39z" />
    <glyph glyph-name="alt_low_y" unicode="&#xe017;" horiz-adv-x="551" 
d="M14 460v20h247l132 -308q12 33 59 103q22 35 33 53t22.5 47t11.5 52q0 9 -4 17.5t-8 8.5t-4 -15q0 -40 -26 -66.5t-64 -26.5q-37 0 -63.5 26.5t-26.5 63.5t26.5 63.5t63.5 26.5q60 0 93 -27.5t33 -70.5q0 -41 -26 -89t-61 -101t-47 -91l-60 -186q-25 -76 -66 -114.5
t-85 -38.5t-75 35.5t-31 92.5q0 37 26 63.5t64 26.5t64 -26.5t26 -63.5t-26 -63.5t-64 -26.5q-25 0 -25 -3q0 -1 3 -4q12 -11 38 -11q37 0 73.5 35.5t58.5 103.5l11 34h-67l-189 418q-7 14 -29.5 28t-37.5 14z" />
    <glyph glyph-name="terminal_e" unicode="&#xe018;" horiz-adv-x="801" 
d="M555 275q0 38 26.5 64t66.5 26q63 0 93.5 -30t30.5 -78q0 -44 -22.5 -92t-65 -92.5t-117.5 -73.5t-167 -29q-161 0 -258 70t-97 200q0 104 73 177t177 73q103 0 159 -60t56 -180h-265v-150q0 -44 39.5 -77t115.5 -33q87 0 158 27t111.5 68.5t61.5 86t21 85.5
q0 13 -2.5 22.5t-5.5 13.5t-5 4q-5 0 -5 -8q0 -3 0.5 -7.5t0.5 -6.5q0 -37 -26.5 -63.5t-63.5 -26.5t-63.5 26.5t-26.5 63.5zM245 380v-110h80v110q0 57 -6.5 73.5t-23.5 16.5q-19 0 -34.5 -21.5t-15.5 -68.5z" />
    <glyph glyph-name="terminal_s" unicode="&#xe019;" horiz-adv-x="1270" 
d="M257 13q45 0 45 57q0 27 -26.5 46.5t-64 35t-75.5 35.5t-64.5 58.5t-26.5 93.5q0 71 54.5 111t130.5 40q43 0 99 -21q15 -6 31 -6q20 0 28 17h20v-180h-20q-36 95 -65.5 129.5t-69.5 39.5q-8 1 -23 1q-16 0 -30.5 -15.5t-14.5 -37.5q0 -55 120 -111q39 -18 57 -28t40 -29
t30.5 -45.5t8.5 -64.5q0 -66 -56 -111q152 48 285 234q14 19 14 53q0 54 -34 84t-80 30q-23 0 -35 -19t-12 -47q0 -34 18 -60.5t50 -26.5q-34 -43 -76 -43q-32 0 -54 25.5t-22 66.5q0 58 39 91t92 33q54 0 94 -36.5t40 -106.5q26 35 32 44t30 40.5t33 41t31.5 34t35 33
t34.5 24.5t40 21.5t40.5 11t45.5 5.5q107 0 107 -110q-73 26 -132 26q-78 0 -143 -41.5t-128 -127.5l-26 -35q72 51 160.5 83t166.5 32q93 0 147 -57.5t54 -132.5q0 -68 -47 -116.5t-134 -48.5q-66 0 -112.5 35.5t-46.5 101.5q0 46 40 81.5t91 35.5q19 0 37 -6
q-30 -33 -30 -62q0 -24 16.5 -36.5t41.5 -12.5q32 0 57.5 20t25.5 53q0 48 -37.5 86.5t-102.5 38.5q-99 0 -212 -50t-174 -121q-25 -30 -46 -51q33 10 73 10q77 0 119 -39t42 -92q0 -45 -32 -77.5t-88 -32.5q-37 0 -69 21t-49 62q16 -2 29 -2q51 0 87.5 29.5t36.5 62.5
q0 21 -19 34.5t-57 13.5q-77 0 -119 -35q-117 -95 -272 -110q-6 -1 -19 -1q-46 0 -93.5 22.5t-59.5 22.5q-25 0 -51 -35h-20v225h20q4 -37 34.5 -86.5t62.5 -76.5q59 -49 102 -49z" />
    <glyph glyph-name="CR" horiz-adv-x="500" 
 />
  </font>
</defs>
</svg>
